G04*
G04 #@! TF.GenerationSoftware,Altium Limited,Altium Designer,23.3.1 (30)*
G04*
G04 Layer_Physical_Order=2*
G04 Layer_Color=16711680*
%FSLAX44Y44*%
%MOMM*%
G71*
G04*
G04 #@! TF.SameCoordinates,C1E6EB35-FD0D-487A-9AD2-E077E24BAF61*
G04*
G04*
G04 #@! TF.FilePolarity,Positive*
G04*
G01*
G75*
%ADD13C,0.4000*%
%ADD73C,1.6000*%
%ADD74R,1.6000X1.6000*%
%ADD76C,1.4500*%
%ADD79R,1.4500X1.4500*%
%ADD80C,1.5500*%
%ADD81R,1.5500X1.5500*%
%ADD85C,0.3000*%
%ADD87C,0.3560*%
%ADD90C,0.9000*%
%ADD91C,0.4064*%
%ADD93C,1.0000*%
%ADD94C,0.8000*%
%ADD95C,3.0000*%
%ADD96C,1.5000*%
%ADD97C,2.1000*%
G04:AMPARAMS|DCode=98|XSize=1.5mm|YSize=1.5mm|CornerRadius=0.375mm|HoleSize=0mm|Usage=FLASHONLY|Rotation=0.000|XOffset=0mm|YOffset=0mm|HoleType=Round|Shape=RoundedRectangle|*
%AMROUNDEDRECTD98*
21,1,1.5000,0.7500,0,0,0.0*
21,1,0.7500,1.5000,0,0,0.0*
1,1,0.7500,0.3750,-0.3750*
1,1,0.7500,-0.3750,-0.3750*
1,1,0.7500,-0.3750,0.3750*
1,1,0.7500,0.3750,0.3750*
%
%ADD98ROUNDEDRECTD98*%
%ADD99C,0.9070*%
%ADD100C,0.9065*%
%ADD101C,0.5000*%
%ADD102C,0.7000*%
G36*
X1135380Y495671D02*
Y389410D01*
X1134110Y388731D01*
X1132810Y389599D01*
X1130300Y390099D01*
X1127790Y389599D01*
X1125662Y388178D01*
X1124241Y386050D01*
X1123741Y383540D01*
X1124241Y381030D01*
X1125662Y378902D01*
X1126324Y378461D01*
Y319852D01*
X1126626Y318331D01*
X1127488Y317041D01*
X1127886Y316643D01*
X1127551Y314960D01*
X1128051Y312450D01*
X1129472Y310322D01*
X1131600Y308901D01*
X1134110Y308401D01*
X1136620Y308901D01*
X1138748Y310322D01*
X1140169Y312450D01*
X1140669Y314960D01*
X1140169Y317470D01*
X1138748Y319598D01*
X1136620Y321019D01*
X1134294Y321482D01*
X1134276Y321499D01*
Y367898D01*
X1135380Y368300D01*
Y368300D01*
X1328208D01*
X1328694Y367127D01*
X1268564Y306997D01*
X1083310D01*
X1081983Y306733D01*
X1080859Y305981D01*
X1050379Y275501D01*
X1049627Y274377D01*
X1049363Y273050D01*
Y263230D01*
X1048192Y262448D01*
X1046771Y260320D01*
X1046271Y257810D01*
X1046771Y255300D01*
X1048192Y253172D01*
X1050320Y251751D01*
X1052830Y251251D01*
X1055340Y251751D01*
X1057468Y253172D01*
X1058889Y255300D01*
X1059389Y257810D01*
X1058889Y260320D01*
X1057468Y262448D01*
X1056297Y263230D01*
Y271614D01*
X1064700Y280018D01*
X1065873Y279531D01*
Y273390D01*
X1064702Y272608D01*
X1063281Y270480D01*
X1062781Y267970D01*
X1063281Y265460D01*
X1064702Y263332D01*
X1066830Y261911D01*
X1069340Y261411D01*
X1071850Y261911D01*
X1073978Y263332D01*
X1075399Y265460D01*
X1075899Y267970D01*
X1075399Y270480D01*
X1073978Y272608D01*
X1072807Y273390D01*
Y281194D01*
X1086376Y294763D01*
X1227730D01*
X1229035Y293459D01*
X1230159Y292707D01*
X1231486Y292443D01*
X1339510D01*
X1340292Y291272D01*
X1342420Y289851D01*
X1343183Y289699D01*
Y288404D01*
X1341150Y287999D01*
X1339022Y286578D01*
X1338240Y285407D01*
X1219032D01*
X1217507Y286931D01*
X1216382Y287683D01*
X1215056Y287947D01*
X1095080D01*
X1094298Y289118D01*
X1092170Y290539D01*
X1089660Y291039D01*
X1087150Y290539D01*
X1085022Y289118D01*
X1083601Y286990D01*
X1083101Y284480D01*
X1083601Y281970D01*
X1085022Y279842D01*
X1087150Y278421D01*
X1088315Y278189D01*
X1088583Y276841D01*
X1088479Y276771D01*
X1085961Y274254D01*
X1084580Y274529D01*
X1082070Y274029D01*
X1079942Y272608D01*
X1078521Y270480D01*
X1078021Y267970D01*
X1078521Y265460D01*
X1079942Y263332D01*
X1082070Y261911D01*
X1084580Y261411D01*
X1087090Y261911D01*
X1089218Y263332D01*
X1090639Y265460D01*
X1091139Y267970D01*
X1090864Y269351D01*
X1092366Y270853D01*
X1276184D01*
X1280249Y266789D01*
X1281373Y266037D01*
X1282700Y265773D01*
X1340780D01*
X1341562Y264602D01*
X1343690Y263181D01*
X1346200Y262681D01*
X1348710Y263181D01*
X1350838Y264602D01*
X1352259Y266730D01*
X1352759Y269240D01*
X1352259Y271750D01*
X1350838Y273878D01*
X1348710Y275299D01*
X1347844Y275472D01*
X1347576Y276820D01*
X1348298Y277302D01*
X1349719Y279430D01*
X1350219Y281940D01*
X1349719Y284450D01*
X1348298Y286578D01*
X1346170Y287999D01*
X1345407Y288151D01*
Y289446D01*
X1347440Y289851D01*
X1349568Y291272D01*
X1350989Y293400D01*
X1351489Y295910D01*
X1350989Y298420D01*
X1349568Y300548D01*
X1347440Y301969D01*
X1344930Y302469D01*
X1342420Y301969D01*
X1340292Y300548D01*
X1339510Y299377D01*
X1272190D01*
X1271805Y300647D01*
X1272451Y301079D01*
X1339673Y368300D01*
X1358900D01*
Y495300D01*
X1779270D01*
Y476803D01*
X1775928Y472992D01*
X1772830Y468356D01*
X1770364Y463354D01*
X1768571Y458074D01*
X1767483Y452604D01*
X1767119Y447040D01*
X1767483Y441475D01*
X1768571Y436006D01*
X1770364Y430726D01*
X1772830Y425724D01*
X1775928Y421088D01*
X1779270Y417277D01*
Y415290D01*
X1780540Y414020D01*
X1782884D01*
X1783798Y413218D01*
X1788434Y410120D01*
X1793436Y407654D01*
X1798716Y405861D01*
X1804185Y404773D01*
X1809750Y404409D01*
X1815314Y404773D01*
X1820784Y405861D01*
X1826064Y407654D01*
X1831066Y410120D01*
X1835702Y413218D01*
X1836616Y414020D01*
X1842770D01*
Y91230D01*
X1841500Y90655D01*
X1838242Y93512D01*
X1833606Y96610D01*
X1828604Y99076D01*
X1823324Y100869D01*
X1817854Y101957D01*
X1812290Y102321D01*
X1806725Y101957D01*
X1801256Y100869D01*
X1795976Y99076D01*
X1790974Y96610D01*
X1786338Y93512D01*
X1782145Y89835D01*
X1778468Y85642D01*
X1775370Y81006D01*
X1772904Y76004D01*
X1771111Y70724D01*
X1770023Y65255D01*
X1769659Y59690D01*
X1770023Y54125D01*
X1771111Y48656D01*
X1772904Y43376D01*
X1775370Y38374D01*
X1778468Y33738D01*
X1782145Y29545D01*
X1785620Y26498D01*
Y12700D01*
X91440D01*
Y34430D01*
X91530Y34564D01*
X93996Y39566D01*
X95789Y44846D01*
X96877Y50315D01*
X97241Y55880D01*
X96877Y61445D01*
X95789Y66914D01*
X93996Y72194D01*
X91530Y77196D01*
X91440Y77330D01*
Y219792D01*
X91441Y219793D01*
X142241D01*
X142983Y219940D01*
X143611Y220360D01*
X144031Y220989D01*
X144114Y221406D01*
X145384Y221281D01*
Y69330D01*
X145384Y69330D01*
X145532Y68589D01*
X145951Y67960D01*
X145951Y67960D01*
X151031Y62880D01*
X151660Y62460D01*
X152401Y62313D01*
X152401Y62313D01*
X635001D01*
X635189Y62350D01*
X635381Y62351D01*
X635556Y62424D01*
X635743Y62460D01*
X635902Y62567D01*
X636079Y62641D01*
X636213Y62775D01*
X636371Y62880D01*
X636478Y63040D01*
X636613Y63176D01*
X641693Y70796D01*
X641766Y70971D01*
X641871Y71129D01*
X641908Y71317D01*
X641982Y71494D01*
X641981Y71684D01*
X642019Y71870D01*
Y437630D01*
X642019Y437630D01*
X641871Y438372D01*
X641451Y439000D01*
X641451Y439000D01*
X636371Y444080D01*
X635743Y444500D01*
X635001Y444647D01*
X635001Y444647D01*
X152401D01*
X152401Y444647D01*
X151660Y444500D01*
X151031Y444080D01*
X151031Y444080D01*
X145951Y439000D01*
X145532Y438372D01*
X145384Y437630D01*
X145384Y437630D01*
Y283139D01*
X144114Y283014D01*
X144031Y283432D01*
X143611Y284060D01*
X142983Y284480D01*
X142241Y284627D01*
X91441D01*
X91440Y284629D01*
Y430670D01*
X91530Y430804D01*
X93996Y435806D01*
X95789Y441086D01*
X96877Y446555D01*
X97241Y452120D01*
X96877Y457685D01*
X95789Y463154D01*
X93996Y468434D01*
X91530Y473436D01*
X91440Y473570D01*
Y495315D01*
X1134481Y496569D01*
X1135380Y495671D01*
D02*
G37*
%LPC*%
G36*
X1091940Y465830D02*
X1072140D01*
Y446030D01*
X1091940D01*
Y465830D01*
D02*
G37*
G36*
X1107440Y465915D02*
X1104856Y465575D01*
X1102447Y464578D01*
X1100379Y462991D01*
X1098792Y460923D01*
X1097795Y458514D01*
X1097455Y455930D01*
X1097795Y453346D01*
X1098792Y450937D01*
X1100379Y448869D01*
X1102447Y447282D01*
X1104856Y446285D01*
X1107440Y445945D01*
X1110024Y446285D01*
X1112433Y447282D01*
X1114501Y448869D01*
X1116088Y450937D01*
X1117085Y453346D01*
X1117425Y455930D01*
X1117085Y458514D01*
X1116088Y460923D01*
X1114501Y462991D01*
X1112433Y464578D01*
X1110024Y465575D01*
X1107440Y465915D01*
D02*
G37*
G36*
X746500Y462020D02*
X726700D01*
Y442220D01*
X746500D01*
Y462020D01*
D02*
G37*
G36*
X762000Y462105D02*
X759416Y461765D01*
X757007Y460768D01*
X754939Y459181D01*
X753352Y457113D01*
X752355Y454704D01*
X752015Y452120D01*
X752355Y449536D01*
X753352Y447127D01*
X754939Y445059D01*
X757007Y443472D01*
X759416Y442475D01*
X762000Y442135D01*
X764584Y442475D01*
X766993Y443472D01*
X769061Y445059D01*
X770648Y447127D01*
X771645Y449536D01*
X771985Y452120D01*
X771645Y454704D01*
X770648Y457113D01*
X769061Y459181D01*
X766993Y460768D01*
X764584Y461765D01*
X762000Y462105D01*
D02*
G37*
G36*
X1395095Y440562D02*
Y432435D01*
X1403222D01*
X1403004Y434089D01*
X1402121Y436223D01*
X1400715Y438055D01*
X1398883Y439461D01*
X1396749Y440344D01*
X1395095Y440562D01*
D02*
G37*
G36*
X1393825D02*
X1392171Y440344D01*
X1390037Y439461D01*
X1388205Y438055D01*
X1386799Y436223D01*
X1385916Y434089D01*
X1385698Y432435D01*
X1393825D01*
Y440562D01*
D02*
G37*
G36*
X1403222Y431165D02*
X1395095D01*
Y423038D01*
X1396749Y423256D01*
X1398883Y424139D01*
X1400715Y425545D01*
X1402121Y427377D01*
X1403004Y429511D01*
X1403222Y431165D01*
D02*
G37*
G36*
X1393825D02*
X1385698D01*
X1385916Y429511D01*
X1386799Y427377D01*
X1388205Y425545D01*
X1390037Y424139D01*
X1392171Y423256D01*
X1393825Y423038D01*
Y431165D01*
D02*
G37*
G36*
X1419860Y441281D02*
X1417406Y440958D01*
X1415119Y440011D01*
X1413156Y438504D01*
X1411649Y436541D01*
X1410702Y434254D01*
X1410379Y431800D01*
X1410702Y429346D01*
X1411649Y427059D01*
X1413156Y425096D01*
X1415119Y423589D01*
X1417406Y422642D01*
X1419860Y422319D01*
X1422314Y422642D01*
X1424601Y423589D01*
X1426564Y425096D01*
X1428071Y427059D01*
X1429018Y429346D01*
X1429341Y431800D01*
X1429018Y434254D01*
X1428071Y436541D01*
X1426564Y438504D01*
X1424601Y440011D01*
X1422314Y440958D01*
X1419860Y441281D01*
D02*
G37*
G36*
X1449010Y441311D02*
X1441510D01*
X1439306Y440872D01*
X1437437Y439623D01*
X1436188Y437755D01*
X1435749Y435550D01*
Y428050D01*
X1436188Y425845D01*
X1437437Y423977D01*
X1439306Y422728D01*
X1441510Y422289D01*
X1449010D01*
X1451214Y422728D01*
X1453083Y423977D01*
X1454332Y425845D01*
X1454771Y428050D01*
Y435550D01*
X1454332Y437755D01*
X1453083Y439623D01*
X1451214Y440872D01*
X1449010Y441311D01*
D02*
G37*
G36*
X1677035Y421998D02*
Y410845D01*
X1688188D01*
X1687867Y413283D01*
X1686681Y416146D01*
X1684794Y418605D01*
X1682336Y420491D01*
X1679473Y421677D01*
X1677035Y421998D01*
D02*
G37*
G36*
X1675765D02*
X1673327Y421677D01*
X1670464Y420491D01*
X1668006Y418605D01*
X1666119Y416146D01*
X1664933Y413283D01*
X1664612Y410845D01*
X1675765D01*
Y421998D01*
D02*
G37*
G36*
X1688188Y409575D02*
X1677035D01*
Y398422D01*
X1679473Y398743D01*
X1682336Y399929D01*
X1684794Y401815D01*
X1686681Y404274D01*
X1687867Y407137D01*
X1688188Y409575D01*
D02*
G37*
G36*
X1675765D02*
X1664612D01*
X1664933Y407137D01*
X1666119Y404274D01*
X1668006Y401815D01*
X1670464Y399929D01*
X1673327Y398743D01*
X1675765Y398422D01*
Y409575D01*
D02*
G37*
G36*
X939800Y395179D02*
X937290Y394679D01*
X935162Y393258D01*
X934380Y392087D01*
X828380D01*
X827598Y393258D01*
X825470Y394679D01*
X822960Y395179D01*
X820450Y394679D01*
X818322Y393258D01*
X816901Y391130D01*
X816401Y388620D01*
X816901Y386110D01*
X818322Y383982D01*
X820450Y382561D01*
X822960Y382061D01*
X825470Y382561D01*
X827598Y383982D01*
X828380Y385153D01*
X934380D01*
X935162Y383982D01*
X937290Y382561D01*
X939800Y382061D01*
X942310Y382561D01*
X944438Y383982D01*
X945859Y386110D01*
X946359Y388620D01*
X945859Y391130D01*
X944438Y393258D01*
X942310Y394679D01*
X939800Y395179D01*
D02*
G37*
G36*
X1031240Y374859D02*
X1028730Y374359D01*
X1026602Y372938D01*
X1025181Y370810D01*
X1025165Y370732D01*
X1017318Y362886D01*
X929680D01*
X929611Y362932D01*
X927100Y363431D01*
X924589Y362932D01*
X922461Y361509D01*
X921038Y359381D01*
X920539Y356870D01*
X921038Y354359D01*
X922461Y352231D01*
X924589Y350808D01*
X927100Y350309D01*
X929611Y350808D01*
X929680Y350854D01*
X1019810D01*
X1022112Y351312D01*
X1024064Y352616D01*
X1033672Y362225D01*
X1033750Y362241D01*
X1035878Y363662D01*
X1037299Y365790D01*
X1037799Y368300D01*
X1037299Y370810D01*
X1035878Y372938D01*
X1033750Y374359D01*
X1031240Y374859D01*
D02*
G37*
G36*
X1784985Y346434D02*
Y338055D01*
X1793364D01*
X1793138Y339775D01*
X1792229Y341969D01*
X1790783Y343853D01*
X1788899Y345299D01*
X1786705Y346208D01*
X1784985Y346434D01*
D02*
G37*
G36*
X1783715D02*
X1781995Y346208D01*
X1779801Y345299D01*
X1777917Y343853D01*
X1776471Y341969D01*
X1775562Y339775D01*
X1775336Y338055D01*
X1783715D01*
Y346434D01*
D02*
G37*
G36*
X1793364Y336785D02*
X1784985D01*
Y328406D01*
X1786705Y328632D01*
X1788899Y329541D01*
X1790783Y330987D01*
X1792229Y332871D01*
X1793138Y335065D01*
X1793364Y336785D01*
D02*
G37*
G36*
X1783715D02*
X1775336D01*
X1775562Y335065D01*
X1776471Y332871D01*
X1777917Y330987D01*
X1779801Y329541D01*
X1781995Y328632D01*
X1783715Y328406D01*
Y336785D01*
D02*
G37*
G36*
X692230Y330611D02*
X689776Y330288D01*
X687489Y329341D01*
X685526Y327834D01*
X684019Y325871D01*
X683072Y323584D01*
X682749Y321130D01*
X683072Y318676D01*
X684019Y316390D01*
X685526Y314426D01*
X687489Y312919D01*
X689776Y311972D01*
X692230Y311649D01*
X694684Y311972D01*
X696971Y312919D01*
X698934Y314426D01*
X700441Y316390D01*
X701388Y318676D01*
X701711Y321130D01*
X701388Y323584D01*
X700441Y325871D01*
X698934Y327834D01*
X696971Y329341D01*
X694684Y330288D01*
X692230Y330611D01*
D02*
G37*
G36*
X1794000Y322070D02*
X1774700D01*
Y302770D01*
X1794000D01*
Y322070D01*
D02*
G37*
G36*
X815340Y293781D02*
X812886Y293458D01*
X810599Y292511D01*
X808636Y291004D01*
X807129Y289041D01*
X806182Y286754D01*
X805859Y284300D01*
X806182Y281846D01*
X807129Y279559D01*
X808636Y277596D01*
X810599Y276089D01*
X812886Y275142D01*
X815340Y274819D01*
X817794Y275142D01*
X820081Y276089D01*
X822044Y277596D01*
X823551Y279559D01*
X824498Y281846D01*
X824821Y284300D01*
X824498Y286754D01*
X823551Y289041D01*
X822044Y291004D01*
X820081Y292511D01*
X817794Y293458D01*
X815340Y293781D01*
D02*
G37*
G36*
X815975Y262032D02*
Y253905D01*
X824102D01*
X823884Y255559D01*
X823001Y257693D01*
X821595Y259525D01*
X819763Y260931D01*
X817629Y261814D01*
X815975Y262032D01*
D02*
G37*
G36*
X814705D02*
X813051Y261814D01*
X810917Y260931D01*
X809085Y259525D01*
X807679Y257693D01*
X806796Y255559D01*
X806578Y253905D01*
X814705D01*
Y262032D01*
D02*
G37*
G36*
X692905D02*
Y253905D01*
X701032D01*
X700814Y255559D01*
X699931Y257693D01*
X698525Y259525D01*
X696693Y260931D01*
X694559Y261814D01*
X692905Y262032D01*
D02*
G37*
G36*
X691635D02*
X689981Y261814D01*
X687847Y260931D01*
X686015Y259525D01*
X684609Y257693D01*
X683726Y255559D01*
X683508Y253905D01*
X691635D01*
Y262032D01*
D02*
G37*
G36*
X892810Y335491D02*
X890299Y334992D01*
X888171Y333569D01*
X886748Y331441D01*
X886249Y328930D01*
X886748Y326419D01*
X888171Y324291D01*
X890299Y322868D01*
X892810Y322369D01*
X893065Y322420D01*
X894423Y321061D01*
Y259420D01*
X893252Y258638D01*
X891831Y256510D01*
X891331Y254000D01*
X891831Y251490D01*
X893252Y249362D01*
X895380Y247941D01*
X897890Y247441D01*
X900400Y247941D01*
X902528Y249362D01*
X903949Y251490D01*
X904449Y254000D01*
X903949Y256510D01*
X902528Y258638D01*
X901357Y259420D01*
Y322497D01*
X901093Y323824D01*
X900341Y324948D01*
X898871Y326418D01*
X898872Y326419D01*
X899371Y328930D01*
X898872Y331441D01*
X897449Y333569D01*
X895321Y334992D01*
X892810Y335491D01*
D02*
G37*
G36*
X824102Y252635D02*
X815975D01*
Y244508D01*
X817629Y244726D01*
X819763Y245609D01*
X821595Y247015D01*
X823001Y248847D01*
X823884Y250981D01*
X824102Y252635D01*
D02*
G37*
G36*
X814705D02*
X806578D01*
X806796Y250981D01*
X807679Y248847D01*
X809085Y247015D01*
X810917Y245609D01*
X813051Y244726D01*
X814705Y244508D01*
Y252635D01*
D02*
G37*
G36*
X701032D02*
X692905D01*
Y244508D01*
X694559Y244726D01*
X696693Y245609D01*
X698525Y247015D01*
X699931Y248847D01*
X700814Y250981D01*
X701032Y252635D01*
D02*
G37*
G36*
X691635D02*
X683508D01*
X683726Y250981D01*
X684609Y248847D01*
X686015Y247015D01*
X687847Y245609D01*
X689981Y244726D01*
X691635Y244508D01*
Y252635D01*
D02*
G37*
G36*
X673101Y272739D02*
X670591Y272240D01*
X668464Y270818D01*
X667042Y268690D01*
X666543Y266180D01*
X667042Y263670D01*
X667046Y263664D01*
X661960Y254764D01*
X660431Y254460D01*
X658304Y253038D01*
X656882Y250910D01*
X656383Y248400D01*
X656882Y245890D01*
X658304Y243763D01*
X660431Y242341D01*
X662941Y241842D01*
X665451Y242341D01*
X667579Y243763D01*
X669001Y245890D01*
X669500Y248400D01*
X669001Y250910D01*
X668997Y250916D01*
X674082Y259817D01*
X675611Y260121D01*
X677739Y261543D01*
X679161Y263670D01*
X679660Y266180D01*
X679161Y268690D01*
X677739Y270818D01*
X675611Y272240D01*
X673101Y272739D01*
D02*
G37*
G36*
X815340Y231721D02*
X812886Y231398D01*
X810599Y230451D01*
X808636Y228944D01*
X807129Y226980D01*
X806182Y224694D01*
X805859Y222240D01*
X806182Y219786D01*
X807129Y217499D01*
X808636Y215536D01*
X810599Y214029D01*
X812886Y213082D01*
X815340Y212759D01*
X817794Y213082D01*
X820081Y214029D01*
X822044Y215536D01*
X823551Y217499D01*
X824498Y219786D01*
X824821Y222240D01*
X824498Y224694D01*
X823551Y226980D01*
X822044Y228944D01*
X820081Y230451D01*
X817794Y231398D01*
X815340Y231721D01*
D02*
G37*
G36*
X822960Y327869D02*
X820450Y327369D01*
X818322Y325948D01*
X816901Y323820D01*
X816401Y321310D01*
X816901Y318800D01*
X818322Y316672D01*
X820450Y315251D01*
X822960Y314751D01*
X825470Y315251D01*
X827598Y316672D01*
X828380Y317843D01*
X836764D01*
X843623Y310984D01*
Y223860D01*
X842452Y223078D01*
X841031Y220950D01*
X840531Y218440D01*
X841031Y215930D01*
X842452Y213802D01*
X844580Y212381D01*
X847090Y211881D01*
X849600Y212381D01*
X851728Y213802D01*
X853149Y215930D01*
X853649Y218440D01*
X853149Y220950D01*
X851728Y223078D01*
X850557Y223860D01*
Y312420D01*
X850293Y313747D01*
X849541Y314871D01*
X840651Y323761D01*
X839527Y324513D01*
X838200Y324777D01*
X828380D01*
X827598Y325948D01*
X825470Y327369D01*
X822960Y327869D01*
D02*
G37*
G36*
X1801620Y210310D02*
X1782320D01*
Y191010D01*
X1801620D01*
Y210310D01*
D02*
G37*
G36*
X1134110Y258019D02*
X1131600Y257519D01*
X1129472Y256098D01*
X1128051Y253970D01*
X1127551Y251460D01*
X1128051Y248950D01*
X1129472Y246822D01*
X1130134Y246381D01*
Y193040D01*
X1130436Y191518D01*
X1131298Y190228D01*
X1140188Y181338D01*
X1141478Y180476D01*
X1143000Y180174D01*
X1168494D01*
X1170015Y180476D01*
X1171305Y181338D01*
X1171411Y181444D01*
X1191261D01*
X1191702Y180782D01*
X1193830Y179361D01*
X1196340Y178861D01*
X1198850Y179361D01*
X1200978Y180782D01*
X1202399Y182910D01*
X1202899Y185420D01*
X1202399Y187930D01*
X1200978Y190058D01*
X1198850Y191479D01*
X1196340Y191979D01*
X1193830Y191479D01*
X1191702Y190058D01*
X1191261Y189396D01*
X1169764D01*
X1168242Y189094D01*
X1166952Y188232D01*
X1166847Y188126D01*
X1144647D01*
X1138086Y194687D01*
Y246381D01*
X1138748Y246822D01*
X1140169Y248950D01*
X1140669Y251460D01*
X1140169Y253970D01*
X1138748Y256098D01*
X1136620Y257519D01*
X1134110Y258019D01*
D02*
G37*
G36*
X815340Y197441D02*
X812886Y197118D01*
X810599Y196171D01*
X808636Y194664D01*
X807129Y192701D01*
X806182Y190414D01*
X805859Y187960D01*
X806182Y185506D01*
X807129Y183219D01*
X808636Y181256D01*
X810599Y179749D01*
X812886Y178802D01*
X815340Y178479D01*
X817794Y178802D01*
X820081Y179749D01*
X822044Y181256D01*
X823551Y183219D01*
X824498Y185506D01*
X824821Y187960D01*
X824498Y190414D01*
X823551Y192701D01*
X822044Y194664D01*
X820081Y196171D01*
X817794Y197118D01*
X815340Y197441D01*
D02*
G37*
G36*
X692230Y194891D02*
X689776Y194568D01*
X687489Y193621D01*
X685526Y192114D01*
X684019Y190151D01*
X683072Y187864D01*
X682749Y185410D01*
X683072Y182956D01*
X684019Y180669D01*
X685526Y178706D01*
X687489Y177199D01*
X689776Y176252D01*
X692230Y175929D01*
X694684Y176252D01*
X696971Y177199D01*
X698934Y178706D01*
X700441Y180669D01*
X701388Y182956D01*
X701711Y185410D01*
X701388Y187864D01*
X700441Y190151D01*
X698934Y192114D01*
X696971Y193621D01*
X694684Y194568D01*
X692230Y194891D01*
D02*
G37*
G36*
X927100Y334221D02*
X924589Y333722D01*
X922461Y332299D01*
X921038Y330171D01*
X920539Y327660D01*
X921038Y325149D01*
X922461Y323021D01*
X924589Y321598D01*
X927100Y321099D01*
X928483Y321374D01*
X938619Y311239D01*
X939743Y310487D01*
X941070Y310223D01*
X1006944D01*
X1008446Y308721D01*
X1008171Y307340D01*
X1008671Y304830D01*
X1008840Y304577D01*
Y234315D01*
X1009336Y231818D01*
X1010494Y230085D01*
Y190241D01*
X1005577Y185324D01*
X1004600Y185129D01*
X1002472Y183708D01*
X1001051Y181580D01*
X1000551Y179070D01*
X1001051Y176560D01*
X1002472Y174432D01*
X1004600Y173011D01*
X1007110Y172511D01*
X1009620Y173011D01*
X1011748Y174432D01*
X1013169Y176560D01*
X1013364Y177537D01*
X1019893Y184067D01*
X1019893Y184067D01*
X1021087Y185853D01*
X1021506Y187960D01*
X1021506Y187960D01*
Y230341D01*
X1022059Y231170D01*
X1022559Y233680D01*
X1022059Y236190D01*
X1021890Y236443D01*
Y306705D01*
X1021394Y309202D01*
X1019979Y311319D01*
X1019669Y311526D01*
X1019368Y311978D01*
X1017240Y313399D01*
X1014730Y313899D01*
X1013349Y313624D01*
X1010831Y316141D01*
X1009707Y316893D01*
X1008380Y317157D01*
X942506D01*
X933386Y326277D01*
X933661Y327660D01*
X933162Y330171D01*
X931739Y332299D01*
X929611Y333722D01*
X927100Y334221D01*
D02*
G37*
G36*
X1654810Y172527D02*
X1651573Y172101D01*
X1648557Y170851D01*
X1645966Y168864D01*
X1643979Y166273D01*
X1642729Y163257D01*
X1642303Y160020D01*
X1642729Y156783D01*
X1643979Y153766D01*
X1645966Y151176D01*
X1648557Y149189D01*
X1651573Y147939D01*
X1654810Y147513D01*
X1658047Y147939D01*
X1661064Y149189D01*
X1663654Y151176D01*
X1665641Y153766D01*
X1666891Y156783D01*
X1667317Y160020D01*
X1666891Y163257D01*
X1665641Y166273D01*
X1663654Y168864D01*
X1661064Y170851D01*
X1658047Y172101D01*
X1654810Y172527D01*
D02*
G37*
G36*
X1711960Y171257D02*
X1708723Y170831D01*
X1705706Y169581D01*
X1703116Y167594D01*
X1701129Y165004D01*
X1699879Y161987D01*
X1699453Y158750D01*
X1699879Y155513D01*
X1701129Y152497D01*
X1703116Y149906D01*
X1705706Y147919D01*
X1708723Y146669D01*
X1711960Y146243D01*
X1715197Y146669D01*
X1718214Y147919D01*
X1720804Y149906D01*
X1722791Y152497D01*
X1724041Y155513D01*
X1724467Y158750D01*
X1724041Y161987D01*
X1722791Y165004D01*
X1720804Y167594D01*
X1718214Y169581D01*
X1715197Y170831D01*
X1711960Y171257D01*
D02*
G37*
G36*
X1791970Y185393D02*
X1789451Y185062D01*
X1787103Y184089D01*
X1785087Y182542D01*
X1783541Y180527D01*
X1782568Y178179D01*
X1782237Y175660D01*
X1782568Y173141D01*
X1783541Y170793D01*
X1785011Y168878D01*
Y147663D01*
X1775117Y137769D01*
X1561173D01*
X1553051Y145891D01*
X1551610Y146997D01*
X1549931Y147692D01*
X1548130Y147929D01*
X1428880D01*
X1427434Y149814D01*
X1424843Y151801D01*
X1421827Y153051D01*
X1418590Y153477D01*
X1415353Y153051D01*
X1412336Y151801D01*
X1409746Y149814D01*
X1407759Y147224D01*
X1406509Y144207D01*
X1406083Y140970D01*
X1406509Y137733D01*
X1407759Y134717D01*
X1409746Y132126D01*
X1412336Y130139D01*
X1415353Y128889D01*
X1418590Y128463D01*
X1421827Y128889D01*
X1424843Y130139D01*
X1427434Y132126D01*
X1428880Y134010D01*
X1545247D01*
X1553369Y125889D01*
X1554810Y124783D01*
X1556489Y124088D01*
X1558290Y123850D01*
X1778000D01*
X1779801Y124088D01*
X1781480Y124783D01*
X1782921Y125889D01*
X1796891Y139859D01*
X1797997Y141300D01*
X1798692Y142979D01*
X1798929Y144780D01*
Y168878D01*
X1800399Y170793D01*
X1801372Y173141D01*
X1801703Y175660D01*
X1801372Y178179D01*
X1800399Y180527D01*
X1798853Y182542D01*
X1796837Y184089D01*
X1794489Y185062D01*
X1791970Y185393D01*
D02*
G37*
G36*
X875030Y176739D02*
X872520Y176239D01*
X870392Y174818D01*
X868971Y172690D01*
X868471Y170180D01*
X868971Y167670D01*
X870392Y165542D01*
X871563Y164760D01*
Y140040D01*
X870392Y139258D01*
X868971Y137130D01*
X868471Y134620D01*
X868971Y132110D01*
X870392Y129982D01*
X872520Y128561D01*
X875030Y128061D01*
X877540Y128561D01*
X879668Y129982D01*
X881089Y132110D01*
X881589Y134620D01*
X881089Y137130D01*
X879668Y139258D01*
X878497Y140040D01*
Y164760D01*
X879668Y165542D01*
X881089Y167670D01*
X881589Y170180D01*
X881089Y172690D01*
X879668Y174818D01*
X877540Y176239D01*
X875030Y176739D01*
D02*
G37*
G36*
X1135170Y120910D02*
X1116870D01*
Y102610D01*
X1135170D01*
Y120910D01*
D02*
G37*
G36*
X1176020Y120989D02*
X1173631Y120674D01*
X1171405Y119753D01*
X1169494Y118286D01*
X1168027Y116375D01*
X1167105Y114149D01*
X1166791Y111760D01*
X1167105Y109371D01*
X1168027Y107146D01*
X1169494Y105234D01*
X1171405Y103767D01*
X1173631Y102845D01*
X1176020Y102531D01*
X1178409Y102845D01*
X1180635Y103767D01*
X1182546Y105234D01*
X1184013Y107146D01*
X1184934Y109371D01*
X1185249Y111760D01*
X1184934Y114149D01*
X1184013Y116375D01*
X1182546Y118286D01*
X1180635Y119753D01*
X1178409Y120674D01*
X1176020Y120989D01*
D02*
G37*
G36*
X1073150Y252939D02*
X1070640Y252439D01*
X1068512Y251018D01*
X1067091Y248890D01*
X1066591Y246380D01*
X1067091Y243870D01*
X1068512Y241742D01*
X1069048Y241384D01*
Y85855D01*
X1067242Y84648D01*
X1065821Y82520D01*
X1065321Y80010D01*
X1065821Y77500D01*
X1067242Y75372D01*
X1069370Y73951D01*
X1071880Y73451D01*
X1074390Y73951D01*
X1076518Y75372D01*
X1077939Y77500D01*
X1078439Y80010D01*
X1077939Y82520D01*
X1076518Y84648D01*
X1075982Y85006D01*
Y240536D01*
X1077788Y241742D01*
X1079209Y243870D01*
X1079709Y246380D01*
X1079209Y248890D01*
X1077788Y251018D01*
X1075660Y252439D01*
X1073150Y252939D01*
D02*
G37*
G36*
X1596390Y117049D02*
X1593880Y116549D01*
X1591752Y115128D01*
X1590331Y113000D01*
X1590315Y112922D01*
X1544368Y66976D01*
X1249715D01*
X1249650Y67019D01*
X1247140Y67519D01*
X1244630Y67019D01*
X1242502Y65598D01*
X1241081Y63470D01*
X1240581Y60960D01*
X1241081Y58450D01*
X1242502Y56322D01*
X1244630Y54901D01*
X1247140Y54401D01*
X1249650Y54901D01*
X1249715Y54944D01*
X1546860D01*
X1549162Y55402D01*
X1551114Y56706D01*
X1598822Y104415D01*
X1598900Y104431D01*
X1601028Y105852D01*
X1602449Y107980D01*
X1602949Y110490D01*
X1602449Y113000D01*
X1601028Y115128D01*
X1598900Y116549D01*
X1596390Y117049D01*
D02*
G37*
%LPD*%
D13*
X1130300Y319852D02*
X1134110Y316042D01*
X1130300Y319852D02*
Y383540D01*
X1134110Y314960D02*
Y316042D01*
Y193040D02*
X1143000Y184150D01*
X1134110Y193040D02*
Y251460D01*
X1168494Y184150D02*
X1169764Y185420D01*
X1143000Y184150D02*
X1168494D01*
X1169764Y185420D02*
X1196340D01*
D73*
X1107440Y455930D02*
D03*
X762000Y452120D02*
D03*
D74*
X1082040Y455930D02*
D03*
X736600Y452120D02*
D03*
D76*
X1176020Y111760D02*
D03*
D79*
X1126020D02*
D03*
D80*
X1791970Y175660D02*
D03*
X1784350Y337420D02*
D03*
D81*
X1791970Y200660D02*
D03*
X1784350Y312420D02*
D03*
D85*
X847090Y218440D02*
Y312420D01*
X875030Y134620D02*
Y170180D01*
X822960Y388620D02*
X939800D01*
X1270000Y303530D02*
X1347470Y381000D01*
X1083310Y303530D02*
X1270000D01*
X1052830Y273050D02*
X1083310Y303530D01*
X1052830Y257810D02*
Y273050D01*
X1231486Y295910D02*
X1344930D01*
X1229166Y298230D02*
X1231486Y295910D01*
X1084940Y298230D02*
X1229166D01*
X1069340Y282630D02*
X1084940Y298230D01*
X1069340Y267970D02*
Y282630D01*
X1217596Y281940D02*
X1343660D01*
X1215056Y284480D02*
X1217596Y281940D01*
X1089660Y284480D02*
X1215056D01*
X1277620Y274320D02*
X1282700Y269240D01*
X1346200D01*
X1084580Y267970D02*
X1090930Y274320D01*
X1277620D01*
X1072515Y80645D02*
Y245745D01*
X1073150Y246380D01*
X1071880Y80010D02*
X1072515Y80645D01*
X1014730Y307340D02*
X1015365Y306705D01*
Y234315D02*
X1016000Y233680D01*
X1008380Y313690D02*
X1014730Y307340D01*
X941070Y313690D02*
X1008380D01*
X927100Y327660D02*
X941070Y313690D01*
X897890Y254000D02*
Y322497D01*
X892810Y327577D02*
Y328930D01*
Y327577D02*
X897890Y322497D01*
X822960Y321310D02*
X838200D01*
X847090Y312420D01*
D87*
X652780Y241300D02*
Y247650D01*
D90*
X1015365Y234315D02*
Y306705D01*
D91*
X104141Y242050D02*
X114301Y262370D01*
X662941Y248400D02*
X673101Y266180D01*
X124461Y242050D02*
X134621Y262370D01*
D93*
X1548130Y140970D02*
X1558290Y130810D01*
X1418590Y140970D02*
X1548130D01*
X1558290Y130810D02*
X1778000D01*
X1791970Y144780D02*
Y175660D01*
X1778000Y130810D02*
X1791970Y144780D01*
D94*
X927100Y356870D02*
X1019810D01*
X1031240Y368300D01*
X1546860Y60960D02*
X1596390Y110490D01*
X1247140Y60960D02*
X1546860D01*
D95*
X1812290Y59690D02*
D03*
X1809750Y447040D02*
D03*
X54610Y452120D02*
D03*
Y55880D02*
D03*
D96*
X692230Y185410D02*
D03*
Y321130D02*
D03*
X815340Y222240D02*
D03*
Y187960D02*
D03*
Y284300D02*
D03*
X692270Y253270D02*
D03*
X815340D02*
D03*
X1394460Y431800D02*
D03*
X1419860D02*
D03*
D97*
X1676400Y410210D02*
D03*
X1711960Y158750D02*
D03*
X1654810Y160020D02*
D03*
X1418590Y140970D02*
D03*
D98*
X1445260Y431800D02*
D03*
D99*
X1220470Y35560D02*
D03*
X1485900Y427990D02*
D03*
X1365250Y176530D02*
D03*
X1817370Y255270D02*
D03*
X1148080Y52070D02*
D03*
X1475740Y34290D02*
D03*
X1455420Y181610D02*
D03*
X1617980Y416560D02*
D03*
X1736090Y396240D02*
D03*
X1242060Y140970D02*
D03*
X1720850Y83820D02*
D03*
X1460500Y363220D02*
D03*
X1270000Y364490D02*
D03*
X1289050D02*
D03*
X1303020D02*
D03*
X1189990D02*
D03*
X1120140Y416560D02*
D03*
X652780Y241300D02*
D03*
X718820Y252730D02*
D03*
X706120D02*
D03*
X1130300Y445770D02*
D03*
X843280Y172720D02*
D03*
X1363980Y391160D02*
D03*
X1130300Y476250D02*
D03*
X1120140Y405130D02*
D03*
Y429260D02*
D03*
X1054100Y231140D02*
D03*
X1055181Y28920D02*
D03*
X1054714Y92232D02*
D03*
X1055673Y170580D02*
D03*
X1055169Y211470D02*
D03*
X1053195Y300226D02*
D03*
X1049065Y386045D02*
D03*
X1049983Y440657D02*
D03*
X1048606Y464062D02*
D03*
X1049020Y478790D02*
D03*
X1362710Y458470D02*
D03*
Y443230D02*
D03*
Y427990D02*
D03*
Y414020D02*
D03*
Y401320D02*
D03*
X1250950Y364490D02*
D03*
X1234440D02*
D03*
X1219200D02*
D03*
X1203960D02*
D03*
X1174750D02*
D03*
X1130300Y461010D02*
D03*
X1050290Y357865D02*
D03*
X1033780Y297180D02*
D03*
X1051560Y316230D02*
D03*
X1052830Y284480D02*
D03*
X1054100Y153670D02*
D03*
X1000760Y142240D02*
D03*
X1049020Y410210D02*
D03*
X725170Y118110D02*
D03*
X1000760Y297180D02*
D03*
X732790Y252730D02*
D03*
X750570Y251460D02*
D03*
X778510Y179070D02*
D03*
X706120Y68580D02*
D03*
X1014730Y384810D02*
D03*
X1038860Y95250D02*
D03*
X1003300Y190500D02*
D03*
X1022350Y120650D02*
D03*
X971550Y95250D02*
D03*
X989330Y466090D02*
D03*
X1024890Y426720D02*
D03*
X1054100Y116840D02*
D03*
X1005840Y213360D02*
D03*
X732790Y181610D02*
D03*
X1054100Y189230D02*
D03*
X715010Y168910D02*
D03*
X1029970Y176530D02*
D03*
X762000Y165100D02*
D03*
X750570Y179070D02*
D03*
X767080Y251460D02*
D03*
X723900Y142240D02*
D03*
X990600Y327660D02*
D03*
X787400Y104140D02*
D03*
X706120Y111760D02*
D03*
X858520Y331390D02*
D03*
X957580Y419100D02*
D03*
X878840Y403860D02*
D03*
X769620Y327620D02*
D03*
X985520Y421640D02*
D03*
X802640Y337820D02*
D03*
X855980Y403860D02*
D03*
X817880Y342900D02*
D03*
X851020Y358060D02*
D03*
X825500Y403860D02*
D03*
X711200Y373380D02*
D03*
X703580Y419100D02*
D03*
X906780Y429260D02*
D03*
X732790Y325120D02*
D03*
X715010Y326350D02*
D03*
X753110Y356870D02*
D03*
X715010Y341630D02*
D03*
X749300Y322580D02*
D03*
X727710Y356870D02*
D03*
X759460Y379730D02*
D03*
X788670Y473710D02*
D03*
X703580Y474980D02*
D03*
X892810Y328930D02*
D03*
X928370Y201930D02*
D03*
X927100Y356870D02*
D03*
Y327660D02*
D03*
X902970Y231140D02*
D03*
D100*
X957900Y246200D02*
D03*
X969010Y246380D02*
D03*
X946150D02*
D03*
X957580Y234950D02*
D03*
Y257810D02*
D03*
X1071880Y80010D02*
D03*
X847090Y218440D02*
D03*
X875030Y170180D02*
D03*
X939800Y388620D02*
D03*
X822960D02*
D03*
X673101Y266180D02*
D03*
X662941Y248400D02*
D03*
X134621Y262370D02*
D03*
X114301D02*
D03*
X124461Y242050D02*
D03*
X104141D02*
D03*
X1347470Y381000D02*
D03*
X1052830Y257810D02*
D03*
X1344930Y295910D02*
D03*
X1069340Y267970D02*
D03*
X1343660Y281940D02*
D03*
X1089660Y284480D02*
D03*
X1346200Y269240D02*
D03*
X1084580Y267970D02*
D03*
X1130300Y383540D02*
D03*
X1134110Y314960D02*
D03*
Y251460D02*
D03*
X1196340Y185420D02*
D03*
X1073150Y246380D02*
D03*
X881380Y426720D02*
D03*
X828040Y468630D02*
D03*
X861060Y455930D02*
D03*
X1031240Y368300D02*
D03*
X1247140Y60960D02*
D03*
X1596390Y110490D02*
D03*
X1007110Y179070D02*
D03*
X1014730Y307340D02*
D03*
X1016000Y233680D02*
D03*
X822960Y321310D02*
D03*
X875030Y134620D02*
D03*
X897890Y254000D02*
D03*
D101*
X941400Y262700D02*
D03*
X952400D02*
D03*
X963400D02*
D03*
X974400D02*
D03*
X941400Y251700D02*
D03*
X952400D02*
D03*
X963400D02*
D03*
X974400D02*
D03*
X941400Y240700D02*
D03*
X952400D02*
D03*
X963400D02*
D03*
X974400D02*
D03*
X941400Y229700D02*
D03*
X952400D02*
D03*
X963400D02*
D03*
X974400D02*
D03*
D102*
X1007110Y179070D02*
X1016000Y187960D01*
Y233680D01*
M02*
