G04*
G04 #@! TF.GenerationSoftware,Altium Limited,Altium Designer,23.3.1 (30)*
G04*
G04 Layer_Color=128*
%FSLAX44Y44*%
%MOMM*%
G71*
G04*
G04 #@! TF.SameCoordinates,D953DCF9-3291-42EB-AE53-6C5A23FC187B*
G04*
G04*
G04 #@! TF.FilePolarity,Positive*
G04*
G01*
G75*
%ADD110C,0.1270*%
D110*
X1797290Y59690D02*
X1827290D01*
X1812290Y44690D02*
Y74690D01*
X1794750Y447040D02*
X1824750D01*
X1809750Y432040D02*
Y462040D01*
X39610Y452120D02*
X69610D01*
X54610Y437120D02*
Y467120D01*
X39610Y55880D02*
X69610D01*
X54610Y40880D02*
Y70880D01*
X1102190Y455930D02*
X1112690D01*
X1107440Y450680D02*
Y461180D01*
X1076790Y455930D02*
X1087290D01*
X1082040Y450680D02*
Y461180D01*
X756750Y452120D02*
X767250D01*
X762000Y446870D02*
Y457370D01*
X731350Y452120D02*
X741850D01*
X736600Y446870D02*
Y457370D01*
X687230Y185410D02*
X697230D01*
X692230Y180410D02*
Y190410D01*
X687230Y321130D02*
X697230D01*
X692230Y316130D02*
Y326130D01*
X1171270Y111760D02*
X1180770D01*
X1176020Y107010D02*
Y116510D01*
X810340Y222240D02*
X820340D01*
X815340Y217240D02*
Y227240D01*
X810340Y187960D02*
X820340D01*
X815340Y182960D02*
Y192960D01*
X810340Y284300D02*
X820340D01*
X815340Y279300D02*
Y289300D01*
X1668400Y410210D02*
X1684400D01*
X1676400Y402210D02*
Y418210D01*
X1703960Y158750D02*
X1719960D01*
X1711960Y150750D02*
Y166750D01*
X1646810Y160020D02*
X1662810D01*
X1654810Y152020D02*
Y168020D01*
X1410590Y140970D02*
X1426590D01*
X1418590Y132970D02*
Y148970D01*
X687270Y253270D02*
X697270D01*
X692270Y248270D02*
Y258270D01*
X810340Y253270D02*
X820340D01*
X815340Y248270D02*
Y258270D01*
X1389460Y431800D02*
X1399460D01*
X1394460Y426800D02*
Y436800D01*
X1414860Y431800D02*
X1424860D01*
X1419860Y426800D02*
Y436800D01*
X1440260Y431800D02*
X1450260D01*
X1445260Y426800D02*
Y436800D01*
X1121270Y111760D02*
X1130770D01*
X1126020Y107010D02*
Y116510D01*
X1786970Y175660D02*
X1796970D01*
X1791970Y170660D02*
Y180660D01*
X1786970Y200660D02*
X1796970D01*
X1791970Y195660D02*
Y205660D01*
X1779350Y312420D02*
X1789350D01*
X1784350Y307420D02*
Y317420D01*
X1779350Y337420D02*
X1789350D01*
X1784350Y332420D02*
Y342420D01*
X1217970Y35560D02*
X1222970D01*
X1220470Y33060D02*
Y38060D01*
X1483400Y427990D02*
X1488400D01*
X1485900Y425490D02*
Y430490D01*
X1362750Y176530D02*
X1367750D01*
X1365250Y174030D02*
Y179030D01*
X1814870Y255270D02*
X1819870D01*
X1817370Y252770D02*
Y257770D01*
X1145580Y52070D02*
X1150580D01*
X1148080Y49570D02*
Y54570D01*
X1473240Y34290D02*
X1478240D01*
X1475740Y31790D02*
Y36790D01*
X1452920Y181610D02*
X1457920D01*
X1455420Y179110D02*
Y184110D01*
X1615480Y416560D02*
X1620480D01*
X1617980Y414060D02*
Y419060D01*
X1733590Y396240D02*
X1738590D01*
X1736090Y393740D02*
Y398740D01*
X1239560Y140970D02*
X1244560D01*
X1242060Y138470D02*
Y143470D01*
X1718350Y83820D02*
X1723350D01*
X1720850Y81320D02*
Y86320D01*
X1458000Y363220D02*
X1463000D01*
X1460500Y360720D02*
Y365720D01*
X1267500Y364490D02*
X1272500D01*
X1270000Y361990D02*
Y366990D01*
X1286550Y364490D02*
X1291550D01*
X1289050Y361990D02*
Y366990D01*
X1300520Y364490D02*
X1305520D01*
X1303020Y361990D02*
Y366990D01*
X1187490Y364490D02*
X1192490D01*
X1189990Y361990D02*
Y366990D01*
X1117640Y416560D02*
X1122640D01*
X1120140Y414060D02*
Y419060D01*
X650280Y241300D02*
X655280D01*
X652780Y238800D02*
Y243800D01*
X955399Y246200D02*
X960401D01*
X957900Y243699D02*
Y248701D01*
X966509Y246380D02*
X971511D01*
X969010Y243879D02*
Y248881D01*
X943649Y246380D02*
X948651D01*
X946150Y243879D02*
Y248881D01*
X955079Y234950D02*
X960081D01*
X957580Y232449D02*
Y237451D01*
X955079Y257810D02*
X960081D01*
X957580Y255309D02*
Y260311D01*
X1069379Y80010D02*
X1074381D01*
X1071880Y77509D02*
Y82511D01*
X940400Y262700D02*
X942400D01*
X941400Y261700D02*
Y263700D01*
X951400Y262700D02*
X953400D01*
X952400Y261700D02*
Y263700D01*
X962400Y262700D02*
X964400D01*
X963400Y261700D02*
Y263700D01*
X973400Y262700D02*
X975400D01*
X974400Y261700D02*
Y263700D01*
X940400Y251700D02*
X942400D01*
X941400Y250700D02*
Y252700D01*
X951400Y251700D02*
X953400D01*
X952400Y250700D02*
Y252700D01*
X962400Y251700D02*
X964400D01*
X963400Y250700D02*
Y252700D01*
X973400Y251700D02*
X975400D01*
X974400Y250700D02*
Y252700D01*
X940400Y240700D02*
X942400D01*
X941400Y239700D02*
Y241700D01*
X951400Y240700D02*
X953400D01*
X952400Y239700D02*
Y241700D01*
X962400Y240700D02*
X964400D01*
X963400Y239700D02*
Y241700D01*
X973400Y240700D02*
X975400D01*
X974400Y239700D02*
Y241700D01*
X940400Y229700D02*
X942400D01*
X941400Y228700D02*
Y230700D01*
X951400Y229700D02*
X953400D01*
X952400Y228700D02*
Y230700D01*
X962400Y229700D02*
X964400D01*
X963400Y228700D02*
Y230700D01*
X973400Y229700D02*
X975400D01*
X974400Y228700D02*
Y230700D01*
X716320Y252730D02*
X721320D01*
X718820Y250230D02*
Y255230D01*
X703620Y252730D02*
X708620D01*
X706120Y250230D02*
Y255230D01*
X1127800Y445770D02*
X1132800D01*
X1130300Y443270D02*
Y448270D01*
X840780Y172720D02*
X845780D01*
X843280Y170220D02*
Y175220D01*
X1361480Y391160D02*
X1366480D01*
X1363980Y388660D02*
Y393660D01*
X1127800Y476250D02*
X1132800D01*
X1130300Y473750D02*
Y478750D01*
X1117640Y405130D02*
X1122640D01*
X1120140Y402630D02*
Y407630D01*
X1117640Y429260D02*
X1122640D01*
X1120140Y426760D02*
Y431760D01*
X844589Y218440D02*
X849591D01*
X847090Y215939D02*
Y220941D01*
X872529Y170180D02*
X877531D01*
X875030Y167679D02*
Y172681D01*
X937299Y388620D02*
X942301D01*
X939800Y386119D02*
Y391121D01*
X820459Y388620D02*
X825461D01*
X822960Y386119D02*
Y391121D01*
X670601Y266180D02*
X675602D01*
X673101Y263680D02*
Y268681D01*
X660441Y248400D02*
X665442D01*
X662941Y245900D02*
Y250901D01*
X132121Y262370D02*
X137122D01*
X134621Y259870D02*
Y264871D01*
X111801Y262370D02*
X116802D01*
X114301Y259870D02*
Y264871D01*
X121961Y242050D02*
X126962D01*
X124461Y239550D02*
Y244551D01*
X101641Y242050D02*
X106642D01*
X104141Y239550D02*
Y244551D01*
X1344969Y381000D02*
X1349971D01*
X1347470Y378499D02*
Y383501D01*
X1050329Y257810D02*
X1055331D01*
X1052830Y255309D02*
Y260311D01*
X1342429Y295910D02*
X1347431D01*
X1344930Y293409D02*
Y298411D01*
X1066839Y267970D02*
X1071841D01*
X1069340Y265469D02*
Y270471D01*
X1341159Y281940D02*
X1346161D01*
X1343660Y279439D02*
Y284441D01*
X1087159Y284480D02*
X1092161D01*
X1089660Y281979D02*
Y286981D01*
X1343699Y269240D02*
X1348701D01*
X1346200Y266739D02*
Y271741D01*
X1082079Y267970D02*
X1087081D01*
X1084580Y265469D02*
Y270471D01*
X1127799Y383540D02*
X1132801D01*
X1130300Y381039D02*
Y386041D01*
X1131609Y314960D02*
X1136611D01*
X1134110Y312459D02*
Y317461D01*
X1131609Y251460D02*
X1136611D01*
X1134110Y248959D02*
Y253961D01*
X1193839Y185420D02*
X1198841D01*
X1196340Y182919D02*
Y187921D01*
X1070649Y246380D02*
X1075651D01*
X1073150Y243879D02*
Y248881D01*
X1051600Y231140D02*
X1056600D01*
X1054100Y228640D02*
Y233640D01*
X1052681Y28920D02*
X1057681D01*
X1055181Y26420D02*
Y31420D01*
X1052214Y92232D02*
X1057214D01*
X1054714Y89732D02*
Y94732D01*
X1053173Y170580D02*
X1058173D01*
X1055673Y168080D02*
Y173080D01*
X1052669Y211470D02*
X1057669D01*
X1055169Y208970D02*
Y213970D01*
X1050695Y300226D02*
X1055695D01*
X1053195Y297726D02*
Y302726D01*
X1046565Y386045D02*
X1051565D01*
X1049065Y383545D02*
Y388545D01*
X1047483Y440657D02*
X1052483D01*
X1049983Y438157D02*
Y443157D01*
X1046106Y464062D02*
X1051106D01*
X1048606Y461562D02*
Y466562D01*
X1046520Y478790D02*
X1051520D01*
X1049020Y476290D02*
Y481290D01*
X1360210Y458470D02*
X1365210D01*
X1362710Y455970D02*
Y460970D01*
X1360210Y443230D02*
X1365210D01*
X1362710Y440730D02*
Y445730D01*
X1360210Y427990D02*
X1365210D01*
X1362710Y425490D02*
Y430490D01*
X1360210Y414020D02*
X1365210D01*
X1362710Y411520D02*
Y416520D01*
X1360210Y401320D02*
X1365210D01*
X1362710Y398820D02*
Y403820D01*
X1248450Y364490D02*
X1253450D01*
X1250950Y361990D02*
Y366990D01*
X1231940Y364490D02*
X1236940D01*
X1234440Y361990D02*
Y366990D01*
X1216700Y364490D02*
X1221700D01*
X1219200Y361990D02*
Y366990D01*
X1201460Y364490D02*
X1206460D01*
X1203960Y361990D02*
Y366990D01*
X1172250Y364490D02*
X1177250D01*
X1174750Y361990D02*
Y366990D01*
X1127800Y461010D02*
X1132800D01*
X1130300Y458510D02*
Y463510D01*
X878879Y426720D02*
X883881D01*
X881380Y424219D02*
Y429221D01*
X825539Y468630D02*
X830541D01*
X828040Y466129D02*
Y471131D01*
X858559Y455930D02*
X863561D01*
X861060Y453429D02*
Y458431D01*
X1047790Y357865D02*
X1052790D01*
X1050290Y355365D02*
Y360365D01*
X1028739Y368300D02*
X1033741D01*
X1031240Y365799D02*
Y370801D01*
X1244639Y60960D02*
X1249641D01*
X1247140Y58459D02*
Y63461D01*
X1593889Y110490D02*
X1598891D01*
X1596390Y107989D02*
Y112991D01*
X1031280Y297180D02*
X1036280D01*
X1033780Y294680D02*
Y299680D01*
X1049060Y316230D02*
X1054060D01*
X1051560Y313730D02*
Y318730D01*
X1050330Y284480D02*
X1055330D01*
X1052830Y281980D02*
Y286980D01*
X1004609Y179070D02*
X1009611D01*
X1007110Y176569D02*
Y181571D01*
X1051600Y153670D02*
X1056600D01*
X1054100Y151170D02*
Y156170D01*
X998260Y142240D02*
X1003260D01*
X1000760Y139740D02*
Y144740D01*
X1046520Y410210D02*
X1051520D01*
X1049020Y407710D02*
Y412710D01*
X722670Y118110D02*
X727670D01*
X725170Y115610D02*
Y120610D01*
X998260Y297180D02*
X1003260D01*
X1000760Y294680D02*
Y299680D01*
X730290Y252730D02*
X735290D01*
X732790Y250230D02*
Y255230D01*
X748070Y251460D02*
X753070D01*
X750570Y248960D02*
Y253960D01*
X776010Y179070D02*
X781010D01*
X778510Y176570D02*
Y181570D01*
X703620Y68580D02*
X708620D01*
X706120Y66080D02*
Y71080D01*
X1012230Y384810D02*
X1017230D01*
X1014730Y382310D02*
Y387310D01*
X1036360Y95250D02*
X1041360D01*
X1038860Y92750D02*
Y97750D01*
X1000800Y190500D02*
X1005800D01*
X1003300Y188000D02*
Y193000D01*
X1019850Y120650D02*
X1024850D01*
X1022350Y118150D02*
Y123150D01*
X969050Y95250D02*
X974050D01*
X971550Y92750D02*
Y97750D01*
X986830Y466090D02*
X991830D01*
X989330Y463590D02*
Y468590D01*
X1022390Y426720D02*
X1027390D01*
X1024890Y424220D02*
Y429220D01*
X1051600Y116840D02*
X1056600D01*
X1054100Y114340D02*
Y119340D01*
X1003340Y213360D02*
X1008340D01*
X1005840Y210860D02*
Y215860D01*
X730290Y181610D02*
X735290D01*
X732790Y179110D02*
Y184110D01*
X1051600Y189230D02*
X1056600D01*
X1054100Y186730D02*
Y191730D01*
X712510Y168910D02*
X717510D01*
X715010Y166410D02*
Y171410D01*
X1027470Y176530D02*
X1032470D01*
X1029970Y174030D02*
Y179030D01*
X759500Y165100D02*
X764500D01*
X762000Y162600D02*
Y167600D01*
X748070Y179070D02*
X753070D01*
X750570Y176570D02*
Y181570D01*
X764580Y251460D02*
X769580D01*
X767080Y248960D02*
Y253960D01*
X721400Y142240D02*
X726400D01*
X723900Y139740D02*
Y144740D01*
X988100Y327660D02*
X993100D01*
X990600Y325160D02*
Y330160D01*
X784900Y104140D02*
X789900D01*
X787400Y101640D02*
Y106640D01*
X703620Y111760D02*
X708620D01*
X706120Y109260D02*
Y114260D01*
X856020Y331390D02*
X861020D01*
X858520Y328890D02*
Y333890D01*
X955080Y419100D02*
X960080D01*
X957580Y416600D02*
Y421600D01*
X876340Y403860D02*
X881340D01*
X878840Y401360D02*
Y406360D01*
X767120Y327620D02*
X772120D01*
X769620Y325120D02*
Y330120D01*
X983020Y421640D02*
X988020D01*
X985520Y419140D02*
Y424140D01*
X800140Y337820D02*
X805140D01*
X802640Y335320D02*
Y340320D01*
X853480Y403860D02*
X858480D01*
X855980Y401360D02*
Y406360D01*
X815380Y342900D02*
X820380D01*
X817880Y340400D02*
Y345400D01*
X848520Y358060D02*
X853520D01*
X851020Y355560D02*
Y360560D01*
X823000Y403860D02*
X828000D01*
X825500Y401360D02*
Y406360D01*
X708700Y373380D02*
X713700D01*
X711200Y370880D02*
Y375880D01*
X701080Y419100D02*
X706080D01*
X703580Y416600D02*
Y421600D01*
X904280Y429260D02*
X909280D01*
X906780Y426760D02*
Y431760D01*
X730290Y325120D02*
X735290D01*
X732790Y322620D02*
Y327620D01*
X712510Y326350D02*
X717510D01*
X715010Y323850D02*
Y328850D01*
X750610Y356870D02*
X755610D01*
X753110Y354370D02*
Y359370D01*
X712510Y341630D02*
X717510D01*
X715010Y339130D02*
Y344130D01*
X746800Y322580D02*
X751800D01*
X749300Y320080D02*
Y325080D01*
X725210Y356870D02*
X730210D01*
X727710Y354370D02*
Y359370D01*
X756960Y379730D02*
X761960D01*
X759460Y377230D02*
Y382230D01*
X786170Y473710D02*
X791170D01*
X788670Y471210D02*
Y476210D01*
X701080Y474980D02*
X706080D01*
X703580Y472480D02*
Y477480D01*
X1012229Y307340D02*
X1017231D01*
X1014730Y304839D02*
Y309841D01*
X1013499Y233680D02*
X1018501D01*
X1016000Y231179D02*
Y236181D01*
X890310Y328930D02*
X895310D01*
X892810Y326430D02*
Y331430D01*
X925870Y201930D02*
X930870D01*
X928370Y199430D02*
Y204430D01*
X820459Y321310D02*
X825461D01*
X822960Y318809D02*
Y323811D01*
X872529Y134620D02*
X877531D01*
X875030Y132119D02*
Y137121D01*
X924600Y356870D02*
X929600D01*
X927100Y354370D02*
Y359370D01*
X924600Y327660D02*
X929600D01*
X927100Y325160D02*
Y330160D01*
X895389Y254000D02*
X900391D01*
X897890Y251499D02*
Y256501D01*
X900470Y231140D02*
X905470D01*
X902970Y228640D02*
Y233640D01*
M02*
