G04*
G04 #@! TF.GenerationSoftware,Altium Limited,Altium Designer,23.3.1 (30)*
G04*
G04 Layer_Color=32768*
%FSLAX44Y44*%
%MOMM*%
G71*
G04*
G04 #@! TF.SameCoordinates,D953DCF9-3291-42EB-AE53-6C5A23FC187B*
G04*
G04*
G04 #@! TF.FilePolarity,Positive*
G04*
G01*
G75*
%ADD105C,0.0500*%
%ADD107C,0.1000*%
D105*
X1698900Y410210D02*
G03*
X1698900Y410210I-22500J0D01*
G01*
X1734460Y158750D02*
G03*
X1734460Y158750I-22500J0D01*
G01*
X1677310Y160020D02*
G03*
X1677310Y160020I-22500J0D01*
G01*
X1441090Y140970D02*
G03*
X1441090Y140970I-22500J0D01*
G01*
X829040Y187960D02*
G03*
X829040Y187960I-13700J0D01*
G01*
X705970Y253270D02*
G03*
X705970Y253270I-13700J0D01*
G01*
X705930Y321130D02*
G03*
X705930Y321130I-13700J0D01*
G01*
X829040Y222240D02*
G03*
X829040Y222240I-13700J0D01*
G01*
Y253270D02*
G03*
X829040Y253270I-13700J0D01*
G01*
Y284300D02*
G03*
X829040Y284300I-13700J0D01*
G01*
X705930Y185410D02*
G03*
X705930Y185410I-13700J0D01*
G01*
X945450Y75650D02*
X1061250D01*
Y38650D02*
Y75650D01*
X945450Y38650D02*
Y75650D01*
Y38650D02*
X1061250D01*
X923900Y212200D02*
Y280200D01*
X991900Y212200D02*
Y280200D01*
X923900D02*
X991900D01*
X923900Y212200D02*
X991900D01*
X728300Y400250D02*
Y425250D01*
X770300Y400250D02*
Y425250D01*
X728300D02*
X770300D01*
X728300Y400250D02*
X770300D01*
X1601340Y291690D02*
Y462690D01*
X1489840Y291690D02*
Y462690D01*
X1601340D01*
X1489840Y291690D02*
X1601340D01*
X1317560Y43730D02*
X1433360D01*
X1317560D02*
Y80730D01*
X1433360Y43730D02*
Y80730D01*
X1317560D02*
X1433360D01*
X1111640Y216370D02*
Y243370D01*
X1128640Y216370D02*
Y243370D01*
X1111640Y216370D02*
X1128640D01*
X1111640Y243370D02*
X1128640D01*
X1072080Y307930D02*
Y349930D01*
X1097080Y307930D02*
Y349930D01*
X1072080Y307930D02*
X1097080D01*
X1072080Y349930D02*
X1097080D01*
X1073740Y404060D02*
X1115740D01*
X1073740Y429060D02*
X1115740D01*
Y404060D02*
Y429060D01*
X1073740Y404060D02*
Y429060D01*
X1643310Y45080D02*
Y92080D01*
X1666310D01*
Y45080D02*
Y92080D01*
X1643310Y45080D02*
X1666310D01*
X803500Y360500D02*
Y379500D01*
X836500Y360500D02*
Y379500D01*
X803500D02*
X836500D01*
X803500Y360500D02*
X836500D01*
X657280Y219545D02*
Y237545D01*
X648280Y219545D02*
Y237545D01*
X657280D01*
X648280Y219545D02*
X657280D01*
X656780Y289235D02*
Y304235D01*
X648780Y289235D02*
Y304235D01*
X656780D01*
X648780Y289235D02*
X656780D01*
X700960Y202670D02*
Y236670D01*
X680960Y202670D02*
Y236670D01*
X700960D01*
X680960Y202670D02*
X700960D01*
X702190Y270060D02*
Y304060D01*
X682190Y270060D02*
Y304060D01*
X702190D01*
X682190Y270060D02*
X702190D01*
X831320Y124740D02*
X865320D01*
X831320Y144740D02*
X865320D01*
Y124740D02*
Y144740D01*
X831320Y124740D02*
Y144740D01*
X1113410Y212410D02*
Y252410D01*
X1065910Y212410D02*
Y252410D01*
Y212410D02*
X1113410D01*
X1065910Y252410D02*
X1113410D01*
X1604400Y88280D02*
X1621400D01*
Y47280D02*
Y88280D01*
X1604400Y47280D02*
X1621400D01*
X1604400D02*
Y88280D01*
X1100790Y356460D02*
Y400460D01*
X1126790Y356460D02*
Y400460D01*
X1100790Y356460D02*
X1126790D01*
X1100790Y400460D02*
X1126790D01*
X861840Y201320D02*
X895840D01*
X861840Y220320D02*
X895840D01*
Y201320D02*
Y220320D01*
X861840Y201320D02*
Y220320D01*
X852820Y313200D02*
Y347200D01*
X833820Y313200D02*
Y347200D01*
X852820D01*
X833820Y313200D02*
X852820D01*
X897270Y289070D02*
Y323070D01*
X878270Y289070D02*
Y323070D01*
X897270D01*
X878270Y289070D02*
X897270D01*
X958240Y366540D02*
Y400540D01*
X977240Y366540D02*
Y400540D01*
X958240Y366540D02*
X977240D01*
X958240Y400540D02*
X977240D01*
X935210Y287680D02*
Y306680D01*
X901210Y287680D02*
Y306680D01*
Y287680D02*
X935210D01*
X901210Y306680D02*
X935210D01*
X875680Y290340D02*
Y324340D01*
X856680Y290340D02*
Y324340D01*
X875680D01*
X856680Y290340D02*
X875680D01*
X902920Y345370D02*
X921920D01*
X902920Y311370D02*
X921920D01*
Y345370D01*
X902920Y311370D02*
Y345370D01*
X1040740Y209060D02*
Y243060D01*
X1021740Y209060D02*
Y243060D01*
X1040740D01*
X1021740Y209060D02*
X1040740D01*
X808500Y121420D02*
X842500D01*
X808500Y102420D02*
X842500D01*
X808500D02*
Y121420D01*
X842500Y102420D02*
Y121420D01*
X831320Y150560D02*
X865320D01*
X831320Y169560D02*
X865320D01*
Y150560D02*
Y169560D01*
X831320Y150560D02*
Y169560D01*
X991370Y137900D02*
Y171900D01*
X972370Y137900D02*
Y171900D01*
X991370D01*
X972370Y137900D02*
X991370D01*
X908870Y137900D02*
Y171900D01*
X927870Y137900D02*
Y171900D01*
X908870Y137900D02*
X927870D01*
X908870Y171900D02*
X927870D01*
X861840Y181000D02*
X895840D01*
X861840Y200000D02*
X895840D01*
Y181000D02*
Y200000D01*
X861840Y181000D02*
Y200000D01*
X722010Y209100D02*
Y243100D01*
X703010Y209100D02*
Y243100D01*
X722010D01*
X703010Y209100D02*
X722010D01*
Y261090D02*
Y295090D01*
X703010Y261090D02*
Y295090D01*
X722010D01*
X703010Y261090D02*
X722010D01*
X742290Y209100D02*
Y243100D01*
X723290Y209100D02*
Y243100D01*
X742290D01*
X723290Y209100D02*
X742290D01*
Y261090D02*
Y295090D01*
X723290Y261090D02*
Y295090D01*
X742290D01*
X723290Y261090D02*
X742290D01*
X782850Y209100D02*
Y243100D01*
X763850Y209100D02*
Y243100D01*
X782850D01*
X763850Y209100D02*
X782850D01*
Y261090D02*
Y295090D01*
X763850Y261090D02*
Y295090D01*
X782850D01*
X763850Y261090D02*
X782850D01*
X782900Y209100D02*
Y243100D01*
X801900Y209100D02*
Y243100D01*
X782900Y209100D02*
X801900D01*
X782900Y243100D02*
X801900D01*
X782900Y261090D02*
Y295090D01*
X801900Y261090D02*
Y295090D01*
X782900Y261090D02*
X801900D01*
X782900Y295090D02*
X801900D01*
X762570Y209100D02*
Y243100D01*
X743570Y209100D02*
Y243100D01*
X762570D01*
X743570Y209100D02*
X762570D01*
Y261090D02*
Y295090D01*
X743570Y261090D02*
Y295090D01*
X762570D01*
X743570Y261090D02*
X762570D01*
D107*
X1003300Y52150D02*
Y62150D01*
X998300Y57150D02*
X1008300D01*
X952900Y246200D02*
X962900D01*
X957900Y241200D02*
Y251200D01*
X744300Y412750D02*
X754300D01*
X749300Y407750D02*
Y417750D01*
X1540590Y377190D02*
X1550590D01*
X1545590Y372190D02*
Y382190D01*
X1676400Y405210D02*
Y415210D01*
X1671400Y410210D02*
X1681400D01*
X1711960Y153750D02*
Y163750D01*
X1706960Y158750D02*
X1716960D01*
X1649810Y160020D02*
X1659810D01*
X1654810Y155020D02*
Y165020D01*
X1418590Y135970D02*
Y145970D01*
X1413590Y140970D02*
X1423590D01*
X815340Y182960D02*
Y192960D01*
X810340Y187960D02*
X820340D01*
X687270Y253270D02*
X697270D01*
X692270Y248270D02*
Y258270D01*
X692230Y316130D02*
Y326130D01*
X687230Y321130D02*
X697230D01*
X815340Y217240D02*
Y227240D01*
X810340Y222240D02*
X820340D01*
X815340Y248270D02*
Y258270D01*
X810340Y253270D02*
X820340D01*
X815340Y279300D02*
Y289300D01*
X810340Y284300D02*
X820340D01*
X1370410Y62230D02*
X1380410D01*
X1375410Y57230D02*
Y67230D01*
X1115140Y229870D02*
X1125140D01*
X1120140Y224870D02*
Y234870D01*
X1079580Y328930D02*
X1089580D01*
X1084580Y323930D02*
Y333930D01*
X1094740Y411560D02*
Y421560D01*
X1089740Y416560D02*
X1099740D01*
X815000Y370000D02*
X825000D01*
X820000Y365000D02*
Y375000D01*
X650030Y228545D02*
X655530D01*
X652780Y225795D02*
Y231295D01*
X650030Y296735D02*
X655530D01*
X652780Y293985D02*
Y299485D01*
X685960Y219670D02*
X695960D01*
X690960Y214670D02*
Y224670D01*
X687190Y287060D02*
X697190D01*
X692190Y282060D02*
Y292060D01*
X848320Y129740D02*
Y139740D01*
X843320Y134740D02*
X853320D01*
X1084660Y232410D02*
X1094660D01*
X1089660Y227410D02*
Y237410D01*
X1607900Y67780D02*
X1617900D01*
X1612900Y62780D02*
Y72780D01*
X1108790Y378460D02*
X1118790D01*
X1113790Y373460D02*
Y383460D01*
X878840Y205820D02*
Y215820D01*
X873840Y210820D02*
X883840D01*
X838320Y330200D02*
X848320D01*
X843320Y325200D02*
Y335200D01*
X882770Y306070D02*
X892770D01*
X887770Y301070D02*
Y311070D01*
X962740Y383540D02*
X972740D01*
X967740Y378540D02*
Y388540D01*
X913210Y297180D02*
X923210D01*
X918210Y292180D02*
Y302180D01*
X861180Y307340D02*
X871180D01*
X866180Y302340D02*
Y312340D01*
X912420Y323370D02*
Y333370D01*
X907420Y328370D02*
X917420D01*
X1026240Y226060D02*
X1036240D01*
X1031240Y221060D02*
Y231060D01*
X825500Y106920D02*
Y116920D01*
X820500Y111920D02*
X830500D01*
X848320Y155060D02*
Y165060D01*
X843320Y160060D02*
X853320D01*
X976870Y154900D02*
X986870D01*
X981870Y149900D02*
Y159900D01*
X913370Y154900D02*
X923370D01*
X918370Y149900D02*
Y159900D01*
X878840Y185500D02*
Y195500D01*
X873840Y190500D02*
X883840D01*
X707510Y226100D02*
X717510D01*
X712510Y221100D02*
Y231100D01*
X707510Y278090D02*
X717510D01*
X712510Y273090D02*
Y283090D01*
X727790Y226100D02*
X737790D01*
X732790Y221100D02*
Y231100D01*
X727790Y278090D02*
X737790D01*
X732790Y273090D02*
Y283090D01*
X768350Y226100D02*
X778350D01*
X773350Y221100D02*
Y231100D01*
X768350Y278090D02*
X778350D01*
X773350Y273090D02*
Y283090D01*
X787400Y226100D02*
X797400D01*
X792400Y221100D02*
Y231100D01*
X787400Y278090D02*
X797400D01*
X792400Y273090D02*
Y283090D01*
X748070Y226100D02*
X758070D01*
X753070Y221100D02*
Y231100D01*
X748070Y278090D02*
X758070D01*
X753070Y273090D02*
Y283090D01*
X687230Y185410D02*
X697230D01*
X692230Y180410D02*
Y190410D01*
M02*
