G04*
G04 #@! TF.GenerationSoftware,Altium Limited,Altium Designer,23.3.1 (30)*
G04*
G04 Layer_Color=0*
%FSLAX44Y44*%
%MOMM*%
G71*
G04*
G04 #@! TF.SameCoordinates,D953DCF9-3291-42EB-AE53-6C5A23FC187B*
G04*
G04*
G04 #@! TF.FilePolarity,Positive*
G04*
G01*
G75*
%ADD107C,0.1000*%
D107*
X953770Y149940D02*
Y159940D01*
X948770Y154940D02*
X958770D01*
X1094740Y450930D02*
Y460930D01*
X1089740Y455930D02*
X1099740D01*
X749300Y447120D02*
Y457120D01*
X744300Y452120D02*
X754300D01*
X815340Y148710D02*
Y158710D01*
X810340Y153710D02*
X820340D01*
X1240060Y325310D02*
Y335310D01*
X1235060Y330310D02*
X1245060D01*
X1151020Y106760D02*
Y116760D01*
X1146020Y111760D02*
X1156020D01*
X1546860Y189310D02*
Y199310D01*
X1541860Y194310D02*
X1551860D01*
X868760Y234950D02*
X878760D01*
X873760Y229950D02*
Y239950D01*
X868760Y262890D02*
X878760D01*
X873760Y257890D02*
Y267890D01*
X1781720Y188160D02*
X1791720D01*
X1786720Y183160D02*
Y193160D01*
X1789600Y319920D02*
Y329920D01*
X1784600Y324920D02*
X1794600D01*
X844630Y198120D02*
X854630D01*
X849630Y193120D02*
Y203120D01*
X882650Y337900D02*
Y347900D01*
X877650Y342900D02*
X887650D01*
X1268730Y81360D02*
Y91360D01*
X1263730Y86360D02*
X1273730D01*
X1524000Y63580D02*
Y73580D01*
X1519000Y68580D02*
X1529000D01*
X1304290Y137240D02*
Y147240D01*
X1299290Y142240D02*
X1309290D01*
X1110060Y328930D02*
X1120060D01*
X1115060Y323930D02*
Y333930D01*
X1078310Y378460D02*
X1088310D01*
X1083310Y373460D02*
Y383460D01*
X1677670Y274400D02*
Y284400D01*
X1672670Y279400D02*
X1682670D01*
X1407160Y265440D02*
Y298440D01*
X1390660Y281940D02*
X1423660D01*
M02*
