G04*
G04 #@! TF.GenerationSoftware,Altium Limited,Altium Designer,23.3.1 (30)*
G04*
G04 Layer_Physical_Order=1*
G04 Layer_Color=255*
%FSLAX44Y44*%
%MOMM*%
G71*
G04*
G04 #@! TF.SameCoordinates,D953DCF9-3291-42EB-AE53-6C5A23FC187B*
G04*
G04*
G04 #@! TF.FilePolarity,Positive*
G04*
G01*
G75*
%ADD13C,0.4000*%
%ADD15R,4.1000X4.1000*%
%ADD16R,1.3000X1.0500*%
%ADD17R,2.1800X1.6000*%
%ADD18R,2.2000X1.6000*%
%ADD19O,0.6500X0.2000*%
%ADD20O,0.2000X0.6500*%
%ADD21R,1.2000X1.4500*%
%ADD22R,1.0000X1.3500*%
%ADD23R,1.4500X1.1500*%
%ADD24R,0.4500X0.4500*%
%ADD25R,0.5500X0.5500*%
%ADD26R,1.3500X0.9500*%
%ADD27R,1.3500X0.6000*%
%ADD28R,2.0000X0.9000*%
%ADD29R,1.1544X1.3562*%
%ADD30R,0.9000X2.0000*%
%ADD31R,1.8000X1.2000*%
%ADD32R,1.5000X1.2000*%
%ADD33R,2.6500X1.7500*%
%ADD34R,1.4000X2.1000*%
%ADD35R,2.8000X5.3000*%
G04:AMPARAMS|DCode=36|XSize=1mm|YSize=4.15mm|CornerRadius=0.05mm|HoleSize=0mm|Usage=FLASHONLY|Rotation=180.000|XOffset=0mm|YOffset=0mm|HoleType=Round|Shape=RoundedRectangle|*
%AMROUNDEDRECTD36*
21,1,1.0000,4.0500,0,0,180.0*
21,1,0.9000,4.1500,0,0,180.0*
1,1,0.1000,-0.4500,2.0250*
1,1,0.1000,0.4500,2.0250*
1,1,0.1000,0.4500,-2.0250*
1,1,0.1000,-0.4500,-2.0250*
%
%ADD36ROUNDEDRECTD36*%
%ADD37R,0.9500X1.4000*%
%ADD38R,1.4000X1.2000*%
%ADD39R,1.2000X1.4000*%
%ADD40R,1.4500X0.9500*%
G04:AMPARAMS|DCode=41|XSize=6.4mm|YSize=8.2mm|CornerRadius=0.064mm|HoleSize=0mm|Usage=FLASHONLY|Rotation=180.000|XOffset=0mm|YOffset=0mm|HoleType=Round|Shape=RoundedRectangle|*
%AMROUNDEDRECTD41*
21,1,6.4000,8.0720,0,0,180.0*
21,1,6.2720,8.2000,0,0,180.0*
1,1,0.1280,-3.1360,4.0360*
1,1,0.1280,3.1360,4.0360*
1,1,0.1280,3.1360,-4.0360*
1,1,0.1280,-3.1360,-4.0360*
%
%ADD41ROUNDEDRECTD41*%
%ADD42R,1.4500X1.2000*%
%ADD43R,1.0500X1.4500*%
%ADD44R,1.3300X1.3300*%
%ADD45R,1.2000X0.8000*%
%ADD46R,0.8000X1.2000*%
%ADD47R,1.4562X1.3046*%
%ADD48R,1.5500X1.5500*%
%ADD49R,1.3500X0.9500*%
%ADD50R,2.0000X4.1000*%
%ADD73C,1.6000*%
%ADD74R,1.6000X1.6000*%
%ADD76C,1.4500*%
%ADD79R,1.4500X1.4500*%
%ADD80C,1.5500*%
%ADD81R,1.5500X1.5500*%
%ADD85C,0.3000*%
%ADD86C,0.6000*%
%ADD87C,0.3560*%
%ADD88C,0.3556*%
%ADD89C,0.4500*%
%ADD90C,0.9000*%
%ADD91C,0.4064*%
%ADD92C,0.5000*%
%ADD93C,1.0000*%
%ADD94C,0.8000*%
%ADD95C,3.0000*%
%ADD96C,1.5000*%
%ADD97C,2.1000*%
G04:AMPARAMS|DCode=98|XSize=1.5mm|YSize=1.5mm|CornerRadius=0.375mm|HoleSize=0mm|Usage=FLASHONLY|Rotation=0.000|XOffset=0mm|YOffset=0mm|HoleType=Round|Shape=RoundedRectangle|*
%AMROUNDEDRECTD98*
21,1,1.5000,0.7500,0,0,0.0*
21,1,0.7500,1.5000,0,0,0.0*
1,1,0.7500,0.3750,-0.3750*
1,1,0.7500,-0.3750,-0.3750*
1,1,0.7500,-0.3750,0.3750*
1,1,0.7500,0.3750,0.3750*
%
%ADD98ROUNDEDRECTD98*%
%ADD99C,0.9070*%
%ADD100C,0.9065*%
%ADD101C,0.5000*%
G36*
X1135380Y438563D02*
X1131880Y437113D01*
X1116792Y452201D01*
X1117534Y455930D01*
X1116766Y459793D01*
X1114577Y463068D01*
X1111303Y465256D01*
X1107440Y466024D01*
X1103577Y465256D01*
X1100303Y463068D01*
X1098114Y459793D01*
X1097346Y455930D01*
X1098114Y452067D01*
X1100303Y448792D01*
X1103577Y446604D01*
X1107440Y445836D01*
X1111169Y446578D01*
X1126324Y431423D01*
Y392281D01*
X1126310Y392264D01*
X1123636Y393169D01*
X1122810Y393959D01*
Y396730D01*
X1114425D01*
Y387710D01*
X1113790D01*
Y387075D01*
X1104770D01*
Y378860D01*
X1104140D01*
Y376101D01*
X1094835D01*
X1091960Y377610D01*
X1091330Y379940D01*
X1091330D01*
X1091330Y379940D01*
Y385325D01*
X1083310D01*
X1075290D01*
Y379940D01*
X1075290D01*
X1073997Y376976D01*
X1033900D01*
X1031598Y376518D01*
X1029646Y375214D01*
X1028808Y374375D01*
X1028730Y374359D01*
X1026602Y372938D01*
X1025181Y370810D01*
X1024681Y368300D01*
X1025181Y365790D01*
X1026602Y363662D01*
X1028730Y362241D01*
X1031240Y361741D01*
X1033750Y362241D01*
X1035878Y363662D01*
X1036734Y364944D01*
X1065530D01*
Y344946D01*
X1046320D01*
X1044018Y344488D01*
X1042066Y343184D01*
X1012298Y313415D01*
X1012220Y313399D01*
X1010092Y311978D01*
X1008671Y309850D01*
X1008171Y307340D01*
X1008671Y304830D01*
X1010092Y302702D01*
X1012220Y301281D01*
X1014730Y300781D01*
X1017240Y301281D01*
X1019368Y302702D01*
X1020789Y304830D01*
X1020805Y304907D01*
X1048812Y332914D01*
X1075430D01*
Y331030D01*
X1093730D01*
Y346830D01*
X1089961D01*
Y364069D01*
X1104140D01*
Y359560D01*
X1123440D01*
Y364714D01*
X1143160D01*
Y360674D01*
X1142918Y360626D01*
X1141298Y359543D01*
X1129583Y347828D01*
X1128500Y346207D01*
X1128120Y344296D01*
Y338364D01*
X1127111Y337632D01*
X1123611Y339416D01*
Y344781D01*
X1115695D01*
Y336988D01*
X1115060D01*
Y336353D01*
X1106509D01*
Y329295D01*
X1105879D01*
Y324897D01*
X1093730D01*
Y326830D01*
X1075430D01*
Y311030D01*
X1087120D01*
Y290519D01*
X1085022Y289118D01*
X1084240Y287947D01*
X1074115D01*
X1072788Y287683D01*
X1071664Y286931D01*
X1063789Y279057D01*
X1055370D01*
Y279270D01*
X997790D01*
X997790Y279270D01*
X995188Y278192D01*
X995188Y278192D01*
X989376Y272380D01*
X988650D01*
X987343Y271839D01*
X986556D01*
X984690Y272990D01*
X983539Y274856D01*
Y278200D01*
X982619Y280420D01*
X980400Y281339D01*
X978180Y280420D01*
X977619Y280420D01*
X975400Y281339D01*
X973180Y280420D01*
X972619Y280420D01*
X970400Y281339D01*
X968180Y280420D01*
X967619Y280420D01*
X965400Y281339D01*
X963180Y280420D01*
X962619Y280420D01*
X960400Y281339D01*
X958180Y280420D01*
X957619Y280420D01*
X955400Y281339D01*
X953980Y282288D01*
Y345526D01*
X970342Y361888D01*
X970342Y361888D01*
X971420Y364490D01*
Y367140D01*
X976640D01*
Y381531D01*
X976640Y382940D01*
X976010Y386179D01*
Y391405D01*
X959470D01*
Y386179D01*
X958840Y382940D01*
X958840Y381531D01*
Y367140D01*
X960236D01*
X961685Y363640D01*
X952314Y354268D01*
X949080Y355608D01*
Y382199D01*
X948002Y384801D01*
X948002Y384801D01*
X945998Y386806D01*
X946359Y388620D01*
X945859Y391130D01*
X944438Y393258D01*
X942310Y394679D01*
X939800Y395179D01*
X937290Y394679D01*
X935162Y393258D01*
X933741Y391130D01*
X933241Y388620D01*
X933741Y386110D01*
X935162Y383982D01*
X937290Y382561D01*
X939800Y382061D01*
X941720Y379246D01*
Y340598D01*
X938486Y339258D01*
X938272Y339472D01*
X935670Y340550D01*
X935670Y340550D01*
X921320D01*
Y344770D01*
X915540D01*
Y351790D01*
X914462Y354392D01*
X914462Y354392D01*
X911922Y356932D01*
X909320Y358010D01*
X909320Y358010D01*
X876300D01*
X873698Y356932D01*
X873698Y356932D01*
X871158Y354392D01*
X870080Y351790D01*
X867750Y350800D01*
Y346580D01*
X858808D01*
X856206Y345502D01*
X852972Y346154D01*
X852220Y346466D01*
Y346600D01*
X834420D01*
Y336004D01*
X825659Y327243D01*
X825470Y327369D01*
X822960Y327869D01*
X820450Y327369D01*
X818322Y325948D01*
X816901Y323820D01*
X816401Y321310D01*
X816901Y318800D01*
X818322Y316672D01*
X820450Y315251D01*
X822960Y314751D01*
X825470Y315251D01*
X827598Y316672D01*
X829019Y318800D01*
X829366Y320541D01*
X831816Y322992D01*
X835050Y321652D01*
Y314430D01*
X842685D01*
Y321700D01*
X843320D01*
Y322335D01*
X851590D01*
Y328970D01*
X851590Y328970D01*
X851590D01*
X852220Y330800D01*
X853322Y333843D01*
X854608Y335020D01*
X857210Y336098D01*
X860333Y339220D01*
X867750D01*
Y335000D01*
X879550D01*
Y350650D01*
X885750D01*
Y335000D01*
X885750D01*
X886788Y331500D01*
X886748Y331441D01*
X886249Y328930D01*
X886474Y327799D01*
X885168Y326492D01*
X884090Y323890D01*
X880937Y322470D01*
X878870D01*
Y318250D01*
X875080D01*
Y323740D01*
X857280D01*
Y309349D01*
X857280Y307940D01*
X857910Y304701D01*
X857910Y299475D01*
X874450D01*
Y304701D01*
X874968Y307367D01*
X876036Y307969D01*
X878870Y306820D01*
Y306670D01*
X879500Y303431D01*
Y298205D01*
X896040D01*
Y303431D01*
X896670Y306670D01*
X896670Y308079D01*
Y322470D01*
X898159Y325353D01*
X898872Y326419D01*
X899371Y328930D01*
X898872Y331441D01*
X898554Y331916D01*
X897550Y335000D01*
X897550Y335000D01*
X897550D01*
X897550Y335000D01*
Y350650D01*
X907796D01*
X908180Y350266D01*
Y344770D01*
X903520D01*
Y330379D01*
X903520Y328970D01*
X903520D01*
X904150Y327140D01*
X904150Y327140D01*
Y320505D01*
X912420D01*
Y319870D01*
X913055D01*
Y312600D01*
X920690D01*
X923030Y310069D01*
Y308555D01*
X920555Y306080D01*
X918810D01*
X915571Y305450D01*
X910345D01*
Y297180D01*
Y288910D01*
X915571D01*
X918810Y288280D01*
X920219Y288280D01*
X929406D01*
X931720Y285966D01*
Y276950D01*
X932261Y275643D01*
Y274174D01*
X931575Y273062D01*
X929526Y271157D01*
X928785D01*
Y268700D01*
X928150D01*
Y268065D01*
X923706D01*
X924163Y266963D01*
X923721Y265937D01*
X923680Y265920D01*
X923181Y264714D01*
X922761Y263700D01*
X923680Y261480D01*
X923314Y259322D01*
X922359Y257680D01*
X910844D01*
X903032Y265492D01*
X900430Y266570D01*
X900430Y266570D01*
X888191D01*
Y271571D01*
X867548D01*
X863600Y275519D01*
Y288070D01*
X863600Y290830D01*
X866794Y291570D01*
X874450D01*
Y298205D01*
X857910D01*
Y291570D01*
X854716Y290830D01*
X822282D01*
X822117Y291077D01*
X819008Y293155D01*
X815340Y293884D01*
X811672Y293155D01*
X808563Y291077D01*
X808398Y290830D01*
X801370D01*
Y298570D01*
X800670Y293860D01*
X793035D01*
Y286590D01*
X791765D01*
Y293860D01*
X784130D01*
X784130Y293860D01*
X782250Y294490D01*
X782250Y294490D01*
X779391Y294490D01*
X764450D01*
Y294490D01*
X761970D01*
Y294490D01*
X744170D01*
Y294490D01*
X741690D01*
Y294490D01*
X723890D01*
Y294490D01*
X721410D01*
Y294490D01*
X703610D01*
X701340Y298550D01*
Y303460D01*
X698715D01*
Y314158D01*
X699007Y314353D01*
X701085Y317462D01*
X701814Y321130D01*
X701085Y324798D01*
X699007Y327907D01*
X698500Y328246D01*
Y483870D01*
X699026Y485140D01*
X1135380D01*
Y438563D01*
D02*
G37*
G36*
X1780540Y478100D02*
X1779524Y477266D01*
X1774208Y470788D01*
X1770258Y463398D01*
X1767825Y455379D01*
X1767004Y447040D01*
X1767825Y438701D01*
X1770258Y430682D01*
X1774208Y423292D01*
X1779524Y416814D01*
X1786002Y411498D01*
X1793392Y407548D01*
X1801411Y405116D01*
X1809750Y404294D01*
X1818089Y405116D01*
X1826108Y407548D01*
X1833498Y411498D01*
X1839976Y416814D01*
X1840810Y417830D01*
X1845310D01*
Y92028D01*
X1844255Y91231D01*
X1841810Y90495D01*
X1836038Y95232D01*
X1828648Y99182D01*
X1820629Y101615D01*
X1812290Y102436D01*
X1803951Y101615D01*
X1795932Y99182D01*
X1788542Y95232D01*
X1782064Y89916D01*
X1776748Y83438D01*
X1772798Y76048D01*
X1770365Y68029D01*
X1769544Y59690D01*
X1770365Y51351D01*
X1772798Y43332D01*
X1776748Y35942D01*
X1782064Y29464D01*
X1786890Y25504D01*
Y17780D01*
X698500D01*
Y178294D01*
X699007Y178633D01*
X701085Y181742D01*
X701814Y185410D01*
X701085Y189078D01*
X699007Y192187D01*
X698755Y192355D01*
Y203270D01*
X700110D01*
Y206150D01*
X703610Y209700D01*
X721410D01*
Y209700D01*
X723890D01*
Y209700D01*
X741690D01*
Y209700D01*
X744170D01*
Y209700D01*
X761970D01*
Y209700D01*
X764450D01*
Y209700D01*
X779391D01*
X782250Y209700D01*
X786989Y210330D01*
X791765D01*
Y217600D01*
X793035D01*
Y210330D01*
X796370D01*
X800670Y210330D01*
X801370Y205620D01*
Y138430D01*
X806190D01*
Y137310D01*
X812769D01*
Y120820D01*
X809100D01*
Y103020D01*
X824900D01*
Y103020D01*
X826100D01*
Y103020D01*
X841900D01*
Y114836D01*
X842062Y114998D01*
X842979Y116371D01*
X843301Y117990D01*
Y125590D01*
X846220D01*
Y138430D01*
X850420D01*
Y125590D01*
X864720D01*
Y130940D01*
X869753D01*
X870392Y129982D01*
X872520Y128561D01*
X875030Y128061D01*
X877540Y128561D01*
X879668Y129982D01*
X881089Y132110D01*
X881589Y134620D01*
X881089Y137130D01*
X879668Y139258D01*
X878347Y140140D01*
X879231Y143640D01*
X882650D01*
X882650Y143640D01*
X885252Y144718D01*
X906867Y166332D01*
X910100Y164993D01*
Y164035D01*
X917735D01*
Y170670D01*
X915777D01*
X914438Y173904D01*
X920812Y180278D01*
X921890Y182880D01*
X921890Y182880D01*
Y215486D01*
X926424Y220020D01*
X927150D01*
X928457Y220561D01*
X929925D01*
X931038Y219875D01*
X932943Y217826D01*
Y217085D01*
X935400D01*
Y216450D01*
X936035D01*
Y211797D01*
X938180Y211980D01*
X940400Y211061D01*
X940400Y211061D01*
X942900Y211888D01*
X945400Y211061D01*
X946720Y210179D01*
Y186751D01*
X946720Y186751D01*
X947798Y184149D01*
X948490Y183456D01*
Y170210D01*
X942905D01*
Y163690D01*
X942270D01*
Y163055D01*
X934500D01*
Y157170D01*
X940493D01*
X942364Y153670D01*
X942144Y153340D01*
X933870D01*
Y150080D01*
X927270D01*
Y152891D01*
X927270Y154300D01*
X927270Y154300D01*
X926640Y156130D01*
X926640Y156130D01*
Y162765D01*
X910100D01*
Y156130D01*
X910100Y156130D01*
X909470Y154300D01*
X909470Y154300D01*
X909470Y152891D01*
Y138500D01*
X927270D01*
Y142720D01*
X933870D01*
Y139040D01*
X950670D01*
Y148135D01*
X954000Y151466D01*
X957500Y150373D01*
Y146825D01*
X965270D01*
Y146190D01*
X965905D01*
Y139670D01*
X970324D01*
X973600Y139130D01*
X976316Y139130D01*
X981235D01*
Y146400D01*
X981870D01*
Y147035D01*
X990140D01*
Y152261D01*
X990770Y155500D01*
X990770Y156909D01*
Y171300D01*
X972970D01*
Y170840D01*
X963060D01*
X962872Y171292D01*
X962872Y171292D01*
X962680Y171484D01*
Y174531D01*
X966036Y176863D01*
X967678Y176468D01*
Y176468D01*
X967678Y176468D01*
X970280Y175390D01*
X970731Y175390D01*
X1001833D01*
X1002472Y174432D01*
X1004600Y173011D01*
X1004678Y172995D01*
X1046815Y130858D01*
X1048766Y129554D01*
X1051068Y129096D01*
X1100177D01*
X1116870Y112403D01*
Y102610D01*
X1126663D01*
X1147166Y82106D01*
X1149118Y80802D01*
X1151420Y80344D01*
X1232080D01*
Y75710D01*
X1241214D01*
Y63670D01*
X1241081Y63470D01*
X1240581Y60960D01*
X1241081Y58450D01*
X1242502Y56322D01*
X1244630Y54901D01*
X1247140Y54401D01*
X1249650Y54901D01*
X1251778Y56322D01*
X1253199Y58450D01*
X1253699Y60960D01*
X1253246Y63238D01*
Y75710D01*
X1262380D01*
Y97010D01*
X1232080D01*
Y92376D01*
X1153912D01*
X1135170Y111117D01*
Y120910D01*
X1125377D01*
X1106922Y139365D01*
X1104970Y140669D01*
X1102668Y141127D01*
X1053560D01*
X1013185Y181502D01*
X1013169Y181580D01*
X1011748Y183708D01*
X1009620Y185129D01*
X1007110Y185629D01*
X1004600Y185129D01*
X1002472Y183708D01*
X1001833Y182750D01*
X971804D01*
X969080Y185474D01*
Y210861D01*
X969930Y211429D01*
X973180Y211980D01*
X975400Y211061D01*
X975400Y211061D01*
X977900Y211888D01*
X980400Y211061D01*
X980400Y211061D01*
X982620Y211980D01*
X983034Y212980D01*
X983539Y214200D01*
Y217544D01*
X984690Y219410D01*
X986556Y220561D01*
X989900D01*
X992120Y221480D01*
X993039Y223700D01*
X992120Y225919D01*
X992120Y226481D01*
X993039Y228700D01*
X993914Y230010D01*
X1010716D01*
X1011362Y229042D01*
X1013490Y227621D01*
X1016000Y227121D01*
X1018510Y227621D01*
X1018840Y227841D01*
X1022340Y226660D01*
X1022970Y223421D01*
Y218195D01*
X1039510D01*
Y223421D01*
X1040140Y226660D01*
X1040140Y228069D01*
Y242460D01*
X1041927Y245220D01*
X1055370D01*
Y245433D01*
X1064452D01*
X1067034Y243904D01*
X1067786Y242829D01*
X1068512Y241742D01*
X1069908Y240810D01*
X1069201Y237310D01*
X1069010D01*
Y227510D01*
X1074193D01*
Y210120D01*
X1074457Y208793D01*
X1075209Y207669D01*
X1087120Y195758D01*
Y190882D01*
X1090353Y192222D01*
X1167375Y115200D01*
X1166691Y111760D01*
X1167401Y108190D01*
X1169423Y105163D01*
X1172450Y103141D01*
X1176020Y102431D01*
X1179590Y103141D01*
X1182617Y105163D01*
X1183686Y106764D01*
X1258261D01*
X1275080Y89945D01*
Y75710D01*
X1305380D01*
Y97010D01*
X1282145D01*
X1263863Y115293D01*
X1262242Y116376D01*
X1260330Y116756D01*
X1183686D01*
X1182617Y118357D01*
X1179590Y120379D01*
X1176020Y121089D01*
X1172580Y120405D01*
X1087120Y205865D01*
Y252300D01*
X1117662Y282843D01*
X1117662Y282843D01*
X1118740Y285445D01*
X1118740Y285445D01*
Y312449D01*
X1124241D01*
Y313662D01*
X1127741Y314007D01*
X1128051Y312450D01*
X1129472Y310322D01*
X1130134Y309881D01*
Y256539D01*
X1129472Y256098D01*
X1128051Y253970D01*
X1127551Y251460D01*
X1128051Y248950D01*
X1128858Y247742D01*
X1127632Y244671D01*
X1127289Y244270D01*
X1112389Y244270D01*
X1109680Y246180D01*
X1108781Y246180D01*
X1102295D01*
Y241910D01*
Y237640D01*
X1107990D01*
X1109680Y237640D01*
X1111490Y234890D01*
X1111490Y228770D01*
X1110310Y227810D01*
X1093010D01*
Y218010D01*
X1110310D01*
X1111490Y215470D01*
X1128790D01*
Y227470D01*
X1128790Y230149D01*
X1130597Y231956D01*
X1134488D01*
X1137967Y228477D01*
X1139588Y227394D01*
X1141500Y227014D01*
X1143160D01*
Y211410D01*
X1166960D01*
Y224110D01*
Y236810D01*
Y249510D01*
Y262210D01*
Y274910D01*
Y287610D01*
Y300310D01*
Y313010D01*
Y325710D01*
Y338410D01*
Y351110D01*
Y363810D01*
Y370840D01*
X1313160D01*
Y363810D01*
Y351110D01*
Y338410D01*
Y325710D01*
Y313010D01*
Y300310D01*
Y287610D01*
Y274910D01*
Y262210D01*
Y249510D01*
Y236810D01*
Y224110D01*
Y211410D01*
X1320064D01*
Y158079D01*
X1313125Y151140D01*
X1306890D01*
Y133340D01*
X1320190D01*
Y137244D01*
X1336281D01*
X1408460Y65065D01*
Y52330D01*
X1434260D01*
Y72130D01*
X1415525D01*
X1341883Y145773D01*
X1340262Y146856D01*
X1338350Y147236D01*
X1327924D01*
X1326585Y150470D01*
X1328593Y152477D01*
X1329676Y154098D01*
X1330056Y156010D01*
Y211410D01*
X1336960D01*
Y224110D01*
Y236810D01*
Y249510D01*
Y262210D01*
Y265560D01*
X1340923D01*
X1341562Y264602D01*
X1343690Y263181D01*
X1346200Y262681D01*
X1348710Y263181D01*
X1350838Y264602D01*
X1352259Y266730D01*
X1352759Y269240D01*
X1352259Y271750D01*
X1350838Y273878D01*
X1350155Y274334D01*
X1348883Y276367D01*
X1349270Y278757D01*
X1349719Y279430D01*
X1350219Y281940D01*
X1349719Y284450D01*
X1348298Y286578D01*
X1348171Y287063D01*
X1348570Y290605D01*
X1349568Y291272D01*
X1350989Y293400D01*
X1351489Y295910D01*
X1350989Y298420D01*
X1349568Y300548D01*
X1347440Y301969D01*
X1344930Y302469D01*
X1342420Y301969D01*
X1340460Y300660D01*
X1339512Y300855D01*
X1336960Y301860D01*
Y313010D01*
Y327114D01*
X1345570D01*
X1347482Y327494D01*
X1349103Y328577D01*
X1442815Y422289D01*
X1449010D01*
X1451214Y422728D01*
X1453083Y423977D01*
X1454332Y425845D01*
X1454771Y428050D01*
Y435550D01*
X1454332Y437755D01*
X1453083Y439623D01*
X1451214Y440872D01*
X1449010Y441311D01*
X1441510D01*
X1439306Y440872D01*
X1437437Y439623D01*
X1436188Y437755D01*
X1435749Y435550D01*
Y429355D01*
X1429696Y423302D01*
X1426978Y425533D01*
X1428715Y428132D01*
X1429444Y431800D01*
X1428715Y435468D01*
X1426637Y438577D01*
X1423528Y440655D01*
X1419860Y441384D01*
X1416192Y440655D01*
X1413083Y438577D01*
X1411005Y435468D01*
X1410276Y431800D01*
X1410846Y428932D01*
X1360863Y378949D01*
X1357630Y380289D01*
Y485140D01*
X1780540D01*
Y478100D01*
D02*
G37*
G36*
X733425Y262320D02*
X739431D01*
X744170Y261690D01*
X745799Y261690D01*
X761970D01*
Y261690D01*
X764450D01*
Y261690D01*
X782250D01*
Y261690D01*
X783500Y261690D01*
Y261690D01*
X801300D01*
X801370Y256719D01*
Y247471D01*
X801300Y242500D01*
X783500D01*
Y242500D01*
X782250Y242500D01*
Y242500D01*
X764450D01*
Y242500D01*
X761970D01*
Y242500D01*
X745799D01*
X744170Y242500D01*
X739431Y241870D01*
X733425D01*
Y234600D01*
X732155D01*
Y241870D01*
X725780D01*
X724520Y241870D01*
X720780D01*
X719520Y241870D01*
X713145D01*
Y234600D01*
X711875D01*
Y241870D01*
X704240D01*
Y241870D01*
X699240Y240407D01*
X698500Y240861D01*
Y246885D01*
X698593Y246947D01*
X700531Y249848D01*
X701086Y252635D01*
X692270D01*
Y253905D01*
X701086D01*
X700531Y256692D01*
X698593Y259593D01*
X698500Y259655D01*
Y266140D01*
X699240Y266390D01*
X704240Y262803D01*
Y262320D01*
X711875D01*
Y269590D01*
X713145D01*
Y262320D01*
X719520D01*
X720780Y262320D01*
X724520D01*
X725780Y262320D01*
X732155D01*
Y269590D01*
X733425D01*
Y262320D01*
D02*
G37*
G36*
X915963Y236660D02*
X915245Y236362D01*
X898883Y220000D01*
X891840D01*
X891840Y220000D01*
X891164Y219720D01*
X880849D01*
X879440Y219720D01*
X879440Y219720D01*
X877610Y219090D01*
X877610Y219090D01*
X870975D01*
Y210820D01*
X869705D01*
Y219090D01*
X863600D01*
Y222571D01*
X864461Y225885D01*
X866394Y226269D01*
X888191D01*
Y236551D01*
X891741D01*
X891741Y236551D01*
X894343Y237629D01*
X896874Y240160D01*
X915267D01*
X915963Y236660D01*
D02*
G37*
%LPC*%
G36*
X1112010Y425080D02*
X1105375D01*
Y417195D01*
X1112010D01*
Y425080D01*
D02*
G37*
G36*
X1104105D02*
X1097470D01*
Y417195D01*
X1104105D01*
Y425080D01*
D02*
G37*
G36*
X759935Y421270D02*
Y413385D01*
X766570D01*
Y421270D01*
X759935D01*
D02*
G37*
G36*
X1112010Y415925D02*
X1105375D01*
Y408040D01*
X1112010D01*
Y415925D01*
D02*
G37*
G36*
X1104105D02*
X1097470D01*
Y408040D01*
X1104105D01*
Y415925D01*
D02*
G37*
G36*
X1091940Y465830D02*
X1072140D01*
Y446030D01*
X1081273D01*
Y425710D01*
X1076840D01*
Y407410D01*
X1092640D01*
Y425710D01*
X1088420D01*
Y446030D01*
X1091940D01*
Y465830D01*
D02*
G37*
G36*
X766570Y412115D02*
X759935D01*
Y404230D01*
X766570D01*
Y412115D01*
D02*
G37*
G36*
X746500Y462020D02*
X726700D01*
Y442220D01*
X735620D01*
Y421900D01*
X731400D01*
Y403600D01*
X747200D01*
Y403820D01*
X752030Y404230D01*
X752200Y404230D01*
X758665D01*
Y412750D01*
Y421270D01*
X752200D01*
X752030Y421270D01*
X747200Y421680D01*
Y421900D01*
X742980D01*
Y442220D01*
X746500D01*
Y462020D01*
D02*
G37*
G36*
X976010Y399310D02*
X968375D01*
Y392675D01*
X976010D01*
Y399310D01*
D02*
G37*
G36*
X967105D02*
X959470D01*
Y392675D01*
X967105D01*
Y399310D01*
D02*
G37*
G36*
X1113155Y396730D02*
X1104770D01*
Y388345D01*
X1113155D01*
Y396730D01*
D02*
G37*
G36*
X1091330Y391980D02*
X1083945D01*
Y386595D01*
X1091330D01*
Y391980D01*
D02*
G37*
G36*
X1082675D02*
X1075290D01*
Y386595D01*
X1082675D01*
Y391980D01*
D02*
G37*
G36*
X762000Y462214D02*
X758137Y461446D01*
X754863Y459258D01*
X752674Y455983D01*
X751906Y452120D01*
X752674Y448257D01*
X754863Y444982D01*
X758137Y442794D01*
X762000Y442026D01*
X765863Y442794D01*
X766018Y442898D01*
X772290Y436626D01*
Y363220D01*
X772290Y363220D01*
X773368Y360618D01*
X780988Y352998D01*
X783590Y351920D01*
X783590Y351920D01*
X816350D01*
X816350Y351920D01*
X818952Y352998D01*
X827305Y361350D01*
X835900D01*
Y366320D01*
X922606D01*
X923420Y365506D01*
Y362150D01*
X922461Y361509D01*
X921038Y359381D01*
X920539Y356870D01*
X921038Y354359D01*
X922461Y352231D01*
X924589Y350808D01*
X927100Y350309D01*
X929611Y350808D01*
X931739Y352231D01*
X933162Y354359D01*
X933661Y356870D01*
X933162Y359381D01*
X931739Y361509D01*
X930780Y362150D01*
Y367030D01*
X930780Y367030D01*
X929702Y369632D01*
X929702Y369632D01*
X926732Y372602D01*
X924130Y373680D01*
X924130Y373680D01*
X835900D01*
Y378650D01*
X823750D01*
X823406Y382150D01*
X825470Y382561D01*
X827598Y383982D01*
X829019Y386110D01*
X829519Y388620D01*
X829019Y391130D01*
X827598Y393258D01*
X825470Y394679D01*
X822960Y395179D01*
X820450Y394679D01*
X818322Y393258D01*
X817043Y391343D01*
X815653D01*
X813051Y390266D01*
X813051Y390266D01*
X808398Y385612D01*
X807320Y383010D01*
X807320Y383010D01*
Y379636D01*
X804216Y378931D01*
X801370Y381068D01*
Y359280D01*
X785114D01*
X779650Y364744D01*
Y438150D01*
X778572Y440752D01*
X778572Y440752D01*
X771222Y448102D01*
X771326Y448257D01*
X772094Y452120D01*
X771326Y455983D01*
X769137Y459258D01*
X765863Y461446D01*
X762000Y462214D01*
D02*
G37*
G36*
X1114425Y344781D02*
X1106509D01*
Y337623D01*
X1114425D01*
Y344781D01*
D02*
G37*
G36*
X851590Y321065D02*
X843955D01*
Y314430D01*
X851590D01*
Y321065D01*
D02*
G37*
G36*
X911785Y319235D02*
X904150D01*
Y312600D01*
X911785D01*
Y319235D01*
D02*
G37*
G36*
X909075Y305450D02*
X902440D01*
Y297815D01*
X909075D01*
Y305450D01*
D02*
G37*
G36*
X896040Y296935D02*
X888405D01*
Y290300D01*
X896040D01*
Y296935D01*
D02*
G37*
G36*
X887135D02*
X879500D01*
Y290300D01*
X887135D01*
Y296935D01*
D02*
G37*
G36*
X909075Y296545D02*
X902440D01*
Y288910D01*
X909075D01*
Y296545D01*
D02*
G37*
G36*
X927515Y271157D02*
X925900D01*
X924163Y270437D01*
X923706Y269335D01*
X927515D01*
Y271157D01*
D02*
G37*
G36*
X1395095Y440616D02*
Y432435D01*
X1403275D01*
X1402721Y435222D01*
X1400783Y438123D01*
X1397882Y440061D01*
X1395095Y440616D01*
D02*
G37*
G36*
X1393825D02*
X1391038Y440061D01*
X1388137Y438123D01*
X1386199Y435222D01*
X1385645Y432435D01*
X1393825D01*
Y440616D01*
D02*
G37*
G36*
X1403275Y431165D02*
X1395095D01*
Y422985D01*
X1397882Y423539D01*
X1400783Y425477D01*
X1402721Y428378D01*
X1403275Y431165D01*
D02*
G37*
G36*
X1393825D02*
X1385645D01*
X1386199Y428378D01*
X1388137Y425477D01*
X1391038Y423539D01*
X1393825Y422985D01*
Y431165D01*
D02*
G37*
G36*
X1677035Y422084D02*
Y420370D01*
X1682380D01*
X1680992Y421297D01*
X1677035Y422084D01*
D02*
G37*
G36*
X1675765D02*
X1671808Y421297D01*
X1670420Y420370D01*
X1675765D01*
Y422084D01*
D02*
G37*
G36*
X1576950Y461617D02*
X1546225D01*
Y447040D01*
X1576070D01*
X1577340Y448310D01*
Y419825D01*
X1579017D01*
Y459550D01*
X1578412Y461012D01*
X1576950Y461617D01*
D02*
G37*
G36*
X1544955D02*
X1514230D01*
X1512768Y461012D01*
X1512163Y459550D01*
Y419825D01*
X1513840D01*
Y447040D01*
X1544955D01*
Y461617D01*
D02*
G37*
G36*
X1513840Y418555D02*
X1512163D01*
Y378830D01*
X1512762Y377382D01*
X1513840Y378460D01*
Y418555D01*
D02*
G37*
G36*
X1579017D02*
X1577340D01*
Y378460D01*
X1575892Y376763D01*
X1576950D01*
X1578412Y377368D01*
X1579017Y378830D01*
Y418555D01*
D02*
G37*
G36*
X1784985Y346490D02*
Y338055D01*
X1793420D01*
X1792847Y340939D01*
X1790853Y343923D01*
X1787869Y345917D01*
X1784985Y346490D01*
D02*
G37*
G36*
X1783715D02*
X1780831Y345917D01*
X1777847Y343923D01*
X1775853Y340939D01*
X1775280Y338055D01*
X1783715D01*
Y346490D01*
D02*
G37*
G36*
X1567090Y337538D02*
X1558090D01*
X1556253Y336777D01*
X1555739Y335536D01*
X1555566Y335464D01*
X1555337Y334911D01*
X1554176Y334921D01*
X1552633Y335146D01*
X1551783Y335478D01*
X1551445Y336295D01*
X1550090Y336856D01*
X1546225D01*
Y314690D01*
Y292524D01*
X1550090D01*
X1551445Y293085D01*
X1551463Y293131D01*
X1554964Y292434D01*
Y196850D01*
X1554963Y196850D01*
X1555566Y195396D01*
X1581460Y169502D01*
Y165910D01*
X1590374D01*
Y113066D01*
X1590331Y113000D01*
X1589831Y110490D01*
X1590331Y107980D01*
X1591752Y105852D01*
X1593880Y104431D01*
X1596390Y103931D01*
X1598900Y104431D01*
X1601028Y105852D01*
X1602449Y107980D01*
X1602949Y110490D01*
X1602449Y113000D01*
X1602406Y113066D01*
Y161865D01*
X1605906Y163315D01*
X1614175Y155045D01*
X1616458Y153520D01*
X1619150Y152985D01*
X1644597D01*
X1645870Y151080D01*
X1649972Y148340D01*
X1650324Y148269D01*
Y91480D01*
X1643910D01*
Y75680D01*
X1665710D01*
Y91480D01*
X1659296D01*
Y148269D01*
X1659648Y148340D01*
X1663750Y151080D01*
X1666490Y155182D01*
X1667453Y160020D01*
X1666490Y164858D01*
X1663750Y168960D01*
X1661947Y170165D01*
Y187108D01*
X1688338Y213500D01*
X1689570D01*
X1689887Y215900D01*
X1689887Y215900D01*
X1689886Y216869D01*
Y223520D01*
X1689591Y224233D01*
X1689570Y224286D01*
Y258300D01*
X1665770D01*
Y228410D01*
X1663276Y225954D01*
X1606145Y226833D01*
X1569625Y263353D01*
Y294289D01*
X1569688Y294440D01*
X1573174D01*
X1573735Y293085D01*
X1575090Y292524D01*
X1578955D01*
Y314690D01*
Y336856D01*
X1575090D01*
X1573735Y336295D01*
X1573174Y334940D01*
X1569688D01*
X1568927Y336777D01*
X1567090Y337538D01*
D02*
G37*
G36*
X1240490Y334180D02*
X1237980D01*
X1236990Y334180D01*
X1230695D01*
Y326260D01*
X1229425D01*
Y334180D01*
X1223130D01*
X1222140Y334180D01*
X1219630D01*
X1218640Y334180D01*
X1212345D01*
Y326260D01*
X1211710D01*
Y325625D01*
X1203790D01*
Y319330D01*
X1203790Y318340D01*
Y315830D01*
X1203790Y314840D01*
Y308545D01*
X1211710D01*
Y307275D01*
X1203790D01*
Y300980D01*
X1203790Y299990D01*
Y297480D01*
X1203790Y296490D01*
Y290195D01*
X1211710D01*
Y289560D01*
X1212345D01*
Y281640D01*
X1218640D01*
X1219630Y281640D01*
X1222140D01*
X1223130Y281640D01*
X1229425D01*
Y289560D01*
X1230695D01*
Y281640D01*
X1236990D01*
X1237980Y281640D01*
X1240490D01*
X1241480Y281640D01*
X1247775D01*
Y289560D01*
X1248410D01*
Y290195D01*
X1256330D01*
Y296490D01*
X1256330Y297480D01*
Y299990D01*
X1256330Y300980D01*
Y307275D01*
X1248410D01*
Y308545D01*
X1256330D01*
Y314840D01*
X1256330Y315830D01*
Y318340D01*
X1256330Y319330D01*
Y325625D01*
X1248410D01*
Y326260D01*
X1247775D01*
Y334180D01*
X1241480D01*
X1240490Y334180D01*
D02*
G37*
G36*
X1793420Y336785D02*
X1784985D01*
Y328350D01*
X1787869Y328923D01*
X1790853Y330917D01*
X1792847Y333901D01*
X1793420Y336785D01*
D02*
G37*
G36*
X1783715D02*
X1775280D01*
X1775853Y333901D01*
X1777847Y330917D01*
X1780831Y328923D01*
X1783715Y328350D01*
Y336785D01*
D02*
G37*
G36*
X1249045Y334180D02*
Y326895D01*
X1256330D01*
Y334180D01*
X1249045D01*
D02*
G37*
G36*
X1211075D02*
X1203790D01*
Y326895D01*
X1211075D01*
Y334180D01*
D02*
G37*
G36*
X1418430Y347210D02*
X1407795D01*
Y326075D01*
X1418430D01*
Y347210D01*
D02*
G37*
G36*
X1406525D02*
X1395890D01*
Y326075D01*
X1406525D01*
Y347210D01*
D02*
G37*
G36*
X1584090Y336856D02*
X1580225D01*
Y315325D01*
X1586006D01*
Y334940D01*
X1585445Y336295D01*
X1584090Y336856D01*
D02*
G37*
G36*
X1418430Y324805D02*
X1407795D01*
Y303670D01*
X1418430D01*
Y324805D01*
D02*
G37*
G36*
X1406525D02*
X1395890D01*
Y303670D01*
X1406525D01*
Y324805D01*
D02*
G37*
G36*
X1688940Y305910D02*
X1684160Y301130D01*
X1688940D01*
Y305910D01*
D02*
G37*
G36*
X1678940Y306070D02*
X1678305D01*
Y301130D01*
X1683880D01*
X1678940Y306070D01*
D02*
G37*
G36*
X1677035D02*
X1666400D01*
Y301130D01*
X1677035D01*
Y306070D01*
D02*
G37*
G36*
X1586006Y314055D02*
X1580225D01*
Y292524D01*
X1584090D01*
X1585445Y293085D01*
X1586006Y294440D01*
Y314055D01*
D02*
G37*
G36*
X1483360Y338607D02*
X1481906Y338004D01*
X1474322Y330421D01*
X1399378Y262729D01*
X1396661Y260840D01*
X1395260Y260840D01*
X1394946Y257914D01*
X1394953Y257896D01*
X1394943Y257810D01*
X1394944Y257471D01*
Y219710D01*
Y132080D01*
X1395546Y130626D01*
X1397000Y130023D01*
X1412653D01*
X1413752Y129290D01*
X1418590Y128327D01*
X1423428Y129290D01*
X1424527Y130023D01*
X1424940D01*
X1424940Y130023D01*
X1426394Y130626D01*
X1430204Y134436D01*
X1430807Y135890D01*
X1430806Y135890D01*
Y138826D01*
X1431233Y140970D01*
X1430806Y143114D01*
Y232828D01*
X1489292Y291313D01*
X1511300D01*
X1512577Y291842D01*
X1516090D01*
X1517927Y292603D01*
X1518055Y292912D01*
X1521555Y292216D01*
Y241954D01*
X1502311Y222710D01*
X1480460D01*
Y165910D01*
X1489325D01*
Y77720D01*
X1489860Y75028D01*
X1491385Y72745D01*
X1493100Y71031D01*
Y56180D01*
X1510900D01*
Y80980D01*
X1503395D01*
Y165910D01*
X1512260D01*
Y212761D01*
X1533565Y234065D01*
X1535090Y236348D01*
X1535625Y239040D01*
Y294289D01*
X1535688Y294440D01*
X1539174D01*
X1539735Y293085D01*
X1541090Y292524D01*
X1544955D01*
Y314690D01*
Y336856D01*
X1541854D01*
X1540510Y335280D01*
Y336616D01*
X1539735Y336295D01*
X1539174Y334940D01*
X1535688D01*
X1534927Y336777D01*
X1533090Y337538D01*
X1524090D01*
X1522253Y336777D01*
X1521921Y335976D01*
X1518259D01*
X1517927Y336777D01*
X1516896Y337204D01*
X1516564Y338004D01*
X1515110Y338606D01*
X1483360D01*
X1483360Y338607D01*
D02*
G37*
G36*
X1256330Y288925D02*
X1249045D01*
Y281640D01*
X1256330D01*
Y288925D01*
D02*
G37*
G36*
X1211075D02*
X1203790D01*
Y281640D01*
X1211075D01*
Y288925D01*
D02*
G37*
G36*
X1101025Y246180D02*
X1093640D01*
Y242545D01*
X1101025D01*
Y246180D01*
D02*
G37*
G36*
Y241275D02*
X1093640D01*
Y237640D01*
X1101025D01*
Y241275D01*
D02*
G37*
G36*
X934765Y215815D02*
X932943D01*
Y214200D01*
X933663Y212463D01*
X934765Y212006D01*
Y215815D01*
D02*
G37*
G36*
X1039510Y216925D02*
X1031875D01*
Y210290D01*
X1039510D01*
Y216925D01*
D02*
G37*
G36*
X1030605D02*
X1022970D01*
Y210290D01*
X1030605D01*
Y216925D01*
D02*
G37*
G36*
X1182275Y219080D02*
X1177140D01*
Y208445D01*
X1182275D01*
Y219080D01*
D02*
G37*
G36*
Y207175D02*
X1177140D01*
Y196540D01*
X1182275D01*
Y207175D01*
D02*
G37*
G36*
X1794000Y322070D02*
X1774700D01*
Y302770D01*
X1777315D01*
Y208280D01*
X1776835Y207695D01*
X1753870D01*
X1751178Y207160D01*
X1748895Y205635D01*
X1714207Y170946D01*
X1711960Y171393D01*
X1707122Y170431D01*
X1703020Y167690D01*
X1700280Y163588D01*
X1699317Y158750D01*
X1700280Y153912D01*
X1703020Y149810D01*
X1707122Y147070D01*
X1711960Y146107D01*
X1716798Y147070D01*
X1720900Y149810D01*
X1723640Y153912D01*
X1724603Y158750D01*
X1724156Y160997D01*
X1756784Y193625D01*
X1782320D01*
Y191010D01*
X1801620D01*
Y210310D01*
X1792269D01*
X1791385Y211194D01*
Y302770D01*
X1794000D01*
Y322070D01*
D02*
G37*
G36*
X1189210Y219710D02*
X1185971Y219080D01*
X1183545D01*
Y207810D01*
Y196540D01*
X1185971D01*
X1189210Y195910D01*
X1189524D01*
X1191901Y193533D01*
X1191702Y190058D01*
X1191702Y190058D01*
X1190281Y187930D01*
X1189781Y185420D01*
X1190281Y182910D01*
X1191702Y180782D01*
X1193830Y179361D01*
X1196340Y178861D01*
X1198850Y179361D01*
X1200978Y180782D01*
X1202399Y182910D01*
X1202899Y185420D01*
X1202399Y187930D01*
X1200978Y190058D01*
X1199951Y190743D01*
Y195910D01*
X1303610D01*
Y219710D01*
X1191919D01*
X1189846Y219710D01*
X1189210D01*
D02*
G37*
G36*
X1791970Y185499D02*
X1788205Y184750D01*
X1785013Y182617D01*
X1782880Y179425D01*
X1782131Y175660D01*
X1782880Y171895D01*
X1785013Y168703D01*
X1788205Y166570D01*
X1791970Y165821D01*
X1795735Y166570D01*
X1798927Y168703D01*
X1801060Y171895D01*
X1801809Y175660D01*
X1801060Y179425D01*
X1798927Y182617D01*
X1795735Y184750D01*
X1791970Y185499D01*
D02*
G37*
G36*
X941635Y170210D02*
X934500D01*
Y164325D01*
X941635D01*
Y170210D01*
D02*
G37*
G36*
X926640Y170670D02*
X919005D01*
Y164035D01*
X926640D01*
Y170670D01*
D02*
G37*
G36*
X1301060Y150510D02*
X1295675D01*
Y142875D01*
X1301060D01*
Y150510D01*
D02*
G37*
G36*
X1294405D02*
X1289020D01*
Y142875D01*
X1294405D01*
Y150510D01*
D02*
G37*
G36*
X964635Y145555D02*
X957500D01*
Y139670D01*
X964635D01*
Y145555D01*
D02*
G37*
G36*
X990140Y145765D02*
X982505D01*
Y139130D01*
X990140D01*
Y145765D01*
D02*
G37*
G36*
X1301060Y141605D02*
X1295675D01*
Y133970D01*
X1301060D01*
Y141605D01*
D02*
G37*
G36*
X1294405D02*
X1289020D01*
Y133970D01*
X1294405D01*
Y141605D01*
D02*
G37*
G36*
X1621670Y88550D02*
X1613535D01*
Y81915D01*
X1621670D01*
Y88550D01*
D02*
G37*
G36*
X1612265D02*
X1604130D01*
Y81915D01*
X1612265D01*
Y88550D01*
D02*
G37*
G36*
X1621670Y80645D02*
X1613535D01*
Y74010D01*
X1621670D01*
Y80645D01*
D02*
G37*
G36*
X1612265D02*
X1604130D01*
Y74010D01*
X1612265D01*
Y80645D01*
D02*
G37*
G36*
X1554270Y80350D02*
X1546635D01*
Y69215D01*
X1554270D01*
Y80350D01*
D02*
G37*
G36*
X1545365D02*
X1537730D01*
Y69215D01*
X1545365D01*
Y80350D01*
D02*
G37*
G36*
X1071880Y86569D02*
X1069370Y86069D01*
X1067242Y84648D01*
X1065821Y82520D01*
X1065321Y80010D01*
X1065821Y77500D01*
X1066572Y76375D01*
X1058870Y68672D01*
X1058656Y68761D01*
X1056945Y67050D01*
X1036350D01*
Y47250D01*
X1062150D01*
Y62147D01*
X1073375Y73372D01*
X1073665Y73806D01*
X1074390Y73951D01*
X1076518Y75372D01*
X1077939Y77500D01*
X1078439Y80010D01*
X1077939Y82520D01*
X1076518Y84648D01*
X1074390Y86069D01*
X1071880Y86569D01*
D02*
G37*
G36*
X1341630Y71500D02*
X1330095D01*
Y62865D01*
X1341630D01*
Y71500D01*
D02*
G37*
G36*
X1328825D02*
X1317290D01*
Y62865D01*
X1328825D01*
Y71500D01*
D02*
G37*
G36*
X969520Y66420D02*
X957985D01*
Y57785D01*
X969520D01*
Y66420D01*
D02*
G37*
G36*
X956715D02*
X945180D01*
Y57785D01*
X956715D01*
Y66420D01*
D02*
G37*
G36*
X1554270Y67945D02*
X1546635D01*
Y56810D01*
X1554270D01*
Y67945D01*
D02*
G37*
G36*
X1545365D02*
X1537730D01*
Y56810D01*
X1545365D01*
Y67945D01*
D02*
G37*
G36*
X1341630Y61595D02*
X1330095D01*
Y52960D01*
X1341630D01*
Y61595D01*
D02*
G37*
G36*
X1328825D02*
X1317290D01*
Y52960D01*
X1328825D01*
Y61595D01*
D02*
G37*
G36*
X969520Y56515D02*
X957985D01*
Y47880D01*
X969520D01*
Y56515D01*
D02*
G37*
G36*
X956715D02*
X945180D01*
Y47880D01*
X956715D01*
Y56515D01*
D02*
G37*
G36*
X1622300Y62180D02*
X1603500D01*
Y46380D01*
X1622300D01*
Y49444D01*
X1643910D01*
Y45680D01*
X1665710D01*
Y61480D01*
X1643910D01*
Y58416D01*
X1622300D01*
Y62180D01*
D02*
G37*
%LPD*%
G36*
X1567180Y318770D02*
Y262890D01*
X1605280Y224790D01*
X1687830Y223520D01*
Y215900D01*
X1659890Y187960D01*
Y163830D01*
X1620520D01*
X1611630Y172720D01*
Y218440D01*
X1609090Y220980D01*
Y168910D01*
X1584960D01*
X1557020Y196850D01*
Y334010D01*
X1567180Y318770D01*
D02*
G37*
G36*
X1515110Y294640D02*
X1513840Y295910D01*
X1511300D01*
Y293370D01*
X1488440D01*
X1428750Y233680D01*
Y135890D01*
X1424940Y132080D01*
X1397000D01*
Y219710D01*
Y257810D01*
X1475740Y328930D01*
X1483360Y336550D01*
X1515110D01*
Y294640D01*
D02*
G37*
D13*
X1107440Y455930D02*
X1130300Y433070D01*
Y383540D02*
Y433070D01*
X1134110Y251460D02*
Y314960D01*
X1195975Y185785D02*
Y207445D01*
Y185785D02*
X1196340Y185420D01*
X1195610Y207810D02*
X1195975Y207445D01*
D15*
X957900Y246200D02*
D03*
D16*
X942270Y163690D02*
D03*
X965270D02*
D03*
Y146190D02*
D03*
X942270D02*
D03*
D17*
X957350Y57150D02*
D03*
X1329460Y62230D02*
D03*
D18*
X1049250Y57150D02*
D03*
X1421360Y62230D02*
D03*
D19*
X928150Y268700D02*
D03*
Y263700D02*
D03*
Y258700D02*
D03*
Y253700D02*
D03*
Y248700D02*
D03*
Y243700D02*
D03*
Y238700D02*
D03*
Y233700D02*
D03*
Y228700D02*
D03*
Y223700D02*
D03*
X987650D02*
D03*
Y228700D02*
D03*
Y233700D02*
D03*
Y238700D02*
D03*
Y243700D02*
D03*
Y248700D02*
D03*
Y253700D02*
D03*
Y258700D02*
D03*
Y263700D02*
D03*
Y268700D02*
D03*
D20*
X935400Y216450D02*
D03*
X940400D02*
D03*
X945400D02*
D03*
X950400D02*
D03*
X955400D02*
D03*
X960400D02*
D03*
X965400D02*
D03*
X970400D02*
D03*
X975400D02*
D03*
X980400D02*
D03*
Y275950D02*
D03*
X975400D02*
D03*
X970400D02*
D03*
X965400D02*
D03*
X960400D02*
D03*
X955400D02*
D03*
X950400D02*
D03*
X945400D02*
D03*
X940400D02*
D03*
X935400D02*
D03*
D21*
X759300Y412750D02*
D03*
X739300D02*
D03*
X1084740Y416560D02*
D03*
X1104740D02*
D03*
D22*
X811000Y370000D02*
D03*
X829000D02*
D03*
D23*
X690960Y210920D02*
D03*
X692190Y295810D02*
D03*
X690960Y228420D02*
D03*
X692190Y278310D02*
D03*
D24*
X652780Y300735D02*
D03*
Y292735D02*
D03*
D25*
Y224045D02*
D03*
Y233045D02*
D03*
D26*
X1120140Y222120D02*
D03*
Y237620D02*
D03*
D27*
X1101660Y222910D02*
D03*
X1077660Y232410D02*
D03*
X1101660Y241910D02*
D03*
D28*
X1325060Y370210D02*
D03*
Y294010D02*
D03*
Y281310D02*
D03*
Y268610D02*
D03*
X1155060Y230510D02*
D03*
X1325060Y217810D02*
D03*
Y382910D02*
D03*
Y357510D02*
D03*
Y344810D02*
D03*
Y332110D02*
D03*
Y319410D02*
D03*
Y306710D02*
D03*
Y255910D02*
D03*
Y243210D02*
D03*
Y230510D02*
D03*
X1155060Y217810D02*
D03*
Y243210D02*
D03*
Y255910D02*
D03*
Y268610D02*
D03*
Y281310D02*
D03*
Y294010D02*
D03*
Y306710D02*
D03*
Y319410D02*
D03*
Y332110D02*
D03*
Y344810D02*
D03*
Y357510D02*
D03*
Y370210D02*
D03*
Y382910D02*
D03*
D29*
X880519Y234950D02*
D03*
Y262890D02*
D03*
X867001Y234950D02*
D03*
Y262890D02*
D03*
D30*
X1195610Y207810D02*
D03*
X1297210D02*
D03*
X1284510D02*
D03*
X1271810D02*
D03*
X1259110D02*
D03*
X1246410D02*
D03*
X1233710D02*
D03*
X1221010D02*
D03*
X1208310D02*
D03*
X1182910D02*
D03*
D31*
X1654810Y53580D02*
D03*
Y83580D02*
D03*
D32*
X1612900Y54280D02*
D03*
Y81280D02*
D03*
D33*
X1290230Y86360D02*
D03*
X1247230D02*
D03*
D34*
X1502000Y68580D02*
D03*
X1546000D02*
D03*
D35*
X1496360Y194310D02*
D03*
X1597360D02*
D03*
D36*
X1528590Y314690D02*
D03*
X1579590D02*
D03*
X1562590D02*
D03*
X1545590D02*
D03*
X1511590D02*
D03*
D37*
X1313540Y142240D02*
D03*
X1295040D02*
D03*
D38*
X967740Y375040D02*
D03*
X792400Y234600D02*
D03*
X773350Y234600D02*
D03*
X753070D02*
D03*
X773350Y217600D02*
D03*
X753070D02*
D03*
X732790D02*
D03*
X712510D02*
D03*
Y286590D02*
D03*
X732790D02*
D03*
X753070D02*
D03*
X773350D02*
D03*
X753070Y269590D02*
D03*
X773350D02*
D03*
X792400Y269590D02*
D03*
X843320Y338700D02*
D03*
Y321700D02*
D03*
X887770Y314570D02*
D03*
Y297570D02*
D03*
X967740Y392040D02*
D03*
X866180Y315840D02*
D03*
Y298840D02*
D03*
X912420Y336870D02*
D03*
Y319870D02*
D03*
X1031240Y234560D02*
D03*
Y217560D02*
D03*
X981870Y163400D02*
D03*
Y146400D02*
D03*
X918370Y146400D02*
D03*
Y163400D02*
D03*
X712510Y234600D02*
D03*
Y269590D02*
D03*
X732790Y234600D02*
D03*
Y269590D02*
D03*
X792400Y217600D02*
D03*
Y286590D02*
D03*
D39*
X817000Y111920D02*
D03*
X887340Y210820D02*
D03*
X870340D02*
D03*
X926710Y297180D02*
D03*
X909710D02*
D03*
X834000Y111920D02*
D03*
X856820Y160060D02*
D03*
X839820D02*
D03*
X887340Y190500D02*
D03*
X870340D02*
D03*
D40*
X815340Y143960D02*
D03*
Y163460D02*
D03*
D41*
X1545590Y419190D02*
D03*
D42*
X1084580Y318930D02*
D03*
Y338930D02*
D03*
D43*
X857570Y134740D02*
D03*
X839070D02*
D03*
D44*
X1248410Y289560D02*
D03*
X1230060D02*
D03*
X1211710D02*
D03*
X1248410Y307910D02*
D03*
X1230060D02*
D03*
X1211710D02*
D03*
X1248410Y326260D02*
D03*
X1230060D02*
D03*
X1211710D02*
D03*
D45*
X849630Y189120D02*
D03*
Y207120D02*
D03*
D46*
X891650Y342900D02*
D03*
X873650D02*
D03*
D47*
X1115060Y336988D02*
D03*
Y320872D02*
D03*
D48*
X1113790Y369210D02*
D03*
Y387710D02*
D03*
D49*
X1083310Y370960D02*
D03*
Y385960D02*
D03*
D50*
X1677670Y322900D02*
D03*
Y235900D02*
D03*
X1407160Y238440D02*
D03*
Y325440D02*
D03*
D73*
X1107440Y455930D02*
D03*
X762000Y452120D02*
D03*
D74*
X1082040Y455930D02*
D03*
X736600Y452120D02*
D03*
D76*
X1176020Y111760D02*
D03*
D79*
X1126020D02*
D03*
D80*
X1791970Y175660D02*
D03*
X1784350Y337420D02*
D03*
D81*
X1791970Y200660D02*
D03*
X1784350Y312420D02*
D03*
D85*
X1270000Y364490D02*
X1289050D01*
X965270Y163690D02*
X981580D01*
X981870Y163400D01*
X959000Y169960D02*
Y189270D01*
X964020Y163690D02*
X965270D01*
X960270Y167440D02*
X964020Y163690D01*
X960270Y167440D02*
Y168690D01*
X959000Y169960D02*
X960270Y168690D01*
X918370Y146400D02*
X942060D01*
X942270Y146190D01*
X950400Y186751D02*
X952170Y184981D01*
X950400Y186751D02*
Y216450D01*
X952170Y154840D02*
Y184981D01*
X943520Y146190D02*
X952170Y154840D01*
X942270Y146190D02*
X943520D01*
X955400Y192870D02*
Y214700D01*
Y192870D02*
X959000Y189270D01*
X1049250Y57150D02*
X1052250D01*
X1070923Y75823D01*
Y79053D01*
X1071880Y80010D01*
X775970Y363220D02*
Y438150D01*
X762000Y452120D02*
X775970Y438150D01*
X736600Y452120D02*
X739300Y449420D01*
Y412750D02*
Y449420D01*
X1082040Y455930D02*
X1084740Y453230D01*
Y416560D02*
Y453230D01*
X1579590Y314690D02*
X1588500D01*
X1588770Y314960D01*
X870340Y190500D02*
Y210820D01*
X840740Y170180D02*
X843280Y172720D01*
X839820Y160060D02*
X840740Y160980D01*
Y170180D01*
X847090Y209620D02*
Y218440D01*
X851387Y179070D02*
X885583D01*
X849630Y180827D02*
Y189120D01*
X887340Y180827D02*
Y190500D01*
X874620Y169770D02*
X875030Y170180D01*
X866530Y169770D02*
X874620D01*
X885583Y179070D02*
X887340Y180827D01*
X849630D02*
X851387Y179070D01*
X887340Y190500D02*
Y210820D01*
X811000Y383010D02*
X815653Y387663D01*
X811000Y370000D02*
Y383010D01*
X939800Y387799D02*
Y388620D01*
X822003Y387663D02*
X822960Y388620D01*
X815653Y387663D02*
X822003D01*
X939800Y387799D02*
X945400Y382199D01*
Y276950D02*
Y382199D01*
X690960Y210920D02*
X692230Y209650D01*
X1118140Y222120D02*
X1120140D01*
X1101660Y222910D02*
X1117350D01*
X988650Y258700D02*
X1033837D01*
X1328060Y373210D02*
X1339680D01*
X1325060Y370210D02*
X1328060Y373210D01*
X1339680D02*
X1347470Y381000D01*
X1033837Y258700D02*
X1034727Y257810D01*
X1052830D01*
X1325060Y294010D02*
X1341677D01*
X1343577Y295910D01*
X1344930D01*
X988650Y263700D02*
X1026924D01*
X1031193Y267970D02*
X1069340D01*
X1026924Y263700D02*
X1031193Y267970D01*
X1325690Y281940D02*
X1343660D01*
X1325060Y281310D02*
X1325690Y281940D01*
X990900Y268700D02*
X997790Y275590D01*
X988650Y268700D02*
X990900D01*
X997790Y275590D02*
X1065225D01*
X1074115Y284480D01*
X1089660D01*
X988650Y253700D02*
X1020110D01*
X1325690Y269240D02*
X1346200D01*
X1325060Y268610D02*
X1325690Y269240D01*
X1020110Y253700D02*
X1024910Y248900D01*
X1064452D01*
X1083522Y267970D01*
X1084580D01*
X884791Y240231D02*
X891741D01*
X880519Y235959D02*
X884791Y240231D01*
X880519Y234950D02*
Y235959D01*
X891741Y240231D02*
X895350Y243840D01*
X927050Y243800D02*
X927150Y243700D01*
X925080Y243840D02*
X925120Y243800D01*
X924400Y243840D02*
X925080D01*
X925120Y243800D02*
X927050D01*
X923077Y243690D02*
X924400D01*
X895350Y243840D02*
X923077D01*
X924400Y243690D02*
Y243840D01*
X880519Y262890D02*
X900430D01*
X909320Y254000D01*
X924400D01*
X924700Y253700D01*
X927150D01*
X1077660Y210120D02*
X1176020Y111760D01*
X1077660Y210120D02*
Y232410D01*
X950300Y277050D02*
X950400Y276950D01*
X967740Y364490D02*
Y375040D01*
X950300Y347050D02*
X967740Y364490D01*
X950300Y277050D02*
Y347050D01*
X815340Y163460D02*
Y187960D01*
Y222240D01*
X1073150Y246380D02*
X1073224D01*
X1079574Y252730D01*
X1082345D01*
X1115060Y285445D01*
Y320872D01*
X775970Y363220D02*
X783590Y355600D01*
X816350D01*
X829000Y368250D01*
Y370000D01*
X970280Y179070D02*
X1007110D01*
X965400Y183950D02*
X970280Y179070D01*
X858808Y342900D02*
X873650D01*
X843320Y338700D02*
X854608D01*
X858808Y342900D01*
X935400Y276950D02*
Y287490D01*
X926710Y296180D02*
Y297180D01*
Y296180D02*
X935400Y287490D01*
X1030360Y233680D02*
X1031240Y234560D01*
X1016000Y233680D02*
X1030360D01*
X988660Y233690D02*
X1015990D01*
X1016000Y233680D01*
X988650Y233700D02*
X988660Y233690D01*
X960120Y243980D02*
X963400Y240700D01*
X960120Y234950D02*
Y243980D01*
X957900Y246200D02*
X960120Y243980D01*
X962900Y229700D02*
X963400D01*
X960400Y215450D02*
Y227200D01*
X962900Y229700D01*
X963400Y240700D02*
X970400Y233700D01*
Y215450D02*
Y233700D01*
X965400Y183950D02*
Y215450D01*
X887770Y323890D02*
X892810Y328930D01*
X892230Y329510D02*
X892810Y328930D01*
X927150Y258700D02*
X945400D01*
X952400Y240700D02*
X957900Y246200D01*
X952400Y251700D02*
X957900Y246200D01*
X945400Y258700D02*
X952400Y251700D01*
X915763Y238790D02*
X927150D01*
Y238700D02*
X950400D01*
X972900Y229700D02*
X974400D01*
X928370Y206170D02*
X935400Y213200D01*
Y215450D01*
X928370Y201930D02*
Y206170D01*
X825887Y322267D02*
X842320Y338700D01*
X823917Y322267D02*
X825887D01*
X842320Y338700D02*
X843320D01*
X822960Y321310D02*
X823917Y322267D01*
X849590Y207120D02*
X849630D01*
X847090Y209620D02*
X849590Y207120D01*
X857690Y134620D02*
X875030D01*
X857570Y134740D02*
X857690Y134620D01*
X856820Y161060D02*
X861320Y165560D01*
X862320D02*
X866530Y169770D01*
X856820Y160060D02*
Y161060D01*
X861320Y165560D02*
X862320D01*
X935670Y336870D02*
X940400Y332140D01*
Y276950D02*
Y332140D01*
X912420Y336870D02*
X935670D01*
X927100Y356870D02*
Y367030D01*
X924130Y370000D02*
X927100Y367030D01*
X829000Y370000D02*
X924130D01*
X926710Y327270D02*
X927100Y327660D01*
X926710Y297180D02*
Y327270D01*
X960120Y160900D02*
X961120D01*
X924400Y228730D02*
X924430Y228700D01*
X927150D01*
X926770Y259080D02*
X927150Y258700D01*
X918210Y259080D02*
X926770D01*
X914400Y262890D02*
X918210Y259080D01*
X914400Y262890D02*
Y274320D01*
X909320Y279400D02*
Y296790D01*
X909710Y297180D01*
X909320Y279400D02*
X914400Y274320D01*
X920020Y268700D01*
X927150D01*
X899243Y254000D02*
X904503Y248740D01*
X897890Y254000D02*
X899243D01*
X904503Y248740D02*
X927110D01*
X867450Y314570D02*
X887770D01*
X866180Y315840D02*
X867450Y314570D01*
X911860Y337430D02*
X912420Y336870D01*
X911860Y337430D02*
Y351790D01*
X909320Y354330D02*
X911860Y351790D01*
X876300Y354330D02*
X909320D01*
X873760Y351790D02*
X876300Y354330D01*
X873760Y343010D02*
Y351790D01*
X873650Y342900D02*
X873760Y343010D01*
X892230Y329510D02*
Y342320D01*
X891650Y342900D02*
X892230Y342320D01*
X887770Y314570D02*
Y323890D01*
X927110Y248740D02*
X927150Y248700D01*
X895350Y236220D02*
X897890Y238760D01*
X915733D01*
X913180Y184963D02*
Y219386D01*
X918210Y217010D02*
X924900Y223700D01*
X927150D01*
X913180Y219386D02*
X922524Y228730D01*
X900407Y216320D02*
X917847Y233760D01*
X918210Y182880D02*
Y217010D01*
X922524Y228730D02*
X924400D01*
X915733Y238760D02*
X915763Y238790D01*
X895350Y226430D02*
Y236220D01*
X917847Y233760D02*
X927090D01*
X891840Y216320D02*
X900407D01*
X890270Y221350D02*
X895350Y226430D01*
X879870Y221350D02*
X890270D01*
X839070Y136740D02*
X849650Y147320D01*
X870340Y211820D02*
X879870Y221350D01*
X839070Y134740D02*
Y136740D01*
X849650Y147320D02*
X882650D01*
X870340Y210820D02*
Y211820D01*
X927090Y233760D02*
X927150Y233700D01*
X887340Y211820D02*
X891840Y216320D01*
X887340Y210820D02*
Y211820D01*
X882650Y147320D02*
X918210Y182880D01*
X856820Y160060D02*
X888277D01*
X913180Y184963D01*
D86*
X1289050Y364490D02*
X1303020D01*
X1303607Y370187D02*
X1314830Y381410D01*
X1283531Y345001D02*
X1303020Y364490D01*
X1303607Y365077D01*
X1230451Y345001D02*
X1283531D01*
X1303607Y365077D02*
Y370187D01*
X1211710Y326260D02*
X1230451Y345001D01*
X1314830Y381410D02*
X1323560D01*
X1083310Y338930D02*
X1083945Y339565D01*
X1114290Y369710D02*
X1154560D01*
X1155060Y370210D01*
X1117350Y222910D02*
X1118140Y222120D01*
X1120140Y237620D02*
X1135890D01*
X1141500Y232010D01*
X1153560D01*
X1155060Y230510D01*
X1084740Y416560D02*
X1085125Y416945D01*
X1176020Y111760D02*
X1260330D01*
X1285730Y86360D01*
X1290230D01*
X1313540Y144490D02*
X1325060Y156010D01*
X1313540Y142240D02*
Y144490D01*
X1325060Y156010D02*
Y217810D01*
X1313540Y142240D02*
X1338350D01*
X1418360Y62230D01*
X1421360D01*
X1323560Y381410D02*
X1325060Y382910D01*
X1156560Y381410D02*
X1165290D01*
X1155060Y382910D02*
X1156560Y381410D01*
X1187575Y350395D02*
X1211710Y326260D01*
X1187575Y350395D02*
Y359125D01*
X1165290Y381410D02*
X1187575Y359125D01*
X1335290Y346310D02*
X1419860Y430880D01*
X1345570Y332110D02*
X1445260Y431800D01*
X1419860Y430880D02*
Y431800D01*
X1325060Y344810D02*
X1326560Y346310D01*
X1335290D01*
X1325060Y332110D02*
X1345570D01*
X1153560Y356010D02*
X1155060Y357510D01*
X1144830Y356010D02*
X1153560D01*
X1182910Y207810D02*
Y235210D01*
X1211710Y264010D01*
Y289560D01*
X1133116Y344296D02*
X1144830Y356010D01*
X1112915Y370085D02*
X1113790Y369210D01*
X1133116Y334310D02*
Y344296D01*
X1113790Y369210D02*
X1114290Y369710D01*
X1115060Y320872D02*
X1118583Y324395D01*
X1123201D02*
X1133116Y334310D01*
X1118583Y324395D02*
X1123201D01*
X1015271Y307340D02*
X1015816Y306795D01*
X1014730Y307340D02*
X1015271D01*
X1083945Y370325D02*
X1084185Y370085D01*
X1085551Y319901D02*
X1114089D01*
X1115060Y320872D01*
D87*
X652780Y292925D02*
Y299275D01*
Y292925D02*
Y300545D01*
X652781Y224099D02*
Y232989D01*
X652780Y224100D02*
Y232990D01*
Y233100D02*
Y291745D01*
Y299275D02*
Y299720D01*
D88*
X652781Y299911D02*
Y445250D01*
X673101Y41390D02*
Y252210D01*
X665481Y33770D02*
X673101Y41390D01*
X662941Y262370D02*
X673101Y252210D01*
Y266180D02*
Y457950D01*
X657861Y473190D02*
X673101Y457950D01*
X652780Y299910D02*
X652781Y299911D01*
X683340Y177270D02*
X692230Y186160D01*
X683340Y36391D02*
Y177270D01*
X662941Y49010D02*
Y248400D01*
X670561Y23610D02*
X683340Y36391D01*
X657861Y43930D02*
X662941Y49010D01*
X142241Y452870D02*
X645161D01*
X134621Y445250D02*
X142241Y452870D01*
X129541Y473190D02*
X657861D01*
X645161Y452870D02*
X652781Y445250D01*
X114301Y262370D02*
Y457950D01*
X134621Y262370D02*
Y445250D01*
X114301Y457950D02*
X129541Y473190D01*
X124461Y51550D02*
X132081Y43930D01*
X657861D01*
X119381Y23610D02*
X670561D01*
X104141Y38850D02*
Y242050D01*
X124461Y51550D02*
Y242050D01*
X104141Y38850D02*
X119381Y23610D01*
X662941Y262370D02*
Y450330D01*
X650241Y463030D02*
X662941Y450330D01*
X683340Y330770D02*
X692230Y321880D01*
X683340Y330770D02*
Y465491D01*
X124461Y257290D02*
X134621Y247130D01*
X104141Y257290D02*
X114301Y247130D01*
X124461Y452870D02*
X134621Y463030D01*
X650241D01*
X124461Y257290D02*
Y452870D01*
X114301Y43930D02*
Y247130D01*
X104141Y463030D02*
X124461Y483350D01*
X665481D01*
X683340Y465491D01*
X134621Y61710D02*
Y247130D01*
X104141Y257290D02*
Y463030D01*
X134621Y61710D02*
X142241Y54090D01*
X114301Y43930D02*
X124461Y33770D01*
X142241Y54090D02*
X647701D01*
X124461Y33770D02*
X665481D01*
X647701Y54090D02*
X652781Y59170D01*
Y224099D01*
X652780Y224100D02*
X652781Y224099D01*
D89*
X706120Y252730D02*
X718820D01*
X732250D02*
X732790Y253270D01*
X767080D02*
X815340D01*
X718820Y252730D02*
X732250D01*
X750570Y253270D02*
X767080D01*
X732790D02*
X750570D01*
X692540Y253000D02*
X705850D01*
X692270Y253270D02*
X692540Y253000D01*
X705850D02*
X706120Y252730D01*
X732790Y286590D02*
X753070D01*
X773350D01*
X815340Y143960D02*
X817000Y142300D01*
Y111920D02*
Y142300D01*
X712510Y217600D02*
X732790D01*
X753070D01*
X773350D01*
X712510Y286590D02*
X732790D01*
X839070Y117990D02*
Y134740D01*
X834000Y111920D02*
Y112920D01*
X839070Y117990D01*
D90*
X718807Y252743D02*
X718820Y252730D01*
X718807Y252743D02*
Y264293D01*
X712510Y269590D02*
X713510D01*
X718807Y252717D02*
X718820Y252730D01*
X713510Y234600D02*
X718807Y239897D01*
Y252717D01*
X712510Y234600D02*
X713510D01*
Y269590D02*
X718807Y264293D01*
X864461Y232410D02*
X864720Y232669D01*
X827134Y232410D02*
X864461D01*
X864720Y232669D02*
X865729D01*
X815340Y222240D02*
X816964D01*
X865729Y232669D02*
X867001Y233941D01*
X816964Y222240D02*
X827134Y232410D01*
X692230Y185410D02*
Y209650D01*
X692190Y295810D02*
Y321090D01*
X753070Y234600D02*
X773350D01*
X773350Y234600D01*
X792400D01*
X813716Y222240D02*
X815340D01*
X802856Y233100D02*
X813716Y222240D01*
X792400Y234600D02*
X793900Y233100D01*
X802856D01*
X867001Y233941D02*
Y234950D01*
X704831Y219100D02*
X711010D01*
X700861Y223070D02*
X704831Y219100D01*
X697810Y223070D02*
X700861D01*
X692460Y228420D02*
X697810Y223070D01*
X690960Y228420D02*
X692460D01*
X711010Y219100D02*
X712510Y217600D01*
X711010Y285090D02*
X712510Y286590D01*
X693690Y278310D02*
X699040Y283660D01*
X692190Y278310D02*
X693690D01*
X703521Y285090D02*
X711010D01*
X702091Y283660D02*
X703521Y285090D01*
X699040Y283660D02*
X702091D01*
X753070Y269590D02*
X773350D01*
X773350Y269590D01*
X792400D01*
X813716Y284300D02*
X815340D01*
X800506Y271090D02*
X813716Y284300D01*
X792400Y269590D02*
X793900Y271090D01*
X800506D01*
X816964Y284300D02*
X829484Y271780D01*
X815340Y284300D02*
X816964D01*
X829484Y271780D02*
X858111D01*
X864720Y265171D02*
X865729D01*
X867001Y263899D01*
Y262890D02*
Y263899D01*
X858111Y271780D02*
X864720Y265171D01*
X732790Y253270D02*
Y269590D01*
Y234600D02*
Y253270D01*
D91*
X692230Y297351D02*
Y321880D01*
X692189Y297311D02*
X692230Y297351D01*
X690960Y187430D02*
X692230Y186160D01*
X690960Y187430D02*
Y210920D01*
D92*
X1613250Y53930D02*
X1654460D01*
X1654810Y83580D02*
Y160020D01*
D93*
X1612900Y54280D02*
X1613250Y53930D01*
X1654460D02*
X1654810Y53580D01*
X1496360Y77720D02*
Y194310D01*
Y77720D02*
X1502000Y72080D01*
Y68580D02*
Y72080D01*
X1496360Y194310D02*
Y206810D01*
X1528590Y239040D01*
Y314690D01*
X1652705Y162125D02*
Y169903D01*
X1652270Y170338D02*
X1652705Y169903D01*
X1652270Y170338D02*
Y200000D01*
X1677670Y225400D01*
X1652705Y162125D02*
X1654810Y160020D01*
X1677035Y323535D02*
X1677670Y322900D01*
Y225400D02*
Y235900D01*
X1562590Y241580D02*
Y314690D01*
X1472910D02*
X1511590D01*
X1407160Y248940D02*
X1472910Y314690D01*
X1597360Y181810D02*
X1619150Y160020D01*
X1654810D01*
X1711960Y158750D02*
X1753870Y200660D01*
X1676400Y410210D02*
X1677035Y409575D01*
Y323535D02*
Y409575D01*
X1545590Y314690D02*
Y419190D01*
X1597360Y194310D02*
Y206810D01*
X1562590Y241580D02*
X1597360Y206810D01*
X1407160Y238440D02*
Y248940D01*
X1597360Y181810D02*
Y194310D01*
X1418590Y140970D02*
Y143947D01*
X1407160Y155377D02*
X1418590Y143947D01*
X1407160Y155377D02*
Y238440D01*
X1248410Y289560D02*
Y307910D01*
X1230060Y289560D02*
X1248410D01*
X1230060Y326260D02*
X1248410D01*
Y307910D02*
Y326260D01*
X1230060Y307910D02*
X1248410D01*
X1211710Y326260D02*
X1230060D01*
X1211710Y289560D02*
Y307910D01*
X1230060D01*
X1753870Y200660D02*
X1791970D01*
X1784350Y208280D02*
X1791970Y200660D01*
X1784350Y208280D02*
Y312420D01*
D94*
X1102668Y135112D02*
X1126020Y111760D01*
X1051068Y135112D02*
X1102668D01*
X1046320Y338930D02*
X1083310D01*
X1014730Y307340D02*
X1046320Y338930D01*
X1083310Y370960D02*
X1083945Y370325D01*
X1033900Y370960D02*
X1083310D01*
X1031240Y368300D02*
X1033900Y370960D01*
X1596390Y110490D02*
Y193340D01*
X1151420Y86360D02*
X1247230D01*
Y61050D02*
Y86360D01*
X1247140Y60960D02*
X1247230Y61050D01*
X1007110Y179070D02*
X1051068Y135112D01*
X1083945Y339565D02*
Y370325D01*
X1084185Y370085D02*
X1112915D01*
X1126020Y111760D02*
X1151420Y86360D01*
D95*
X1812290Y59690D02*
D03*
X1809750Y447040D02*
D03*
X54610Y452120D02*
D03*
Y55880D02*
D03*
D96*
X692230Y185410D02*
D03*
Y321130D02*
D03*
X815340Y222240D02*
D03*
Y187960D02*
D03*
Y284300D02*
D03*
X692270Y253270D02*
D03*
X815340D02*
D03*
X1394460Y431800D02*
D03*
X1419860D02*
D03*
D97*
X1676400Y410210D02*
D03*
X1711960Y158750D02*
D03*
X1654810Y160020D02*
D03*
X1418590Y140970D02*
D03*
D98*
X1445260Y431800D02*
D03*
D99*
X1220470Y35560D02*
D03*
X1485900Y427990D02*
D03*
X1365250Y176530D02*
D03*
X1817370Y255270D02*
D03*
X1148080Y52070D02*
D03*
X1475740Y34290D02*
D03*
X1455420Y181610D02*
D03*
X1617980Y416560D02*
D03*
X1736090Y396240D02*
D03*
X1242060Y140970D02*
D03*
X1720850Y83820D02*
D03*
X1460500Y363220D02*
D03*
X1270000Y364490D02*
D03*
X1289050D02*
D03*
X1303020D02*
D03*
X1189990D02*
D03*
X1120140Y416560D02*
D03*
X652780Y241300D02*
D03*
X718820Y252730D02*
D03*
X706120D02*
D03*
X1130300Y445770D02*
D03*
X843280Y172720D02*
D03*
X1363980Y391160D02*
D03*
X1130300Y476250D02*
D03*
X1120140Y405130D02*
D03*
Y429260D02*
D03*
X1054100Y231140D02*
D03*
X1055181Y28920D02*
D03*
X1054714Y92232D02*
D03*
X1055673Y170580D02*
D03*
X1055169Y211470D02*
D03*
X1053195Y300226D02*
D03*
X1049065Y386045D02*
D03*
X1049983Y440657D02*
D03*
X1048606Y464062D02*
D03*
X1049020Y478790D02*
D03*
X1362710Y458470D02*
D03*
Y443230D02*
D03*
Y427990D02*
D03*
Y414020D02*
D03*
Y401320D02*
D03*
X1250950Y364490D02*
D03*
X1234440D02*
D03*
X1219200D02*
D03*
X1203960D02*
D03*
X1174750D02*
D03*
X1130300Y461010D02*
D03*
X1050290Y357865D02*
D03*
X1033780Y297180D02*
D03*
X1051560Y316230D02*
D03*
X1052830Y284480D02*
D03*
X1054100Y153670D02*
D03*
X1000760Y142240D02*
D03*
X1049020Y410210D02*
D03*
X725170Y118110D02*
D03*
X1000760Y297180D02*
D03*
X732790Y252730D02*
D03*
X750570Y251460D02*
D03*
X778510Y179070D02*
D03*
X706120Y68580D02*
D03*
X1014730Y384810D02*
D03*
X1038860Y95250D02*
D03*
X1003300Y190500D02*
D03*
X1022350Y120650D02*
D03*
X971550Y95250D02*
D03*
X989330Y466090D02*
D03*
X1024890Y426720D02*
D03*
X1054100Y116840D02*
D03*
X1005840Y213360D02*
D03*
X732790Y181610D02*
D03*
X1054100Y189230D02*
D03*
X715010Y168910D02*
D03*
X1029970Y176530D02*
D03*
X762000Y165100D02*
D03*
X750570Y179070D02*
D03*
X767080Y251460D02*
D03*
X723900Y142240D02*
D03*
X990600Y327660D02*
D03*
X787400Y104140D02*
D03*
X706120Y111760D02*
D03*
X858520Y331390D02*
D03*
X957580Y419100D02*
D03*
X878840Y403860D02*
D03*
X769620Y327620D02*
D03*
X985520Y421640D02*
D03*
X802640Y337820D02*
D03*
X855980Y403860D02*
D03*
X817880Y342900D02*
D03*
X851020Y358060D02*
D03*
X825500Y403860D02*
D03*
X711200Y373380D02*
D03*
X703580Y419100D02*
D03*
X906780Y429260D02*
D03*
X732790Y325120D02*
D03*
X715010Y326350D02*
D03*
X753110Y356870D02*
D03*
X715010Y341630D02*
D03*
X749300Y322580D02*
D03*
X727710Y356870D02*
D03*
X759460Y379730D02*
D03*
X788670Y473710D02*
D03*
X703580Y474980D02*
D03*
X892810Y328930D02*
D03*
X928370Y201930D02*
D03*
X927100Y356870D02*
D03*
Y327660D02*
D03*
X902970Y231140D02*
D03*
D100*
X957900Y246200D02*
D03*
X969010Y246380D02*
D03*
X946150D02*
D03*
X957580Y234950D02*
D03*
Y257810D02*
D03*
X1071880Y80010D02*
D03*
X847090Y218440D02*
D03*
X875030Y170180D02*
D03*
X939800Y388620D02*
D03*
X822960D02*
D03*
X673101Y266180D02*
D03*
X662941Y248400D02*
D03*
X134621Y262370D02*
D03*
X114301D02*
D03*
X124461Y242050D02*
D03*
X104141D02*
D03*
X1347470Y381000D02*
D03*
X1052830Y257810D02*
D03*
X1344930Y295910D02*
D03*
X1069340Y267970D02*
D03*
X1343660Y281940D02*
D03*
X1089660Y284480D02*
D03*
X1346200Y269240D02*
D03*
X1084580Y267970D02*
D03*
X1130300Y383540D02*
D03*
X1134110Y314960D02*
D03*
Y251460D02*
D03*
X1196340Y185420D02*
D03*
X1073150Y246380D02*
D03*
X881380Y426720D02*
D03*
X828040Y468630D02*
D03*
X861060Y455930D02*
D03*
X1031240Y368300D02*
D03*
X1247140Y60960D02*
D03*
X1596390Y110490D02*
D03*
X1007110Y179070D02*
D03*
X1014730Y307340D02*
D03*
X1016000Y233680D02*
D03*
X822960Y321310D02*
D03*
X875030Y134620D02*
D03*
X897890Y254000D02*
D03*
D101*
X941400Y262700D02*
D03*
X952400D02*
D03*
X963400D02*
D03*
X974400D02*
D03*
X941400Y251700D02*
D03*
X952400D02*
D03*
X963400D02*
D03*
X974400D02*
D03*
X941400Y240700D02*
D03*
X952400D02*
D03*
X963400D02*
D03*
X974400D02*
D03*
X941400Y229700D02*
D03*
X952400D02*
D03*
X963400D02*
D03*
X974400D02*
D03*
M02*
