G04*
G04 #@! TF.GenerationSoftware,Altium Limited,Altium Designer,23.3.1 (30)*
G04*
G04 Layer_Color=255*
%FSLAX44Y44*%
%MOMM*%
G71*
G04*
G04 #@! TF.SameCoordinates,D953DCF9-3291-42EB-AE53-6C5A23FC187B*
G04*
G04*
G04 #@! TF.FilePolarity,Positive*
G04*
G01*
G75*
%ADD15R,4.1000X4.1000*%
%ADD16R,1.3000X1.0500*%
%ADD17R,2.1800X1.6000*%
%ADD18R,2.2000X1.6000*%
%ADD19O,0.6500X0.2000*%
%ADD20O,0.2000X0.6500*%
%ADD21R,1.2000X1.4500*%
%ADD22R,1.0000X1.3500*%
%ADD23R,1.4500X1.1500*%
%ADD24R,0.4500X0.4500*%
%ADD25R,0.5500X0.5500*%
%ADD26R,1.3500X0.9500*%
%ADD27R,1.3500X0.6000*%
%ADD28R,2.0000X0.9000*%
%ADD29R,1.1544X1.3562*%
%ADD30R,0.9000X2.0000*%
%ADD31R,1.8000X1.2000*%
%ADD32R,1.5000X1.2000*%
%ADD33R,2.6500X1.7500*%
%ADD34R,1.4000X2.1000*%
%ADD35R,2.8000X5.3000*%
G04:AMPARAMS|DCode=36|XSize=1mm|YSize=4.15mm|CornerRadius=0.05mm|HoleSize=0mm|Usage=FLASHONLY|Rotation=180.000|XOffset=0mm|YOffset=0mm|HoleType=Round|Shape=RoundedRectangle|*
%AMROUNDEDRECTD36*
21,1,1.0000,4.0500,0,0,180.0*
21,1,0.9000,4.1500,0,0,180.0*
1,1,0.1000,-0.4500,2.0250*
1,1,0.1000,0.4500,2.0250*
1,1,0.1000,0.4500,-2.0250*
1,1,0.1000,-0.4500,-2.0250*
%
%ADD36ROUNDEDRECTD36*%
%ADD37R,0.9500X1.4000*%
%ADD38R,1.4000X1.2000*%
%ADD39R,1.2000X1.4000*%
%ADD40R,1.4500X0.9500*%
G04:AMPARAMS|DCode=41|XSize=6.4mm|YSize=8.2mm|CornerRadius=0.064mm|HoleSize=0mm|Usage=FLASHONLY|Rotation=180.000|XOffset=0mm|YOffset=0mm|HoleType=Round|Shape=RoundedRectangle|*
%AMROUNDEDRECTD41*
21,1,6.4000,8.0720,0,0,180.0*
21,1,6.2720,8.2000,0,0,180.0*
1,1,0.1280,-3.1360,4.0360*
1,1,0.1280,3.1360,4.0360*
1,1,0.1280,3.1360,-4.0360*
1,1,0.1280,-3.1360,-4.0360*
%
%ADD41ROUNDEDRECTD41*%
%ADD42R,1.4500X1.2000*%
%ADD43R,1.0500X1.4500*%
%ADD44R,1.3300X1.3300*%
%ADD45R,1.2000X0.8000*%
%ADD46R,0.8000X1.2000*%
%ADD47R,1.4562X1.3046*%
%ADD48R,1.5500X1.5500*%
%ADD49R,1.3500X0.9500*%
%ADD50R,2.0000X4.1000*%
%ADD73C,1.6000*%
%ADD74R,1.6000X1.6000*%
%ADD76C,1.4500*%
%ADD79R,1.4500X1.4500*%
%ADD80C,1.5500*%
%ADD81R,1.5500X1.5500*%
%ADD95C,3.0000*%
%ADD96C,1.5000*%
%ADD97C,2.1000*%
G04:AMPARAMS|DCode=98|XSize=1.5mm|YSize=1.5mm|CornerRadius=0.375mm|HoleSize=0mm|Usage=FLASHONLY|Rotation=0.000|XOffset=0mm|YOffset=0mm|HoleType=Round|Shape=RoundedRectangle|*
%AMROUNDEDRECTD98*
21,1,1.5000,0.7500,0,0,0.0*
21,1,0.7500,1.5000,0,0,0.0*
1,1,0.7500,0.3750,-0.3750*
1,1,0.7500,-0.3750,-0.3750*
1,1,0.7500,-0.3750,0.3750*
1,1,0.7500,0.3750,0.3750*
%
%ADD98ROUNDEDRECTD98*%
D15*
X957900Y246200D02*
D03*
D16*
X942270Y163690D02*
D03*
X965270D02*
D03*
Y146190D02*
D03*
X942270D02*
D03*
D17*
X957350Y57150D02*
D03*
X1329460Y62230D02*
D03*
D18*
X1049250Y57150D02*
D03*
X1421360Y62230D02*
D03*
D19*
X928150Y268700D02*
D03*
Y263700D02*
D03*
Y258700D02*
D03*
Y253700D02*
D03*
Y248700D02*
D03*
Y243700D02*
D03*
Y238700D02*
D03*
Y233700D02*
D03*
Y228700D02*
D03*
Y223700D02*
D03*
X987650D02*
D03*
Y228700D02*
D03*
Y233700D02*
D03*
Y238700D02*
D03*
Y243700D02*
D03*
Y248700D02*
D03*
Y253700D02*
D03*
Y258700D02*
D03*
Y263700D02*
D03*
Y268700D02*
D03*
D20*
X935400Y216450D02*
D03*
X940400D02*
D03*
X945400D02*
D03*
X950400D02*
D03*
X955400D02*
D03*
X960400D02*
D03*
X965400D02*
D03*
X970400D02*
D03*
X975400D02*
D03*
X980400D02*
D03*
Y275950D02*
D03*
X975400D02*
D03*
X970400D02*
D03*
X965400D02*
D03*
X960400D02*
D03*
X955400D02*
D03*
X950400D02*
D03*
X945400D02*
D03*
X940400D02*
D03*
X935400D02*
D03*
D21*
X759300Y412750D02*
D03*
X739300D02*
D03*
X1084740Y416560D02*
D03*
X1104740D02*
D03*
D22*
X811000Y370000D02*
D03*
X829000D02*
D03*
D23*
X690960Y210920D02*
D03*
X692190Y295810D02*
D03*
X690960Y228420D02*
D03*
X692190Y278310D02*
D03*
D24*
X652780Y300735D02*
D03*
Y292735D02*
D03*
D25*
Y224045D02*
D03*
Y233045D02*
D03*
D26*
X1120140Y222120D02*
D03*
Y237620D02*
D03*
D27*
X1101660Y222910D02*
D03*
X1077660Y232410D02*
D03*
X1101660Y241910D02*
D03*
D28*
X1325060Y370210D02*
D03*
Y294010D02*
D03*
Y281310D02*
D03*
Y268610D02*
D03*
X1155060Y230510D02*
D03*
X1325060Y217810D02*
D03*
Y382910D02*
D03*
Y357510D02*
D03*
Y344810D02*
D03*
Y332110D02*
D03*
Y319410D02*
D03*
Y306710D02*
D03*
Y255910D02*
D03*
Y243210D02*
D03*
Y230510D02*
D03*
X1155060Y217810D02*
D03*
Y243210D02*
D03*
Y255910D02*
D03*
Y268610D02*
D03*
Y281310D02*
D03*
Y294010D02*
D03*
Y306710D02*
D03*
Y319410D02*
D03*
Y332110D02*
D03*
Y344810D02*
D03*
Y357510D02*
D03*
Y370210D02*
D03*
Y382910D02*
D03*
D29*
X880519Y234950D02*
D03*
Y262890D02*
D03*
X867001Y234950D02*
D03*
Y262890D02*
D03*
D30*
X1195610Y207810D02*
D03*
X1297210D02*
D03*
X1284510D02*
D03*
X1271810D02*
D03*
X1259110D02*
D03*
X1246410D02*
D03*
X1233710D02*
D03*
X1221010D02*
D03*
X1208310D02*
D03*
X1182910D02*
D03*
D31*
X1654810Y53580D02*
D03*
Y83580D02*
D03*
D32*
X1612900Y54280D02*
D03*
Y81280D02*
D03*
D33*
X1290230Y86360D02*
D03*
X1247230D02*
D03*
D34*
X1502000Y68580D02*
D03*
X1546000D02*
D03*
D35*
X1496360Y194310D02*
D03*
X1597360D02*
D03*
D36*
X1528590Y314690D02*
D03*
X1579590D02*
D03*
X1562590D02*
D03*
X1545590D02*
D03*
X1511590D02*
D03*
D37*
X1313540Y142240D02*
D03*
X1295040D02*
D03*
D38*
X967740Y375040D02*
D03*
X792400Y234600D02*
D03*
X773350Y234600D02*
D03*
X753070D02*
D03*
X773350Y217600D02*
D03*
X753070D02*
D03*
X732790D02*
D03*
X712510D02*
D03*
Y286590D02*
D03*
X732790D02*
D03*
X753070D02*
D03*
X773350D02*
D03*
X753070Y269590D02*
D03*
X773350D02*
D03*
X792400Y269590D02*
D03*
X843320Y338700D02*
D03*
Y321700D02*
D03*
X887770Y314570D02*
D03*
Y297570D02*
D03*
X967740Y392040D02*
D03*
X866180Y315840D02*
D03*
Y298840D02*
D03*
X912420Y336870D02*
D03*
Y319870D02*
D03*
X1031240Y234560D02*
D03*
Y217560D02*
D03*
X981870Y163400D02*
D03*
Y146400D02*
D03*
X918370Y146400D02*
D03*
Y163400D02*
D03*
X712510Y234600D02*
D03*
Y269590D02*
D03*
X732790Y234600D02*
D03*
Y269590D02*
D03*
X792400Y217600D02*
D03*
Y286590D02*
D03*
D39*
X817000Y111920D02*
D03*
X887340Y210820D02*
D03*
X870340D02*
D03*
X926710Y297180D02*
D03*
X909710D02*
D03*
X834000Y111920D02*
D03*
X856820Y160060D02*
D03*
X839820D02*
D03*
X887340Y190500D02*
D03*
X870340D02*
D03*
D40*
X815340Y143960D02*
D03*
Y163460D02*
D03*
D41*
X1545590Y419190D02*
D03*
D42*
X1084580Y318930D02*
D03*
Y338930D02*
D03*
D43*
X857570Y134740D02*
D03*
X839070D02*
D03*
D44*
X1248410Y289560D02*
D03*
X1230060D02*
D03*
X1211710D02*
D03*
X1248410Y307910D02*
D03*
X1230060D02*
D03*
X1211710D02*
D03*
X1248410Y326260D02*
D03*
X1230060D02*
D03*
X1211710D02*
D03*
D45*
X849630Y189120D02*
D03*
Y207120D02*
D03*
D46*
X891650Y342900D02*
D03*
X873650D02*
D03*
D47*
X1115060Y336988D02*
D03*
Y320872D02*
D03*
D48*
X1113790Y369210D02*
D03*
Y387710D02*
D03*
D49*
X1083310Y370960D02*
D03*
Y385960D02*
D03*
D50*
X1677670Y322900D02*
D03*
Y235900D02*
D03*
X1407160Y238440D02*
D03*
Y325440D02*
D03*
D73*
X1107440Y455930D02*
D03*
X762000Y452120D02*
D03*
D74*
X1082040Y455930D02*
D03*
X736600Y452120D02*
D03*
D76*
X1176020Y111760D02*
D03*
D79*
X1126020D02*
D03*
D80*
X1791970Y175660D02*
D03*
X1784350Y337420D02*
D03*
D81*
X1791970Y200660D02*
D03*
X1784350Y312420D02*
D03*
D95*
X1812290Y59690D02*
D03*
X1809750Y447040D02*
D03*
X54610Y452120D02*
D03*
Y55880D02*
D03*
D96*
X692230Y185410D02*
D03*
Y321130D02*
D03*
X815340Y222240D02*
D03*
Y187960D02*
D03*
Y284300D02*
D03*
X692270Y253270D02*
D03*
X815340D02*
D03*
X1394460Y431800D02*
D03*
X1419860D02*
D03*
D97*
X1676400Y410210D02*
D03*
X1711960Y158750D02*
D03*
X1654810Y160020D02*
D03*
X1418590Y140970D02*
D03*
D98*
X1445260Y431800D02*
D03*
M02*
