G04*
G04 #@! TF.GenerationSoftware,Altium Limited,Altium Designer,23.3.1 (30)*
G04*
G04 Layer_Color=16711935*
%FSLAX44Y44*%
%MOMM*%
G71*
G04*
G04 #@! TF.SameCoordinates,D953DCF9-3291-42EB-AE53-6C5A23FC187B*
G04*
G04*
G04 #@! TF.FilePolarity,Positive*
G04*
G01*
G75*
%ADD11C,0.1500*%
%ADD14C,0.2540*%
D11*
X1537674Y358140D02*
X1548504D01*
X1550670Y360306D01*
Y364638D01*
X1548504Y366804D01*
X1537674D01*
X1550670Y371136D02*
Y375468D01*
Y373302D01*
X1537674D01*
X1539840Y371136D01*
D14*
X1330960Y389890D02*
G03*
X1341120Y400050I0J10160D01*
G01*
X1351280Y508000D02*
G03*
X1341120Y496570I635J-10795D01*
G01*
X1137920Y400050D02*
G03*
X1149350Y389890I10795J635D01*
G01*
X0Y11430D02*
G03*
X11430Y0I11430J0D01*
G01*
X1858010D02*
G03*
X1868170Y11430I-635J10795D01*
G01*
Y496570D02*
G03*
X1858010Y508000I-10795J635D01*
G01*
X1137920Y496570D02*
G03*
X1125220Y508000I-12065J-635D01*
G01*
X11430D02*
G03*
X0Y496570I0J-11430D01*
G01*
X1351280Y508000D02*
X1353820D01*
X1341120Y400050D02*
Y496570D01*
X1353820Y508000D02*
X1366520D01*
X1149350Y389890D02*
X1330960D01*
X1137920Y400050D02*
Y496570D01*
X0Y11430D02*
Y496570D01*
X11430Y0D02*
X1858010D01*
X1868170Y11430D02*
Y496570D01*
X1366520Y508000D02*
X1858010D01*
X11430D02*
X1125220D01*
M02*
