G04*
G04 #@! TF.GenerationSoftware,Altium Limited,Altium Designer,23.3.1 (30)*
G04*
G04 Layer_Color=16711935*
%FSLAX44Y44*%
%MOMM*%
G71*
G04*
G04 #@! TF.SameCoordinates,D953DCF9-3291-42EB-AE53-6C5A23FC187B*
G04*
G04*
G04 #@! TF.FilePolarity,Positive*
G04*
G01*
G75*
%ADD107C,0.1000*%
D107*
X941400Y267700D02*
G03*
X941400Y267700I-5000J0D01*
G01*
X1692250Y410210D02*
G03*
X1692250Y410210I-15850J0D01*
G01*
X1727810Y158750D02*
G03*
X1727810Y158750I-15850J0D01*
G01*
X1670660Y160020D02*
G03*
X1670660Y160020I-15850J0D01*
G01*
X1434440Y140970D02*
G03*
X1434440Y140970I-15850J0D01*
G01*
X828040Y187960D02*
G03*
X828040Y187960I-12700J0D01*
G01*
X704970Y253270D02*
G03*
X704970Y253270I-12700J0D01*
G01*
X704930Y321130D02*
G03*
X704930Y321130I-12700J0D01*
G01*
X828040Y222240D02*
G03*
X828040Y222240I-12700J0D01*
G01*
Y253270D02*
G03*
X828040Y253270I-12700J0D01*
G01*
Y284300D02*
G03*
X828040Y284300I-12700J0D01*
G01*
X704930Y185410D02*
G03*
X704930Y185410I-12700J0D01*
G01*
X973300Y74650D02*
X1033300D01*
X973300Y39650D02*
X1033300D01*
X973300D02*
Y74650D01*
X1033300Y39650D02*
Y74650D01*
X927400Y215700D02*
Y276700D01*
X988400Y215700D02*
Y276700D01*
X927400D02*
X988400D01*
X927400Y215700D02*
X988400D01*
X738800Y406000D02*
Y419500D01*
X759800Y406000D02*
Y419500D01*
X738800D02*
X759800D01*
X738800Y406000D02*
X759800D01*
X1598840Y345690D02*
Y442190D01*
X1492340Y345690D02*
Y442190D01*
X1598840D01*
X1492340Y345690D02*
X1598840D01*
X1405410Y44730D02*
Y79730D01*
X1345410Y44730D02*
Y79730D01*
Y44730D02*
X1405410D01*
X1345410Y79730D02*
X1405410D01*
X1112890Y218870D02*
Y240870D01*
X1127390Y218870D02*
Y240870D01*
X1112890Y218870D02*
X1127390D01*
X1112890Y240870D02*
X1127390D01*
X1077830Y318430D02*
Y339430D01*
X1091330Y318430D02*
Y339430D01*
X1077830Y318430D02*
X1091330D01*
X1077830Y339430D02*
X1091330D01*
X1084240Y409810D02*
X1105240D01*
X1084240Y423310D02*
X1105240D01*
Y409810D02*
Y423310D01*
X1084240Y409810D02*
Y423310D01*
X1646810Y52580D02*
Y84580D01*
X1662810D01*
Y52580D02*
Y84580D01*
X1646810Y52580D02*
X1662810D01*
X809500Y363250D02*
Y376750D01*
X830500Y363250D02*
Y376750D01*
X809500D02*
X830500D01*
X809500Y363250D02*
X830500D01*
X655530Y223295D02*
Y233795D01*
X650030Y223295D02*
Y233795D01*
X655530D01*
X650030Y223295D02*
X655530D01*
Y291485D02*
Y301985D01*
X650030Y291485D02*
Y301985D01*
X655530D01*
X650030Y291485D02*
X655530D01*
X698210Y208670D02*
Y230670D01*
X683710Y208670D02*
Y230670D01*
X698210D01*
X683710Y208670D02*
X698210D01*
X699440Y276060D02*
Y298060D01*
X684940Y276060D02*
Y298060D01*
X699440D01*
X684940Y276060D02*
X699440D01*
X837320Y127490D02*
X859320D01*
X837320Y141990D02*
X859320D01*
Y127490D02*
Y141990D01*
X837320Y127490D02*
Y141990D01*
X1096660Y217410D02*
Y247410D01*
X1082660Y217410D02*
Y247410D01*
Y217410D02*
X1096660D01*
X1082660Y247410D02*
X1096660D01*
X1605400Y51780D02*
Y83780D01*
X1620400Y51780D02*
Y83780D01*
X1605400Y51780D02*
X1620400D01*
X1605400Y83780D02*
X1620400D01*
X1106540Y367410D02*
Y389510D01*
X1121040Y367410D02*
Y389510D01*
X1106540Y367410D02*
X1121040D01*
X1106540Y389510D02*
X1121040D01*
X868340Y204070D02*
X889340D01*
X868340Y217570D02*
X889340D01*
Y204070D02*
Y217570D01*
X868340Y204070D02*
Y217570D01*
X850070Y319700D02*
Y340700D01*
X836570Y319700D02*
Y340700D01*
X850070D01*
X836570Y319700D02*
X850070D01*
X894520Y295570D02*
Y316570D01*
X881020Y295570D02*
Y316570D01*
X894520D01*
X881020Y295570D02*
X894520D01*
X960990Y373040D02*
Y394040D01*
X974490Y373040D02*
Y394040D01*
X960990Y373040D02*
X974490D01*
X960990Y394040D02*
X974490D01*
X928710Y290430D02*
Y303930D01*
X907710Y290430D02*
Y303930D01*
Y290430D02*
X928710D01*
X907710Y303930D02*
X928710D01*
X872930Y296840D02*
Y317840D01*
X859430Y296840D02*
Y317840D01*
X872930D01*
X859430Y296840D02*
X872930D01*
X905670Y338870D02*
X919170D01*
X905670Y317870D02*
X919170D01*
Y338870D01*
X905670Y317870D02*
Y338870D01*
X1037990Y215560D02*
Y236560D01*
X1024490Y215560D02*
Y236560D01*
X1037990D01*
X1024490Y215560D02*
X1037990D01*
X815000Y118670D02*
X836000D01*
X815000Y105170D02*
X836000D01*
X815000D02*
Y118670D01*
X836000Y105170D02*
Y118670D01*
X837820Y153310D02*
X858820D01*
X837820Y166810D02*
X858820D01*
Y153310D02*
Y166810D01*
X837820Y153310D02*
Y166810D01*
X988620Y144400D02*
Y165400D01*
X975120Y144400D02*
Y165400D01*
X988620D01*
X975120Y144400D02*
X988620D01*
X911620Y144400D02*
Y165400D01*
X925120Y144400D02*
Y165400D01*
X911620Y144400D02*
X925120D01*
X911620Y165400D02*
X925120D01*
X868340Y183750D02*
X889340D01*
X868340Y197250D02*
X889340D01*
Y183750D02*
Y197250D01*
X868340Y183750D02*
Y197250D01*
X719260Y215600D02*
Y236600D01*
X705760Y215600D02*
Y236600D01*
X719260D01*
X705760Y215600D02*
X719260D01*
Y267590D02*
Y288590D01*
X705760Y267590D02*
Y288590D01*
X719260D01*
X705760Y267590D02*
X719260D01*
X739540Y215600D02*
Y236600D01*
X726040Y215600D02*
Y236600D01*
X739540D01*
X726040Y215600D02*
X739540D01*
Y267590D02*
Y288590D01*
X726040Y267590D02*
Y288590D01*
X739540D01*
X726040Y267590D02*
X739540D01*
X780100Y215600D02*
Y236600D01*
X766600Y215600D02*
Y236600D01*
X780100D01*
X766600Y215600D02*
X780100D01*
Y267590D02*
Y288590D01*
X766600Y267590D02*
Y288590D01*
X780100D01*
X766600Y267590D02*
X780100D01*
X785650Y215600D02*
Y236600D01*
X799150Y215600D02*
Y236600D01*
X785650Y215600D02*
X799150D01*
X785650Y236600D02*
X799150D01*
X785650Y267590D02*
Y288590D01*
X799150Y267590D02*
Y288590D01*
X785650Y267590D02*
X799150D01*
X785650Y288590D02*
X799150D01*
X759820Y215600D02*
Y236600D01*
X746320Y215600D02*
Y236600D01*
X759820D01*
X746320Y215600D02*
X759820D01*
Y267590D02*
Y288590D01*
X746320Y267590D02*
Y288590D01*
X759820D01*
X746320Y267590D02*
X759820D01*
M02*
