G04*
G04 #@! TF.GenerationSoftware,Altium Limited,Altium Designer,23.3.1 (30)*
G04*
G04 Layer_Color=65535*
%FSLAX44Y44*%
%MOMM*%
G71*
G04*
G04 #@! TF.SameCoordinates,D953DCF9-3291-42EB-AE53-6C5A23FC187B*
G04*
G04*
G04 #@! TF.FilePolarity,Positive*
G04*
G01*
G75*
%ADD10C,0.2500*%
%ADD11C,0.1500*%
%ADD12C,0.2000*%
%ADD13C,0.4000*%
%ADD14C,0.2540*%
G36*
X414070Y402024D02*
X420856D01*
Y401459D01*
X425381D01*
Y400893D01*
X428774D01*
Y400328D01*
X431602D01*
Y399762D01*
X434429D01*
Y399197D01*
X436692D01*
Y398631D01*
X438954D01*
Y398066D01*
X441216D01*
Y397500D01*
X442912D01*
Y396935D01*
X444609D01*
Y396369D01*
X446306D01*
Y395803D01*
X448002D01*
Y395238D01*
X449699D01*
Y394672D01*
X451396D01*
Y394107D01*
X452527D01*
Y393541D01*
X454224D01*
Y392976D01*
X455354D01*
Y392410D01*
X457051D01*
Y391845D01*
X458182D01*
Y391279D01*
X459313D01*
Y390714D01*
X460444D01*
Y390148D01*
X461576D01*
Y389582D01*
X462707D01*
Y389017D01*
X463838D01*
Y388451D01*
X464969D01*
Y387886D01*
X466100D01*
Y387320D01*
X467231D01*
Y386755D01*
X468362D01*
Y386189D01*
X468928D01*
Y385624D01*
X470059D01*
Y385058D01*
X471190D01*
Y384492D01*
X472321D01*
Y383927D01*
X472887D01*
Y383361D01*
X474018D01*
Y382796D01*
X474583D01*
Y382230D01*
X475714D01*
Y381665D01*
X476280D01*
Y381099D01*
X477411D01*
Y380534D01*
X477976D01*
Y379968D01*
X479108D01*
Y379403D01*
X479673D01*
Y378837D01*
X480804D01*
Y378271D01*
X481370D01*
Y377706D01*
X481935D01*
Y377140D01*
X483066D01*
Y376575D01*
X483632D01*
Y376009D01*
X484197D01*
Y375444D01*
X485328D01*
Y374878D01*
X485894D01*
Y374313D01*
X486460D01*
Y373747D01*
X487025D01*
Y373182D01*
X487591D01*
Y372616D01*
X488722D01*
Y372051D01*
X489287D01*
Y371485D01*
X489853D01*
Y370919D01*
X490419D01*
Y370354D01*
X490984D01*
Y369788D01*
X491549D01*
Y369223D01*
X492115D01*
Y368657D01*
X492681D01*
Y368092D01*
X493812D01*
Y367526D01*
X494377D01*
Y366961D01*
X494943D01*
Y366395D01*
X495508D01*
Y365829D01*
X496074D01*
Y365264D01*
X496639D01*
Y364698D01*
X497205D01*
Y364133D01*
X497771D01*
Y363567D01*
X498336D01*
Y362436D01*
X498902D01*
Y361871D01*
X499467D01*
Y361305D01*
X500033D01*
Y360740D01*
X500598D01*
Y360174D01*
X501164D01*
Y359608D01*
X501729D01*
Y359043D01*
X502295D01*
Y358477D01*
X502860D01*
Y357912D01*
X503426D01*
Y356781D01*
X503992D01*
Y356215D01*
X504557D01*
Y355650D01*
X505123D01*
Y355084D01*
X505688D01*
Y353953D01*
X506254D01*
Y353387D01*
X506819D01*
Y352822D01*
X507385D01*
Y352256D01*
X507950D01*
Y351125D01*
X508516D01*
Y350560D01*
X509081D01*
Y349994D01*
X509647D01*
Y348863D01*
X510213D01*
Y348298D01*
X510778D01*
Y347166D01*
X511344D01*
Y346601D01*
X511909D01*
Y345470D01*
X512475D01*
Y344904D01*
X513040D01*
Y343773D01*
X513606D01*
Y343208D01*
X514171D01*
Y342076D01*
X514737D01*
Y341511D01*
X515303D01*
Y340380D01*
X515868D01*
Y339249D01*
X516434D01*
Y338118D01*
X516999D01*
Y337552D01*
X517565D01*
Y336421D01*
X518130D01*
Y335290D01*
X518696D01*
Y334159D01*
X519261D01*
Y333028D01*
X519827D01*
Y331897D01*
X520392D01*
Y330766D01*
X520958D01*
Y329634D01*
X521524D01*
Y328503D01*
X522089D01*
Y327372D01*
X522655D01*
Y325676D01*
X523220D01*
Y324544D01*
X523786D01*
Y323414D01*
X524351D01*
Y321717D01*
X524917D01*
Y320586D01*
X525482D01*
Y318889D01*
X526048D01*
Y317192D01*
X526614D01*
Y315496D01*
X527179D01*
Y313799D01*
X527744D01*
Y312103D01*
X528310D01*
Y309840D01*
X528876D01*
Y308144D01*
X529441D01*
Y305882D01*
X530007D01*
Y303054D01*
X530572D01*
Y300792D01*
X531138D01*
Y297398D01*
X531703D01*
Y294571D01*
X532269D01*
Y290046D01*
X532834D01*
Y283260D01*
X533400D01*
Y273080D01*
X532834D01*
Y271949D01*
X532269D01*
Y270818D01*
X531703D01*
Y269687D01*
X531138D01*
Y269121D01*
X530572D01*
Y268555D01*
X529441D01*
Y267990D01*
X528310D01*
Y267424D01*
X527179D01*
Y266859D01*
X522655D01*
Y267424D01*
X521524D01*
Y267990D01*
X520392D01*
Y268555D01*
X519261D01*
Y269121D01*
X518696D01*
Y269687D01*
X518130D01*
Y270818D01*
X517565D01*
Y271949D01*
X516999D01*
Y273080D01*
X516434D01*
Y282694D01*
X515868D01*
Y288915D01*
X515303D01*
Y289481D01*
Y290046D01*
Y292874D01*
X514737D01*
Y296267D01*
X514171D01*
Y299095D01*
X513606D01*
Y301357D01*
X513040D01*
Y303619D01*
X512475D01*
Y305316D01*
X511909D01*
Y307578D01*
X511344D01*
Y309275D01*
X510778D01*
Y310971D01*
X510213D01*
Y312668D01*
X509647D01*
Y314365D01*
X509081D01*
Y315496D01*
X508516D01*
Y317192D01*
X507950D01*
Y318323D01*
X507385D01*
Y319455D01*
X506819D01*
Y321151D01*
X506254D01*
Y322282D01*
X505688D01*
Y323414D01*
X505123D01*
Y324544D01*
X504557D01*
Y325676D01*
X503992D01*
Y326807D01*
X503426D01*
Y327938D01*
X502860D01*
Y328503D01*
X502295D01*
Y329634D01*
X501729D01*
Y330766D01*
X501164D01*
Y331897D01*
X500598D01*
Y332462D01*
X500033D01*
Y333593D01*
X499467D01*
Y334159D01*
X498902D01*
Y335290D01*
X498336D01*
Y336421D01*
X497771D01*
Y336987D01*
X497205D01*
Y338118D01*
X496639D01*
Y338683D01*
X496074D01*
Y339249D01*
X495508D01*
Y340380D01*
X494943D01*
Y340945D01*
X494377D01*
Y341511D01*
X493812D01*
Y342642D01*
X493246D01*
Y343208D01*
X492681D01*
Y343773D01*
X492115D01*
Y344904D01*
X491549D01*
Y345470D01*
X490984D01*
Y346035D01*
X490419D01*
Y346601D01*
X489853D01*
Y347166D01*
X489287D01*
Y347732D01*
X488722D01*
Y348863D01*
X488156D01*
Y349429D01*
X487591D01*
Y349994D01*
X487025D01*
Y350560D01*
X486460D01*
Y351125D01*
X485894D01*
Y351691D01*
X485328D01*
Y352256D01*
X484763D01*
Y352822D01*
X484197D01*
Y353387D01*
X483632D01*
Y353953D01*
X483066D01*
Y354519D01*
X482501D01*
Y355084D01*
X481935D01*
Y355650D01*
X481370D01*
Y356215D01*
X480804D01*
Y356781D01*
X480239D01*
Y357346D01*
X479673D01*
Y357912D01*
X478542D01*
Y358477D01*
X477976D01*
Y359043D01*
X477411D01*
Y359608D01*
X476845D01*
Y360174D01*
X476280D01*
Y360740D01*
X475714D01*
Y361305D01*
X474583D01*
Y361871D01*
X474018D01*
Y362436D01*
X473452D01*
Y363002D01*
X472887D01*
Y363567D01*
X471755D01*
Y364133D01*
X471190D01*
Y364698D01*
X470059D01*
Y365264D01*
X469493D01*
Y365829D01*
X468928D01*
Y366395D01*
X467797D01*
Y366961D01*
X467231D01*
Y367526D01*
X466100D01*
Y368092D01*
X465534D01*
Y368657D01*
X464403D01*
Y369223D01*
X463272D01*
Y369788D01*
X462707D01*
Y370354D01*
X461576D01*
Y370919D01*
X460444D01*
Y371485D01*
X459879D01*
Y372051D01*
X458748D01*
Y372616D01*
X457617D01*
Y373182D01*
X456486D01*
Y373747D01*
X455354D01*
Y374313D01*
X454224D01*
Y374878D01*
X453092D01*
Y375444D01*
X451961D01*
Y376009D01*
X450265D01*
Y376575D01*
X449133D01*
Y377140D01*
X448002D01*
Y377706D01*
X446306D01*
Y378271D01*
X445175D01*
Y378837D01*
X443478D01*
Y379403D01*
X441781D01*
Y379968D01*
X440085D01*
Y380534D01*
X438388D01*
Y381099D01*
X436126D01*
Y381665D01*
X434429D01*
Y382230D01*
X432167D01*
Y382796D01*
X429905D01*
Y383361D01*
X427077D01*
Y383927D01*
X423684D01*
Y384492D01*
X419725D01*
Y385058D01*
X413504D01*
Y385624D01*
X403890D01*
Y386189D01*
X402759D01*
Y386755D01*
X401628D01*
Y387320D01*
X400496D01*
Y387886D01*
X399931D01*
Y388451D01*
X399365D01*
Y389582D01*
X398800D01*
Y390714D01*
X398234D01*
Y391845D01*
X397669D01*
Y396369D01*
X398234D01*
Y397500D01*
X398800D01*
Y398631D01*
X399365D01*
Y399762D01*
X399931D01*
Y400328D01*
X400496D01*
Y400893D01*
X401628D01*
Y401459D01*
X402759D01*
Y402024D01*
X403890D01*
Y402590D01*
X414070D01*
Y402024D01*
D02*
G37*
G36*
X412938Y368092D02*
X418594D01*
Y367526D01*
X421987D01*
Y366961D01*
X425381D01*
Y366395D01*
X427643D01*
Y365829D01*
X429905D01*
Y365264D01*
X432167D01*
Y364698D01*
X433864D01*
Y364133D01*
X435560D01*
Y363567D01*
X437257D01*
Y363002D01*
X438954D01*
Y362436D01*
X440085D01*
Y361871D01*
X441781D01*
Y361305D01*
X442912D01*
Y360740D01*
X444609D01*
Y360174D01*
X445740D01*
Y359608D01*
X446871D01*
Y359043D01*
X448002D01*
Y358477D01*
X449133D01*
Y357912D01*
X450265D01*
Y357346D01*
X451396D01*
Y356781D01*
X451961D01*
Y356215D01*
X453092D01*
Y355650D01*
X454224D01*
Y355084D01*
X454789D01*
Y354519D01*
X455920D01*
Y353953D01*
X457051D01*
Y353387D01*
X457617D01*
Y352822D01*
X458748D01*
Y352256D01*
X459313D01*
Y351691D01*
X459879D01*
Y351125D01*
X461010D01*
Y350560D01*
X461576D01*
Y349994D01*
X462707D01*
Y349429D01*
X463272D01*
Y348863D01*
X463838D01*
Y348298D01*
X464403D01*
Y347732D01*
X465534D01*
Y347166D01*
X466100D01*
Y346601D01*
X466665D01*
Y346035D01*
X467231D01*
Y345470D01*
X467797D01*
Y344904D01*
X468362D01*
Y344339D01*
X468928D01*
Y343773D01*
X470059D01*
Y343208D01*
X470624D01*
Y342642D01*
X471190D01*
Y342076D01*
X471755D01*
Y341511D01*
X472321D01*
Y340945D01*
X472887D01*
Y340380D01*
X473452D01*
Y339814D01*
X474018D01*
Y339249D01*
X474583D01*
Y338118D01*
X475149D01*
Y337552D01*
X475714D01*
Y336987D01*
X476280D01*
Y336421D01*
X476845D01*
Y335855D01*
X477411D01*
Y335290D01*
X477976D01*
Y334724D01*
X478542D01*
Y333593D01*
X479108D01*
Y333028D01*
X479673D01*
Y332462D01*
X480239D01*
Y331897D01*
X480804D01*
Y330766D01*
X481370D01*
Y330200D01*
X481935D01*
Y329069D01*
X482501D01*
Y328503D01*
X483066D01*
Y327938D01*
X483632D01*
Y326807D01*
X484197D01*
Y326241D01*
X484763D01*
Y325110D01*
X485328D01*
Y323979D01*
X485894D01*
Y323414D01*
X486460D01*
Y322282D01*
X487025D01*
Y321151D01*
X487591D01*
Y320586D01*
X488156D01*
Y319455D01*
X488722D01*
Y318323D01*
X489287D01*
Y317192D01*
X489853D01*
Y316061D01*
X490419D01*
Y314930D01*
X490984D01*
Y313799D01*
X491549D01*
Y312103D01*
X492115D01*
Y310971D01*
X492681D01*
Y309275D01*
X493246D01*
Y308144D01*
X493812D01*
Y306447D01*
X494377D01*
Y304750D01*
X494943D01*
Y303054D01*
X495508D01*
Y301357D01*
X496074D01*
Y299095D01*
X496639D01*
Y296833D01*
X497205D01*
Y294571D01*
X497771D01*
Y291177D01*
X498336D01*
Y287784D01*
X498902D01*
Y282129D01*
X499467D01*
Y273080D01*
X498902D01*
Y271949D01*
X498336D01*
Y270818D01*
X497771D01*
Y269687D01*
X497205D01*
Y269121D01*
X496639D01*
Y268555D01*
X495508D01*
Y267990D01*
X494377D01*
Y267424D01*
X493246D01*
Y266859D01*
X488722D01*
Y267424D01*
X487591D01*
Y267990D01*
X486460D01*
Y268555D01*
X485328D01*
Y269121D01*
X484763D01*
Y269687D01*
X484197D01*
Y270818D01*
X483632D01*
Y271949D01*
X483066D01*
Y273080D01*
X482501D01*
Y281563D01*
X481935D01*
Y286653D01*
X481370D01*
Y290046D01*
X480804D01*
Y292308D01*
X480239D01*
Y295136D01*
X479673D01*
Y296833D01*
X479108D01*
Y298529D01*
X478542D01*
Y300226D01*
X477976D01*
Y301923D01*
X477411D01*
Y303619D01*
X476845D01*
Y304750D01*
X476280D01*
Y305882D01*
X475714D01*
Y307578D01*
X475149D01*
Y308709D01*
X474583D01*
Y309840D01*
X474018D01*
Y310971D01*
X473452D01*
Y312103D01*
X472887D01*
Y312668D01*
X472321D01*
Y313799D01*
X471755D01*
Y314930D01*
X471190D01*
Y315496D01*
X470624D01*
Y316627D01*
X470059D01*
Y317192D01*
X469493D01*
Y318323D01*
X468928D01*
Y318889D01*
X468362D01*
Y320020D01*
X467797D01*
Y320586D01*
X467231D01*
Y321717D01*
X466665D01*
Y322282D01*
X466100D01*
Y322848D01*
X465534D01*
Y323414D01*
X464969D01*
Y324544D01*
X464403D01*
Y325110D01*
X463838D01*
Y325676D01*
X463272D01*
Y326241D01*
X462707D01*
Y326807D01*
X462141D01*
Y327372D01*
X461576D01*
Y327938D01*
X461010D01*
Y328503D01*
X460444D01*
Y329069D01*
X459879D01*
Y329634D01*
X459313D01*
Y330200D01*
X458748D01*
Y330766D01*
X458182D01*
Y331331D01*
X457617D01*
Y331897D01*
X457051D01*
Y332462D01*
X456486D01*
Y333028D01*
X455920D01*
Y333593D01*
X455354D01*
Y334159D01*
X454224D01*
Y334724D01*
X453658D01*
Y335290D01*
X453092D01*
Y335855D01*
X452527D01*
Y336421D01*
X451396D01*
Y336987D01*
X450830D01*
Y337552D01*
X449699D01*
Y338118D01*
X449133D01*
Y338683D01*
X448568D01*
Y339249D01*
X447437D01*
Y339814D01*
X446306D01*
Y340380D01*
X445740D01*
Y340945D01*
X444609D01*
Y341511D01*
X443478D01*
Y342076D01*
X442912D01*
Y342642D01*
X441781D01*
Y343208D01*
X440650D01*
Y343773D01*
X439519D01*
Y344339D01*
X438388D01*
Y344904D01*
X436692D01*
Y345470D01*
X435560D01*
Y346035D01*
X434429D01*
Y346601D01*
X432733D01*
Y347166D01*
X431036D01*
Y347732D01*
X429339D01*
Y348298D01*
X427643D01*
Y348863D01*
X425946D01*
Y349429D01*
X423684D01*
Y349994D01*
X420856D01*
Y350560D01*
X417463D01*
Y351125D01*
X412373D01*
Y351691D01*
X403890D01*
Y352256D01*
X402759D01*
Y352822D01*
X401628D01*
Y353387D01*
X400496D01*
Y353953D01*
X399931D01*
Y354519D01*
X399365D01*
Y355650D01*
X398800D01*
Y356781D01*
X398234D01*
Y357912D01*
X397669D01*
Y362436D01*
X398234D01*
Y363567D01*
X398800D01*
Y364698D01*
X399365D01*
Y365829D01*
X399931D01*
Y366395D01*
X400496D01*
Y366961D01*
X401628D01*
Y367526D01*
X402759D01*
Y368092D01*
X403890D01*
Y368657D01*
X412938D01*
Y368092D01*
D02*
G37*
G36*
X411807Y334159D02*
X416332D01*
Y333593D01*
X419160D01*
Y333028D01*
X421422D01*
Y332462D01*
X423118D01*
Y331897D01*
X425381D01*
Y331331D01*
X426512D01*
Y330766D01*
X428208D01*
Y330200D01*
X429339D01*
Y329634D01*
X431036D01*
Y329069D01*
X432167D01*
Y328503D01*
X433298D01*
Y327938D01*
X434429D01*
Y327372D01*
X434995D01*
Y326807D01*
X436126D01*
Y326241D01*
X437257D01*
Y325676D01*
X437823D01*
Y325110D01*
X438954D01*
Y324544D01*
X440085D01*
Y323979D01*
X440650D01*
Y323414D01*
X441216D01*
Y322848D01*
X442347D01*
Y322282D01*
X442912D01*
Y321717D01*
X443478D01*
Y321151D01*
X444044D01*
Y320586D01*
X444609D01*
Y320020D01*
X445740D01*
Y319455D01*
X446306D01*
Y318889D01*
X446871D01*
Y318323D01*
X447437D01*
Y317758D01*
X448002D01*
Y317192D01*
X448568D01*
Y316627D01*
X449133D01*
Y316061D01*
X449699D01*
Y315496D01*
X450265D01*
Y314930D01*
X450830D01*
Y313799D01*
X451396D01*
Y313234D01*
X451961D01*
Y312668D01*
X452527D01*
Y312103D01*
X453092D01*
Y311537D01*
X453658D01*
Y310406D01*
X454224D01*
Y309840D01*
X454789D01*
Y308709D01*
X455354D01*
Y308144D01*
X455920D01*
Y307013D01*
X456486D01*
Y306447D01*
X457051D01*
Y305316D01*
X457617D01*
Y304185D01*
X458182D01*
Y303619D01*
X458748D01*
Y302488D01*
X459313D01*
Y301357D01*
X459879D01*
Y300226D01*
X460444D01*
Y298529D01*
X461010D01*
Y297398D01*
X461576D01*
Y295702D01*
X462141D01*
Y294005D01*
X462707D01*
Y292308D01*
X463272D01*
Y290612D01*
X463838D01*
Y288349D01*
X464403D01*
Y285522D01*
X464969D01*
Y280997D01*
X465534D01*
Y273080D01*
X464969D01*
Y271949D01*
X464403D01*
Y270818D01*
X463838D01*
Y269687D01*
X463272D01*
Y269121D01*
X462707D01*
Y268555D01*
X461576D01*
Y267990D01*
X460444D01*
Y267424D01*
X459313D01*
Y266859D01*
X454789D01*
Y267424D01*
X453658D01*
Y267990D01*
X452527D01*
Y268555D01*
X451396D01*
Y269121D01*
X450830D01*
Y269687D01*
X450265D01*
Y270818D01*
X449699D01*
Y271949D01*
X449133D01*
Y273080D01*
X448568D01*
Y279866D01*
X448002D01*
Y283825D01*
X447437D01*
Y286087D01*
X446871D01*
Y288349D01*
X446306D01*
Y290046D01*
X445740D01*
Y291177D01*
X445175D01*
Y292308D01*
X444609D01*
Y294005D01*
X444044D01*
Y295136D01*
X443478D01*
Y295702D01*
X442912D01*
Y296833D01*
X442347D01*
Y297964D01*
X441781D01*
Y298529D01*
X441216D01*
Y299660D01*
X440650D01*
Y300226D01*
X440085D01*
Y301357D01*
X439519D01*
Y301923D01*
X438954D01*
Y302488D01*
X438388D01*
Y303054D01*
X437823D01*
Y303619D01*
X437257D01*
Y304185D01*
X436692D01*
Y304750D01*
X436126D01*
Y305882D01*
X434995D01*
Y306447D01*
X434429D01*
Y307013D01*
X433864D01*
Y307578D01*
X433298D01*
Y308144D01*
X432733D01*
Y308709D01*
X432167D01*
Y309275D01*
X431036D01*
Y309840D01*
X430471D01*
Y310406D01*
X429339D01*
Y310971D01*
X428774D01*
Y311537D01*
X427643D01*
Y312103D01*
X426512D01*
Y312668D01*
X425946D01*
Y313234D01*
X424815D01*
Y313799D01*
X423684D01*
Y314365D01*
X421987D01*
Y314930D01*
X420856D01*
Y315496D01*
X419160D01*
Y316061D01*
X416897D01*
Y316627D01*
X414635D01*
Y317192D01*
X411242D01*
Y317758D01*
X403890D01*
Y318323D01*
X402759D01*
Y318889D01*
X401628D01*
Y319455D01*
X400496D01*
Y320020D01*
X399931D01*
Y320586D01*
X399365D01*
Y321717D01*
X398800D01*
Y322848D01*
X398234D01*
Y323979D01*
X397669D01*
Y328503D01*
X398234D01*
Y329634D01*
X398800D01*
Y330766D01*
X399365D01*
Y331897D01*
X399931D01*
Y332462D01*
X400496D01*
Y333028D01*
X401628D01*
Y333593D01*
X402759D01*
Y334159D01*
X403890D01*
Y334724D01*
X411807D01*
Y334159D01*
D02*
G37*
G36*
X409545Y300226D02*
X412938D01*
Y299660D01*
X414635D01*
Y299095D01*
X415766D01*
Y298529D01*
X417463D01*
Y297964D01*
X418594D01*
Y297398D01*
X419160D01*
Y296833D01*
X420291D01*
Y296267D01*
X420856D01*
Y295702D01*
X421987D01*
Y295136D01*
X422553D01*
Y294571D01*
X423118D01*
Y294005D01*
X423684D01*
Y293439D01*
X424249D01*
Y292874D01*
X424815D01*
Y292308D01*
X425381D01*
Y291743D01*
X425946D01*
Y291177D01*
X426512D01*
Y290046D01*
X427077D01*
Y289481D01*
X427643D01*
Y288349D01*
X428208D01*
Y287784D01*
X428774D01*
Y286653D01*
X429339D01*
Y284956D01*
X429905D01*
Y284391D01*
Y283825D01*
X430471D01*
Y281563D01*
X431036D01*
Y278735D01*
X431602D01*
Y271949D01*
X431036D01*
Y269121D01*
X430471D01*
Y266859D01*
X429905D01*
Y265728D01*
X429339D01*
Y264597D01*
X428774D01*
Y262900D01*
X428208D01*
Y262334D01*
X427643D01*
Y261203D01*
X427077D01*
Y260638D01*
X426512D01*
Y259507D01*
X425946D01*
Y258941D01*
X425381D01*
Y258376D01*
X424815D01*
Y257810D01*
X424249D01*
Y257244D01*
X423684D01*
Y256679D01*
X423118D01*
Y256113D01*
X422553D01*
Y255548D01*
X421987D01*
Y254982D01*
X420856D01*
Y254417D01*
X420291D01*
Y253851D01*
X419160D01*
Y253286D01*
X418594D01*
Y252720D01*
X417463D01*
Y252155D01*
X415766D01*
Y251589D01*
X414635D01*
Y251024D01*
X412373D01*
Y250458D01*
X409545D01*
Y249892D01*
X402759D01*
Y250458D01*
X399931D01*
Y251024D01*
X397669D01*
Y251589D01*
X396538D01*
Y252155D01*
X395407D01*
Y252720D01*
X393710D01*
Y253286D01*
X393144D01*
Y253851D01*
X392013D01*
Y254417D01*
X391448D01*
Y254982D01*
X390317D01*
Y255548D01*
X389751D01*
Y256113D01*
X389186D01*
Y256679D01*
X388620D01*
Y257244D01*
X388054D01*
Y257810D01*
X387489D01*
Y258376D01*
X386923D01*
Y258941D01*
X386358D01*
Y259507D01*
X385792D01*
Y260638D01*
X385227D01*
Y261203D01*
X384661D01*
Y262334D01*
X384096D01*
Y262900D01*
X383530D01*
Y264031D01*
X382965D01*
Y265728D01*
X382399D01*
Y266859D01*
X381833D01*
Y269121D01*
X381268D01*
Y271949D01*
X380702D01*
Y278735D01*
X381268D01*
Y281563D01*
X381833D01*
Y283825D01*
X382399D01*
Y284956D01*
X382965D01*
Y286653D01*
X383530D01*
Y287784D01*
X384096D01*
Y288349D01*
X384661D01*
Y289481D01*
X385227D01*
Y290046D01*
X385792D01*
Y291177D01*
X386358D01*
Y291743D01*
X386923D01*
Y292308D01*
X387489D01*
Y292874D01*
X388054D01*
Y293439D01*
X388620D01*
Y294005D01*
X389186D01*
Y294571D01*
X389751D01*
Y295136D01*
X390317D01*
Y295702D01*
X391448D01*
Y296267D01*
X392013D01*
Y296833D01*
X393144D01*
Y297398D01*
X393710D01*
Y297964D01*
X394841D01*
Y298529D01*
X396538D01*
Y299095D01*
X397669D01*
Y299660D01*
X399931D01*
Y300226D01*
X402759D01*
Y300792D01*
X409545D01*
Y300226D01*
D02*
G37*
G36*
X463838Y231229D02*
X467231D01*
Y230664D01*
X469493D01*
Y230098D01*
X471190D01*
Y229533D01*
X472321D01*
Y228967D01*
X474018D01*
Y228402D01*
X475149D01*
Y227836D01*
X476280D01*
Y227271D01*
X476845D01*
Y226705D01*
X477976D01*
Y226139D01*
X478542D01*
Y225574D01*
X479673D01*
Y225008D01*
X480239D01*
Y224443D01*
X480804D01*
Y223877D01*
X481370D01*
Y223312D01*
X482501D01*
Y222746D01*
X483066D01*
Y222181D01*
X483632D01*
Y221615D01*
X484197D01*
Y220484D01*
X484763D01*
Y219918D01*
X485328D01*
Y219353D01*
X485894D01*
Y218787D01*
X486460D01*
Y217656D01*
X487025D01*
Y217091D01*
X487591D01*
Y215959D01*
X488156D01*
Y215394D01*
X488722D01*
Y214263D01*
X489287D01*
Y213132D01*
X489853D01*
Y212001D01*
X490419D01*
Y210870D01*
X490984D01*
Y209739D01*
X491549D01*
Y208042D01*
X492115D01*
Y206345D01*
X492681D01*
Y204649D01*
X493246D01*
Y202386D01*
X493812D01*
Y199559D01*
X494377D01*
Y195034D01*
X494943D01*
Y184289D01*
X494377D01*
Y179764D01*
X493812D01*
Y176937D01*
X493246D01*
Y174675D01*
X492681D01*
Y172978D01*
X492115D01*
Y171281D01*
X491549D01*
Y169585D01*
X490984D01*
Y168454D01*
X490419D01*
Y167323D01*
X489853D01*
Y166191D01*
X489287D01*
Y165060D01*
X488722D01*
Y163929D01*
X488156D01*
Y163364D01*
X487591D01*
Y162233D01*
X487025D01*
Y161667D01*
X486460D01*
Y160536D01*
X485894D01*
Y159970D01*
X485328D01*
Y159405D01*
X484763D01*
Y158839D01*
X484197D01*
Y158274D01*
X483632D01*
Y157143D01*
X483066D01*
Y156577D01*
X482501D01*
Y156012D01*
X481935D01*
Y155446D01*
X480804D01*
Y154881D01*
X480239D01*
Y154315D01*
X479673D01*
Y153749D01*
X479108D01*
Y153184D01*
X477976D01*
Y152618D01*
X477411D01*
Y152053D01*
X476280D01*
Y151487D01*
X475149D01*
Y150922D01*
X474018D01*
Y150356D01*
X472887D01*
Y149791D01*
X471755D01*
Y149225D01*
X470059D01*
Y148659D01*
X468362D01*
Y148094D01*
X466100D01*
Y147528D01*
X462141D01*
Y146963D01*
X437823D01*
Y147528D01*
X436126D01*
Y148094D01*
X435560D01*
Y148659D01*
X434429D01*
Y149225D01*
X433864D01*
Y149791D01*
X433298D01*
Y150356D01*
X432733D01*
Y151487D01*
X432167D01*
Y153184D01*
X431602D01*
Y226139D01*
X432167D01*
Y227271D01*
X432733D01*
Y228402D01*
X433298D01*
Y228967D01*
X433864D01*
Y229533D01*
X434429D01*
Y230098D01*
X434995D01*
Y230664D01*
X436126D01*
Y231229D01*
X437823D01*
Y231795D01*
X463838D01*
Y231229D01*
D02*
G37*
G36*
X412373D02*
X413504D01*
Y230664D01*
X414635D01*
Y230098D01*
X415766D01*
Y229533D01*
X416332D01*
Y228967D01*
X416897D01*
Y227836D01*
X417463D01*
Y226705D01*
X418028D01*
Y225574D01*
X418594D01*
Y153184D01*
X418028D01*
Y152053D01*
X417463D01*
Y150922D01*
X416897D01*
Y149791D01*
X416332D01*
Y149225D01*
X415766D01*
Y148659D01*
X414635D01*
Y148094D01*
X413504D01*
Y147528D01*
X412373D01*
Y146963D01*
X407849D01*
Y147528D01*
X406717D01*
Y148094D01*
X405586D01*
Y148659D01*
X404455D01*
Y149225D01*
X403890D01*
Y149791D01*
X403324D01*
Y150922D01*
X402759D01*
Y152053D01*
X402193D01*
Y153184D01*
X401628D01*
Y192207D01*
Y192772D01*
Y225574D01*
X402193D01*
Y226705D01*
X402759D01*
Y227836D01*
X403324D01*
Y228967D01*
X403890D01*
Y229533D01*
X404455D01*
Y230098D01*
X405586D01*
Y230664D01*
X406717D01*
Y231229D01*
X407849D01*
Y231795D01*
X412373D01*
Y231229D01*
D02*
G37*
G36*
X385227D02*
X386923D01*
Y230664D01*
X388054D01*
Y230098D01*
X388620D01*
Y229533D01*
X389186D01*
Y228967D01*
X389751D01*
Y228402D01*
X390317D01*
Y227271D01*
X390882D01*
Y226139D01*
X391448D01*
Y220484D01*
X390882D01*
Y219353D01*
X390317D01*
Y218222D01*
X389751D01*
Y217656D01*
X389186D01*
Y217091D01*
X388620D01*
Y216525D01*
X388054D01*
Y215959D01*
X386923D01*
Y215394D01*
X385227D01*
Y214828D01*
X364301D01*
Y198428D01*
X383530D01*
Y197862D01*
X384661D01*
Y197297D01*
X385792D01*
Y196731D01*
X386358D01*
Y196165D01*
X386923D01*
Y195600D01*
X387489D01*
Y195034D01*
X388054D01*
Y193903D01*
X388620D01*
Y192772D01*
X389186D01*
Y187117D01*
X388620D01*
Y185986D01*
X388054D01*
Y184854D01*
X387489D01*
Y184289D01*
X386923D01*
Y183723D01*
X386358D01*
Y183158D01*
X385227D01*
Y182592D01*
X384661D01*
Y182027D01*
X382965D01*
Y181461D01*
X364301D01*
Y154315D01*
X363736D01*
Y152053D01*
X363170D01*
Y150922D01*
X362605D01*
Y150356D01*
X362039D01*
Y149791D01*
X361474D01*
Y149225D01*
X360908D01*
Y148659D01*
X360343D01*
Y148094D01*
X359212D01*
Y147528D01*
X357515D01*
Y146963D01*
X353556D01*
Y147528D01*
X351859D01*
Y148094D01*
X350728D01*
Y148659D01*
X350163D01*
Y149225D01*
X349597D01*
Y149791D01*
X349032D01*
Y150356D01*
X348466D01*
Y151487D01*
X347901D01*
Y152618D01*
X347335D01*
Y226139D01*
X347901D01*
Y227271D01*
X348466D01*
Y228402D01*
X349032D01*
Y228967D01*
X349597D01*
Y229533D01*
X350163D01*
Y230098D01*
X350728D01*
Y230664D01*
X351859D01*
Y231229D01*
X353556D01*
Y231795D01*
X385227D01*
Y231229D01*
D02*
G37*
G36*
X312837D02*
X315664D01*
Y230664D01*
X317361D01*
Y230098D01*
X319058D01*
Y229533D01*
X320189D01*
Y228967D01*
X321885D01*
Y228402D01*
X322451D01*
Y227836D01*
X323582D01*
Y227271D01*
X324713D01*
Y226705D01*
X325279D01*
Y226139D01*
X325844D01*
Y225574D01*
X326975D01*
Y225008D01*
X327541D01*
Y224443D01*
X328106D01*
Y223877D01*
X328672D01*
Y223312D01*
X329238D01*
Y222746D01*
X329803D01*
Y221615D01*
X330369D01*
Y221049D01*
X330934D01*
Y220484D01*
X331500D01*
Y219353D01*
X332065D01*
Y218787D01*
X332631D01*
Y217656D01*
X333196D01*
Y216525D01*
X333762D01*
Y215394D01*
X334328D01*
Y213697D01*
X334893D01*
Y212001D01*
X335459D01*
Y208607D01*
X336024D01*
Y202386D01*
X335459D01*
Y199559D01*
X334893D01*
Y197862D01*
X334328D01*
Y196165D01*
X333762D01*
Y195034D01*
X333196D01*
Y193903D01*
X332631D01*
Y192772D01*
X332065D01*
Y191641D01*
X331500D01*
Y191075D01*
X330934D01*
Y189944D01*
X330369D01*
Y189379D01*
X329803D01*
Y188813D01*
X329238D01*
Y188248D01*
X328672D01*
Y187682D01*
X328106D01*
Y187117D01*
X327541D01*
Y186551D01*
X326975D01*
Y185986D01*
X326410D01*
Y185420D01*
X325844D01*
Y184854D01*
X324713D01*
Y184289D01*
X324148D01*
Y183723D01*
X323017D01*
Y183158D01*
X321885D01*
Y182592D01*
X320754D01*
Y182027D01*
X319623D01*
Y181461D01*
X317927D01*
Y180896D01*
X316796D01*
Y180330D01*
X317361D01*
Y179199D01*
X317927D01*
Y178633D01*
X318492D01*
Y178068D01*
X319058D01*
Y177502D01*
X319623D01*
Y176937D01*
X320189D01*
Y176371D01*
X320754D01*
Y175806D01*
X321320D01*
Y174675D01*
X321885D01*
Y174109D01*
X322451D01*
Y173543D01*
X323017D01*
Y172978D01*
X323582D01*
Y172412D01*
X324148D01*
Y171847D01*
X324713D01*
Y171281D01*
X325279D01*
Y170716D01*
X325844D01*
Y169585D01*
X326410D01*
Y169019D01*
X326975D01*
Y168454D01*
X327541D01*
Y167888D01*
X328106D01*
Y167323D01*
X328672D01*
Y166757D01*
X329238D01*
Y166191D01*
X329803D01*
Y165060D01*
X330369D01*
Y164495D01*
X330934D01*
Y163929D01*
X331500D01*
Y163364D01*
X332065D01*
Y162798D01*
X332631D01*
Y162233D01*
X333196D01*
Y161667D01*
X333762D01*
Y160536D01*
X334328D01*
Y159970D01*
X334893D01*
Y158839D01*
X335459D01*
Y157143D01*
X336024D01*
Y153749D01*
X335459D01*
Y152053D01*
X334893D01*
Y150922D01*
X334328D01*
Y150356D01*
X333762D01*
Y149225D01*
X332631D01*
Y148659D01*
X332065D01*
Y148094D01*
X330934D01*
Y147528D01*
X329238D01*
Y146963D01*
X325279D01*
Y147528D01*
X323582D01*
Y148094D01*
X323017D01*
Y148659D01*
X321885D01*
Y149225D01*
X321320D01*
Y149791D01*
X320754D01*
Y150356D01*
X320189D01*
Y150922D01*
X319623D01*
Y152053D01*
X319058D01*
Y152618D01*
X318492D01*
Y153184D01*
X317927D01*
Y153749D01*
X317361D01*
Y154315D01*
X316796D01*
Y154881D01*
X316230D01*
Y155446D01*
X315664D01*
Y156577D01*
X315099D01*
Y157143D01*
X314533D01*
Y157708D01*
X313968D01*
Y158274D01*
X313402D01*
Y158839D01*
X312837D01*
Y159405D01*
X312271D01*
Y159970D01*
X311706D01*
Y161101D01*
X311140D01*
Y161667D01*
X310574D01*
Y162233D01*
X310009D01*
Y162798D01*
X309443D01*
Y163364D01*
X308878D01*
Y163929D01*
X308312D01*
Y164495D01*
X307747D01*
Y165060D01*
X307181D01*
Y166191D01*
X306616D01*
Y166757D01*
X306050D01*
Y167323D01*
X305485D01*
Y167888D01*
X304919D01*
Y168454D01*
X304354D01*
Y169019D01*
X303788D01*
Y169585D01*
X303222D01*
Y170716D01*
X302657D01*
Y171281D01*
X302091D01*
Y171847D01*
X301526D01*
Y172412D01*
X300960D01*
Y172978D01*
X300395D01*
Y173543D01*
X299829D01*
Y174109D01*
X299264D01*
Y153184D01*
X298698D01*
Y152053D01*
X298132D01*
Y150922D01*
X297567D01*
Y149791D01*
X297001D01*
Y149225D01*
X296436D01*
Y148659D01*
X295305D01*
Y148094D01*
X294174D01*
Y147528D01*
X293043D01*
Y146963D01*
X288518D01*
Y147528D01*
X287387D01*
Y148094D01*
X286256D01*
Y148659D01*
X285125D01*
Y149225D01*
X284559D01*
Y149791D01*
X283994D01*
Y150922D01*
X283428D01*
Y152053D01*
X282863D01*
Y153184D01*
X282297D01*
Y220484D01*
Y221049D01*
Y225574D01*
X282863D01*
Y226705D01*
X283428D01*
Y227836D01*
X283994D01*
Y228967D01*
X284559D01*
Y229533D01*
X285125D01*
Y230098D01*
X286256D01*
Y230664D01*
X287387D01*
Y231229D01*
X288518D01*
Y231795D01*
X312837D01*
Y231229D01*
D02*
G37*
G36*
X373916Y402024D02*
X375047D01*
Y401459D01*
X376178D01*
Y400893D01*
X377309D01*
Y400328D01*
X377875D01*
Y399762D01*
X378440D01*
Y398631D01*
X379006D01*
Y397500D01*
X379571D01*
Y396369D01*
X380137D01*
Y391845D01*
X379571D01*
Y390714D01*
X379006D01*
Y389582D01*
X378440D01*
Y388451D01*
X377875D01*
Y387886D01*
X377309D01*
Y387320D01*
X376178D01*
Y386755D01*
X375047D01*
Y386189D01*
X373916D01*
Y385624D01*
X272117D01*
Y385058D01*
X270421D01*
Y384492D01*
X268724D01*
Y383927D01*
X267593D01*
Y383361D01*
X267027D01*
Y382796D01*
X265896D01*
Y382230D01*
X265331D01*
Y381665D01*
X264765D01*
Y381099D01*
X264200D01*
Y380534D01*
X263634D01*
Y379403D01*
X263069D01*
Y378837D01*
X262503D01*
Y377706D01*
X261938D01*
Y376009D01*
X261372D01*
Y374313D01*
X260806D01*
Y141307D01*
X261372D01*
Y139611D01*
X261938D01*
Y137914D01*
X262503D01*
Y136783D01*
X263069D01*
Y136217D01*
X263634D01*
Y135086D01*
X264200D01*
Y134521D01*
X264765D01*
Y133955D01*
X265331D01*
Y133390D01*
X265896D01*
Y132824D01*
X267027D01*
Y132259D01*
X267593D01*
Y131693D01*
X268724D01*
Y131128D01*
X270421D01*
Y130562D01*
X272117D01*
Y129996D01*
X505123D01*
Y130562D01*
X506819D01*
Y131128D01*
X508516D01*
Y131693D01*
X509647D01*
Y132259D01*
X510213D01*
Y132824D01*
X511344D01*
Y133390D01*
X511909D01*
Y133955D01*
X512475D01*
Y134521D01*
X513040D01*
Y135086D01*
X513606D01*
Y136217D01*
X514171D01*
Y136783D01*
X514737D01*
Y137914D01*
X515303D01*
Y139611D01*
X515868D01*
Y141307D01*
X516434D01*
Y240278D01*
Y240844D01*
Y243671D01*
X516999D01*
Y244802D01*
X517565D01*
Y245933D01*
X518130D01*
Y247065D01*
X518696D01*
Y247630D01*
X519261D01*
Y248196D01*
X520392D01*
Y248761D01*
X521524D01*
Y249327D01*
X522655D01*
Y249892D01*
X527179D01*
Y249327D01*
X528310D01*
Y248761D01*
X529441D01*
Y248196D01*
X530572D01*
Y247630D01*
X531138D01*
Y247065D01*
X531703D01*
Y245933D01*
X532269D01*
Y244802D01*
X532834D01*
Y243671D01*
X533400D01*
Y140176D01*
X532834D01*
Y136783D01*
X532269D01*
Y135086D01*
X531703D01*
Y133390D01*
X531138D01*
Y131693D01*
X530572D01*
Y130562D01*
X530007D01*
Y129431D01*
X529441D01*
Y128300D01*
X528876D01*
Y127734D01*
X528310D01*
Y126603D01*
X527744D01*
Y126038D01*
X527179D01*
Y124907D01*
X526614D01*
Y124341D01*
X526048D01*
Y123775D01*
X525482D01*
Y123210D01*
X524917D01*
Y122644D01*
X524351D01*
Y122079D01*
X523786D01*
Y121513D01*
X523220D01*
Y120948D01*
X522655D01*
Y120382D01*
X522089D01*
Y119817D01*
X521524D01*
Y119251D01*
X520392D01*
Y118686D01*
X519827D01*
Y118120D01*
X518696D01*
Y117554D01*
X518130D01*
Y116989D01*
X516999D01*
Y116423D01*
X515868D01*
Y115858D01*
X514737D01*
Y115292D01*
X513040D01*
Y114727D01*
X511344D01*
Y114161D01*
X509647D01*
Y113596D01*
X506254D01*
Y113030D01*
X270986D01*
Y113596D01*
X267593D01*
Y114161D01*
X265896D01*
Y114727D01*
X264200D01*
Y115292D01*
X262503D01*
Y115858D01*
X261372D01*
Y116423D01*
X260241D01*
Y116989D01*
X259110D01*
Y117554D01*
X258544D01*
Y118120D01*
X257413D01*
Y118686D01*
X256848D01*
Y119251D01*
X255716D01*
Y119817D01*
X255151D01*
Y120382D01*
X254585D01*
Y120948D01*
X254020D01*
Y121513D01*
X253454D01*
Y122079D01*
X252889D01*
Y122644D01*
X252323D01*
Y123210D01*
X251758D01*
Y123775D01*
X251192D01*
Y124341D01*
X250627D01*
Y124907D01*
X250061D01*
Y126038D01*
X249496D01*
Y126603D01*
X248930D01*
Y127734D01*
X248364D01*
Y128300D01*
X247799D01*
Y129431D01*
X247233D01*
Y130562D01*
X246668D01*
Y131693D01*
X246102D01*
Y133390D01*
X245537D01*
Y135086D01*
X244971D01*
Y136783D01*
X244406D01*
Y140176D01*
X243840D01*
Y375444D01*
X244406D01*
Y378837D01*
X244971D01*
Y380534D01*
X245537D01*
Y382230D01*
X246102D01*
Y383927D01*
X246668D01*
Y385058D01*
X247233D01*
Y386189D01*
X247799D01*
Y387320D01*
X248364D01*
Y387886D01*
X248930D01*
Y389017D01*
X249496D01*
Y389582D01*
X250061D01*
Y390714D01*
X250627D01*
Y391279D01*
X251192D01*
Y391845D01*
X251758D01*
Y392410D01*
X252323D01*
Y392976D01*
X252889D01*
Y393541D01*
X253454D01*
Y394107D01*
X254020D01*
Y394672D01*
X254585D01*
Y395238D01*
X255151D01*
Y395803D01*
X255716D01*
Y396369D01*
X256848D01*
Y396935D01*
X257413D01*
Y397500D01*
X258544D01*
Y398066D01*
X259110D01*
Y398631D01*
X260241D01*
Y399197D01*
X261372D01*
Y399762D01*
X262503D01*
Y400328D01*
X264200D01*
Y400893D01*
X265896D01*
Y401459D01*
X267593D01*
Y402024D01*
X270986D01*
Y402590D01*
X373916D01*
Y402024D01*
D02*
G37*
%LPC*%
G36*
X462141Y214828D02*
X448568D01*
Y201255D01*
Y200690D01*
Y163929D01*
X461010D01*
Y164495D01*
X463838D01*
Y165060D01*
X465534D01*
Y165626D01*
X466665D01*
Y166191D01*
X467797D01*
Y166757D01*
X468928D01*
Y167323D01*
X469493D01*
Y167888D01*
X470059D01*
Y168454D01*
X470624D01*
Y169019D01*
X471190D01*
Y169585D01*
X471755D01*
Y170150D01*
X472321D01*
Y170716D01*
X472887D01*
Y171847D01*
X473452D01*
Y172412D01*
X474018D01*
Y173543D01*
X474583D01*
Y174675D01*
X475149D01*
Y175806D01*
X475714D01*
Y177502D01*
X476280D01*
Y179199D01*
X476845D01*
Y181461D01*
X477411D01*
Y184854D01*
X477976D01*
Y194469D01*
X477411D01*
Y197862D01*
X476845D01*
Y200124D01*
X476280D01*
Y201821D01*
X475714D01*
Y203517D01*
X475149D01*
Y204649D01*
X474583D01*
Y205780D01*
X474018D01*
Y206911D01*
X473452D01*
Y207476D01*
X472887D01*
Y208607D01*
X472321D01*
Y209173D01*
X471755D01*
Y209739D01*
X471190D01*
Y210304D01*
X470624D01*
Y210870D01*
X470059D01*
Y211435D01*
X468928D01*
Y212001D01*
X468362D01*
Y212566D01*
X467231D01*
Y213132D01*
X466100D01*
Y213697D01*
X464403D01*
Y214263D01*
X462141D01*
Y214828D01*
D02*
G37*
G36*
X311140D02*
X299264D01*
Y196731D01*
X312271D01*
Y197297D01*
X313402D01*
Y197862D01*
X314533D01*
Y198428D01*
X315099D01*
Y198993D01*
X316230D01*
Y199559D01*
X316796D01*
Y200690D01*
X317361D01*
Y201255D01*
X317927D01*
Y202386D01*
X318492D01*
Y204083D01*
X319058D01*
Y207476D01*
X318492D01*
Y209173D01*
X317927D01*
Y210304D01*
X317361D01*
Y210870D01*
X316796D01*
Y211435D01*
X316230D01*
Y212001D01*
X315664D01*
Y212566D01*
X315099D01*
Y213132D01*
X313968D01*
Y213697D01*
X312837D01*
Y214263D01*
X311140D01*
Y214828D01*
D02*
G37*
%LPD*%
D10*
X931270Y146190D02*
G03*
X931270Y146190I-1250J0D01*
G01*
X1067000Y57150D02*
G03*
X1067000Y57150I-1250J0D01*
G01*
X920650Y276700D02*
G03*
X920650Y276700I-1250J0D01*
G01*
X1064490Y455930D02*
G03*
X1064490Y455930I-1250J0D01*
G01*
X719050Y452120D02*
G03*
X719050Y452120I-1250J0D01*
G01*
X1502340Y314690D02*
G03*
X1502340Y314690I-1250J0D01*
G01*
X1439110Y62230D02*
G03*
X1439110Y62230I-1250J0D01*
G01*
X1102910Y214410D02*
G03*
X1102910Y214410I-1250J0D01*
G01*
X1446510Y394800D02*
G03*
X1446510Y394800I-1250J0D01*
G01*
X1140060Y382910D02*
G03*
X1140060Y382910I-1250J0D01*
G01*
X1793220Y231910D02*
G03*
X1793220Y231910I-1250J0D01*
G01*
X1785600Y281170D02*
G03*
X1785600Y281170I-1250J0D01*
G01*
X1229480Y86360D02*
G03*
X1229480Y86360I-1250J0D01*
G01*
X1490750Y68580D02*
G03*
X1490750Y68580I-1250J0D01*
G01*
X1678920Y348900D02*
G03*
X1678920Y348900I-1250J0D01*
G01*
D11*
X1120740Y455930D02*
G03*
X1120740Y455930I-26000J0D01*
G01*
X775300Y452120D02*
G03*
X775300Y452120I-26000J0D01*
G01*
X1223520Y111760D02*
G03*
X1223520Y111760I-72500J0D01*
G01*
D12*
X1692250Y410210D02*
G03*
X1692250Y410210I-15850J0D01*
G01*
X1727810Y158750D02*
G03*
X1727810Y158750I-15850J0D01*
G01*
X1670660Y160020D02*
G03*
X1670660Y160020I-15850J0D01*
G01*
X1434440Y140970D02*
G03*
X1434440Y140970I-15850J0D01*
G01*
X828040Y187960D02*
G03*
X828040Y187960I-12700J0D01*
G01*
X704970Y253270D02*
G03*
X704970Y253270I-12700J0D01*
G01*
X704930Y321130D02*
G03*
X704930Y321130I-12700J0D01*
G01*
X828040Y222240D02*
G03*
X828040Y222240I-12700J0D01*
G01*
Y253270D02*
G03*
X828040Y253270I-12700J0D01*
G01*
Y284300D02*
G03*
X828040Y284300I-12700J0D01*
G01*
X704930Y185410D02*
G03*
X704930Y185410I-12700J0D01*
G01*
X936770Y173690D02*
X970770D01*
X936770Y136190D02*
X970770D01*
X973300Y39650D02*
X1033300D01*
Y74650D01*
X973300Y39650D02*
Y74650D01*
X1033300D01*
X925900Y273700D02*
Y278200D01*
X930400D01*
X985400D02*
X989900D01*
Y273700D02*
Y278200D01*
Y214200D02*
Y218700D01*
X985400Y214200D02*
X989900D01*
X925900D02*
Y218700D01*
Y214200D02*
X930400D01*
X748300Y419000D02*
X750300D01*
X748300Y406500D02*
X750300D01*
X1599090Y345690D02*
Y374190D01*
X1492090Y345690D02*
X1599090D01*
X1492090D02*
Y374190D01*
X1345410Y79730D02*
X1405410D01*
X1345410Y44730D02*
Y79730D01*
X1405410Y44730D02*
Y79730D01*
X1345410Y44730D02*
X1405410D01*
X1078330Y327930D02*
Y329930D01*
X1090830Y327930D02*
Y329930D01*
X1093740Y410310D02*
X1095740D01*
X1093740Y422810D02*
X1095740D01*
X1647810Y68580D02*
X1661810D01*
X819000Y375750D02*
X821000D01*
X819000Y364250D02*
X821000D01*
X822340Y152460D02*
Y154960D01*
X808340Y152460D02*
Y154960D01*
X847320Y128490D02*
X849320D01*
X847320Y140990D02*
X849320D01*
X1082660Y217410D02*
X1090660D01*
X1082660D02*
Y225410D01*
Y247410D02*
X1090660D01*
X1082660Y239410D02*
Y247410D01*
X1380060Y399050D02*
X1459660D01*
Y458550D01*
X1380060D02*
X1459660D01*
X1380060Y399050D02*
Y458550D01*
X1149560Y391160D02*
Y458310D01*
Y202310D02*
Y209560D01*
X1305460Y202310D02*
X1330560D01*
X1149560D02*
X1174660D01*
X1330560Y391160D02*
Y458310D01*
Y202310D02*
Y209560D01*
X1149560Y458310D02*
X1330560D01*
X1484360Y224560D02*
Y256810D01*
Y131810D02*
Y164060D01*
Y131810D02*
X1609360D01*
Y224560D02*
Y256810D01*
Y131810D02*
Y164060D01*
X1484360Y256810D02*
X1609360D01*
X861229Y246200D02*
X886291D01*
X861229Y223700D02*
X886291D01*
X861229Y274140D02*
X886291D01*
X861229Y251640D02*
X886291D01*
X1757970Y225160D02*
X1815470D01*
X1757970Y151160D02*
Y225160D01*
Y151160D02*
X1815470D01*
Y225160D01*
X1760850Y287920D02*
Y361920D01*
X1818350D01*
Y287920D02*
Y361920D01*
X1760850Y287920D02*
X1818350D01*
X842380Y196870D02*
Y199370D01*
X856880Y196870D02*
Y199370D01*
X881400Y335650D02*
X883900D01*
X881400Y350150D02*
X883900D01*
X1605400Y64280D02*
Y71280D01*
X1620400Y64280D02*
Y71280D01*
X1265230Y72360D02*
Y100360D01*
X1244980Y98860D02*
Y101110D01*
Y71610D02*
Y73860D01*
Y71610D02*
X1292480D01*
Y98860D02*
Y101110D01*
Y71610D02*
Y73860D01*
X1244980Y101110D02*
X1292480D01*
X1512750Y81580D02*
X1535250D01*
X1512750Y55580D02*
X1535250D01*
X1303540Y149490D02*
X1305040D01*
X1303540Y134990D02*
X1305040D01*
X1103779Y314349D02*
Y343511D01*
X1126341Y314349D02*
Y343511D01*
X1072483Y367513D02*
Y389513D01*
X1094060Y367460D02*
Y389460D01*
X1625170Y331900D02*
X1663920D01*
X1691420D02*
X1730170D01*
Y236900D02*
Y331900D01*
X1625170Y236900D02*
Y331900D01*
X1720170Y226900D02*
X1730170Y236900D01*
X1625170D02*
X1635170Y226900D01*
X1663920D01*
X1691420D02*
X1720170D01*
X1367160Y229440D02*
X1392160D01*
X1422160D02*
X1447160D01*
X1354660Y334440D02*
X1392160D01*
X1422160D02*
X1459660D01*
X1354660Y241940D02*
X1367160Y229440D01*
X1447160D02*
X1459660Y241940D01*
X1354660D02*
Y334440D01*
X1459660Y241940D02*
Y334440D01*
D13*
X1605400Y92280D02*
X1620400D01*
D14*
X934406Y189148D02*
Y187482D01*
X937738Y184150D01*
X941070Y187482D01*
Y189148D01*
X937738Y184150D02*
Y179152D01*
X944402D02*
X947735D01*
X946068D01*
Y189148D01*
X944402Y187482D01*
X1057199Y487598D02*
Y477602D01*
X1062198D01*
X1063864Y479268D01*
Y485932D01*
X1062198Y487598D01*
X1057199D01*
X1067196Y485932D02*
X1068862Y487598D01*
X1072195D01*
X1073861Y485932D01*
Y484266D01*
X1072195Y482600D01*
X1070528D01*
X1072195D01*
X1073861Y480934D01*
Y479268D01*
X1072195Y477602D01*
X1068862D01*
X1067196Y479268D01*
X714299Y485058D02*
Y475062D01*
X719298D01*
X720964Y476728D01*
Y483392D01*
X719298Y485058D01*
X714299D01*
X730961Y475062D02*
X724296D01*
X730961Y481726D01*
Y483392D01*
X729295Y485058D01*
X725962D01*
X724296Y483392D01*
X1786494Y139618D02*
X1783162D01*
X1784828D01*
Y131288D01*
X1783162Y129622D01*
X1781496D01*
X1779829Y131288D01*
X1796491Y129622D02*
X1789826D01*
X1796491Y136286D01*
Y137952D01*
X1794825Y139618D01*
X1791492D01*
X1789826Y137952D01*
X828681Y288208D02*
X835346D01*
X832013D01*
Y278212D01*
X838678D02*
Y288208D01*
X843676D01*
X845342Y286542D01*
Y283210D01*
X843676Y281544D01*
X838678D01*
X855339Y288208D02*
X848674D01*
Y283210D01*
X852007Y284876D01*
X853673D01*
X855339Y283210D01*
Y279878D01*
X853673Y278212D01*
X850341D01*
X848674Y279878D01*
X828681Y258998D02*
X835346D01*
X832013D01*
Y249002D01*
X838678D02*
Y258998D01*
X843676D01*
X845342Y257332D01*
Y254000D01*
X843676Y252334D01*
X838678D01*
X848674Y258998D02*
X855339D01*
Y257332D01*
X848674Y250668D01*
Y249002D01*
X772842Y172638D02*
X779506D01*
X776174D01*
Y162642D01*
X782839D02*
Y172638D01*
X787837D01*
X789503Y170972D01*
Y167640D01*
X787837Y165974D01*
X782839D01*
X792835Y162642D02*
X796168D01*
X794501D01*
Y172638D01*
X792835Y170972D01*
X801166Y162642D02*
X804498D01*
X802832D01*
Y172638D01*
X801166Y170972D01*
X1535116Y479978D02*
Y471648D01*
X1536782Y469982D01*
X1540114D01*
X1541780Y471648D01*
Y479978D01*
X1545112Y469982D02*
X1548445D01*
X1546778D01*
Y479978D01*
X1545112Y478312D01*
X975919Y294558D02*
Y286228D01*
X977586Y284562D01*
X980918D01*
X982584Y286228D01*
Y294558D01*
X992581Y284562D02*
X985916D01*
X992581Y291226D01*
Y292892D01*
X990915Y294558D01*
X987582D01*
X985916Y292892D01*
X1663071Y443148D02*
X1669736D01*
X1666403D01*
Y433152D01*
X1673068D02*
Y443148D01*
X1678066D01*
X1679732Y441482D01*
Y438150D01*
X1678066Y436484D01*
X1673068D01*
X1689729Y433152D02*
X1683065D01*
X1689729Y439816D01*
Y441482D01*
X1688063Y443148D01*
X1684731D01*
X1683065Y441482D01*
X1701567Y190418D02*
X1708232D01*
X1704899D01*
Y180422D01*
X1711564D02*
Y190418D01*
X1716562D01*
X1718228Y188752D01*
Y185420D01*
X1716562Y183754D01*
X1711564D01*
X1721561Y180422D02*
X1724893D01*
X1723227D01*
Y190418D01*
X1721561Y188752D01*
X1640211Y190418D02*
X1646875D01*
X1643543D01*
Y180422D01*
X1650208D02*
Y190418D01*
X1655206D01*
X1656872Y188752D01*
Y185420D01*
X1655206Y183754D01*
X1650208D01*
X1665203Y180422D02*
Y190418D01*
X1660204Y185420D01*
X1666869D01*
X1405261Y116758D02*
X1411926D01*
X1408593D01*
Y106762D01*
X1415258D02*
Y116758D01*
X1420256D01*
X1421922Y115092D01*
Y111760D01*
X1420256Y110094D01*
X1415258D01*
X1425255Y115092D02*
X1426921Y116758D01*
X1430253D01*
X1431919Y115092D01*
Y113426D01*
X1430253Y111760D01*
X1428587D01*
X1430253D01*
X1431919Y110094D01*
Y108428D01*
X1430253Y106762D01*
X1426921D01*
X1425255Y108428D01*
X666832Y238131D02*
Y244795D01*
Y241463D01*
X676828D01*
Y248128D02*
X666832D01*
Y253126D01*
X668498Y254792D01*
X671830D01*
X673496Y253126D01*
Y248128D01*
X668498Y258125D02*
X666832Y259791D01*
Y263123D01*
X668498Y264789D01*
X670164D01*
X671830Y263123D01*
X673496Y264789D01*
X675162D01*
X676828Y263123D01*
Y259791D01*
X675162Y258125D01*
X673496D01*
X671830Y259791D01*
X670164Y258125D01*
X668498D01*
X671830Y259791D02*
Y263123D01*
X677551Y346628D02*
X684215D01*
X680883D01*
Y336632D01*
X687548D02*
Y346628D01*
X692546D01*
X694212Y344962D01*
Y341630D01*
X692546Y339964D01*
X687548D01*
X704209Y346628D02*
X700877Y344962D01*
X697544Y341630D01*
Y338298D01*
X699211Y336632D01*
X702543D01*
X704209Y338298D01*
Y339964D01*
X702543Y341630D01*
X697544D01*
X686086Y168828D02*
X692750D01*
X689418D01*
Y158832D01*
X696082D02*
Y168828D01*
X701081D01*
X702747Y167162D01*
Y163830D01*
X701081Y162164D01*
X696082D01*
X706079Y158832D02*
X709411D01*
X707745D01*
Y168828D01*
X706079Y167162D01*
X714410D02*
X716076Y168828D01*
X719408D01*
X721074Y167162D01*
Y160498D01*
X719408Y158832D01*
X716076D01*
X714410Y160498D01*
Y167162D01*
X828681Y228518D02*
X835346D01*
X832013D01*
Y218522D01*
X838678D02*
Y228518D01*
X843676D01*
X845342Y226852D01*
Y223520D01*
X843676Y221854D01*
X838678D01*
X848674Y220188D02*
X850341Y218522D01*
X853673D01*
X855339Y220188D01*
Y226852D01*
X853673Y228518D01*
X850341D01*
X848674Y226852D01*
Y225186D01*
X850341Y223520D01*
X855339D01*
X999175Y30002D02*
X997509Y31668D01*
X994177D01*
X992511Y30002D01*
Y28336D01*
X994177Y26670D01*
X997509D01*
X999175Y25004D01*
Y23338D01*
X997509Y21672D01*
X994177D01*
X992511Y23338D01*
X1002508Y31668D02*
Y21672D01*
X1005840Y25004D01*
X1009172Y21672D01*
Y31668D01*
X1019169Y21672D02*
X1012505D01*
X1019169Y28336D01*
Y30002D01*
X1017503Y31668D01*
X1014171D01*
X1012505Y30002D01*
X1372952Y33812D02*
X1371286Y35478D01*
X1367953D01*
X1366287Y33812D01*
Y32146D01*
X1367953Y30480D01*
X1371286D01*
X1372952Y28814D01*
Y27148D01*
X1371286Y25482D01*
X1367953D01*
X1366287Y27148D01*
X1376284Y35478D02*
Y25482D01*
X1379616Y28814D01*
X1382948Y25482D01*
Y35478D01*
X1386281Y25482D02*
X1389613D01*
X1387947D01*
Y35478D01*
X1386281Y33812D01*
X1125138Y255474D02*
X1115142D01*
Y260472D01*
X1116808Y262139D01*
X1120140D01*
X1121806Y260472D01*
Y255474D01*
Y258806D02*
X1125138Y262139D01*
Y265471D02*
Y268803D01*
Y267137D01*
X1115142D01*
X1116808Y265471D01*
X1125138Y280466D02*
Y273801D01*
X1118474Y280466D01*
X1116808D01*
X1115142Y278800D01*
Y275468D01*
X1116808Y273801D01*
X1041959Y327742D02*
Y337738D01*
X1046958D01*
X1048624Y336072D01*
Y332740D01*
X1046958Y331074D01*
X1041959D01*
X1045292D02*
X1048624Y327742D01*
X1058621D02*
X1051956D01*
X1058621Y334406D01*
Y336072D01*
X1056954Y337738D01*
X1053622D01*
X1051956Y336072D01*
X1044540Y412832D02*
Y422828D01*
X1049539D01*
X1051205Y421162D01*
Y417830D01*
X1049539Y416164D01*
X1044540D01*
X1047872D02*
X1051205Y412832D01*
X1054537D02*
X1057869D01*
X1056203D01*
Y422828D01*
X1054537Y421162D01*
X1062868Y412832D02*
X1066200D01*
X1064534D01*
Y422828D01*
X1062868Y421162D01*
X1669736Y29292D02*
Y39288D01*
X1674734D01*
X1676400Y37622D01*
Y34290D01*
X1674734Y32624D01*
X1669736D01*
X1673068D02*
X1676400Y29292D01*
X1679732D02*
X1683065D01*
X1681398D01*
Y39288D01*
X1679732Y37622D01*
X741539Y391772D02*
Y401768D01*
X746538D01*
X748204Y400102D01*
Y396770D01*
X746538Y395104D01*
X741539D01*
X744872D02*
X748204Y391772D01*
X751536Y400102D02*
X753202Y401768D01*
X756535D01*
X758201Y400102D01*
Y398436D01*
X756535Y396770D01*
X754868D01*
X756535D01*
X758201Y395104D01*
Y393438D01*
X756535Y391772D01*
X753202D01*
X751536Y393438D01*
X800018Y363779D02*
X790022D01*
Y368778D01*
X791688Y370444D01*
X795020D01*
X796686Y368778D01*
Y363779D01*
Y367112D02*
X800018Y370444D01*
Y378774D02*
X790022D01*
X795020Y373776D01*
Y380441D01*
X645078Y220214D02*
X635082D01*
Y225213D01*
X636748Y226879D01*
X640080D01*
X641746Y225213D01*
Y220214D01*
Y223547D02*
X645078Y226879D01*
X636748Y230211D02*
X635082Y231877D01*
Y235210D01*
X636748Y236876D01*
X638414D01*
X640080Y235210D01*
X641746Y236876D01*
X643412D01*
X645078Y235210D01*
Y231877D01*
X643412Y230211D01*
X641746D01*
X640080Y231877D01*
X638414Y230211D01*
X636748D01*
X640080Y231877D02*
Y235210D01*
X646348Y288404D02*
X636352D01*
Y293403D01*
X638018Y295069D01*
X641350D01*
X643016Y293403D01*
Y288404D01*
Y291737D02*
X646348Y295069D01*
X644682Y298401D02*
X646348Y300067D01*
Y303400D01*
X644682Y305066D01*
X638018D01*
X636352Y303400D01*
Y300067D01*
X638018Y298401D01*
X639684D01*
X641350Y300067D01*
Y305066D01*
X678098Y205944D02*
X668102D01*
Y210942D01*
X669768Y212609D01*
X673100D01*
X674766Y210942D01*
Y205944D01*
Y209276D02*
X678098Y212609D01*
Y215941D02*
Y219273D01*
Y217607D01*
X668102D01*
X669768Y215941D01*
Y224272D02*
X668102Y225938D01*
Y229270D01*
X669768Y230936D01*
X676432D01*
X678098Y229270D01*
Y225938D01*
X676432Y224272D01*
X669768D01*
X680638Y278689D02*
X670642D01*
Y283688D01*
X672308Y285354D01*
X675640D01*
X677306Y283688D01*
Y278689D01*
Y282022D02*
X680638Y285354D01*
X670642Y288686D02*
Y295351D01*
X672308D01*
X678972Y288686D01*
X680638D01*
X803828Y140259D02*
X793832D01*
Y145258D01*
X795498Y146924D01*
X798830D01*
X800496Y145258D01*
Y140259D01*
Y143592D02*
X803828Y146924D01*
X793832Y156921D02*
X795498Y153588D01*
X798830Y150256D01*
X802162D01*
X803828Y151922D01*
Y155254D01*
X802162Y156921D01*
X800496D01*
X798830Y155254D01*
Y150256D01*
X866699Y129622D02*
Y139618D01*
X871698D01*
X873364Y137952D01*
Y134620D01*
X871698Y132954D01*
X866699D01*
X870032D02*
X873364Y129622D01*
X883361Y139618D02*
X876696D01*
Y134620D01*
X880028Y136286D01*
X881694D01*
X883361Y134620D01*
Y131288D01*
X881694Y129622D01*
X878362D01*
X876696Y131288D01*
X1094740Y197328D02*
Y203992D01*
X1093074Y205658D01*
X1089742D01*
X1088075Y203992D01*
Y197328D01*
X1089742Y195662D01*
X1093074D01*
X1091408Y198994D02*
X1094740Y195662D01*
X1093074D02*
X1094740Y197328D01*
X1098072Y195662D02*
X1101404D01*
X1099738D01*
Y205658D01*
X1098072Y203992D01*
X1415735Y466172D02*
Y476168D01*
X1420734D01*
X1422400Y474502D01*
Y471170D01*
X1420734Y469504D01*
X1415735D01*
X1425732Y466172D02*
X1429064D01*
X1427398D01*
Y476168D01*
X1425732Y474502D01*
X1227857Y374732D02*
Y384728D01*
X1231189Y381396D01*
X1234522Y384728D01*
Y374732D01*
X1237854Y384728D02*
Y374732D01*
X1242852D01*
X1244518Y376398D01*
Y383062D01*
X1242852Y384728D01*
X1237854D01*
X1247851Y374732D02*
X1251183D01*
X1249517D01*
Y384728D01*
X1247851Y383062D01*
X1138957Y140888D02*
Y130892D01*
X1145622D01*
X1155618Y139222D02*
X1153952Y140888D01*
X1150620D01*
X1148954Y139222D01*
Y137556D01*
X1150620Y135890D01*
X1153952D01*
X1155618Y134224D01*
Y132558D01*
X1153952Y130892D01*
X1150620D01*
X1148954Y132558D01*
X1158951Y130892D02*
X1162283D01*
X1160617D01*
Y140888D01*
X1158951Y139222D01*
X1537655Y278048D02*
Y268052D01*
X1544320D01*
X1547652D02*
X1550984D01*
X1549318D01*
Y278048D01*
X1547652Y276382D01*
X890829Y238678D02*
Y228682D01*
X897494D01*
X900826Y237012D02*
X902492Y238678D01*
X905825D01*
X907491Y237012D01*
Y235346D01*
X905825Y233680D01*
X904158D01*
X905825D01*
X907491Y232014D01*
Y230348D01*
X905825Y228682D01*
X902492D01*
X900826Y230348D01*
X892099Y267888D02*
Y257892D01*
X898764D01*
X908761D02*
X902096D01*
X908761Y264556D01*
Y266222D01*
X907094Y267888D01*
X903762D01*
X902096Y266222D01*
X1788160Y379648D02*
X1784828D01*
X1786494D01*
Y371318D01*
X1784828Y369652D01*
X1783162D01*
X1781496Y371318D01*
X1791492Y369652D02*
X1794825D01*
X1793158D01*
Y379648D01*
X1791492Y377982D01*
X844632Y181528D02*
X837967D01*
Y176530D01*
X841299D01*
X837967D01*
Y171532D01*
X847964Y181528D02*
Y171532D01*
X852962D01*
X854628Y173198D01*
Y174864D01*
X852962Y176530D01*
X847964D01*
X852962D01*
X854628Y178196D01*
Y179862D01*
X852962Y181528D01*
X847964D01*
X857961Y171532D02*
X861293D01*
X859627D01*
Y181528D01*
X857961Y179862D01*
X877652Y362906D02*
Y356241D01*
X882650D01*
Y359573D01*
Y356241D01*
X887648D01*
X877652Y366238D02*
X887648D01*
Y371236D01*
X885982Y372902D01*
X884316D01*
X882650Y371236D01*
Y366238D01*
Y371236D01*
X880984Y372902D01*
X879318D01*
X877652Y371236D01*
Y366238D01*
X887648Y382899D02*
Y376235D01*
X880984Y382899D01*
X879318D01*
X877652Y381233D01*
Y377901D01*
X879318Y376235D01*
X1591077Y41828D02*
Y31832D01*
X1596075D01*
X1597742Y33498D01*
Y40162D01*
X1596075Y41828D01*
X1591077D01*
X1607738Y40162D02*
X1606072Y41828D01*
X1602740D01*
X1601074Y40162D01*
Y38496D01*
X1602740Y36830D01*
X1606072D01*
X1607738Y35164D01*
Y33498D01*
X1606072Y31832D01*
X1602740D01*
X1601074Y33498D01*
X1611071Y31832D02*
X1614403D01*
X1612737D01*
Y41828D01*
X1611071Y40162D01*
X1259129Y62148D02*
Y52152D01*
X1264128D01*
X1265794Y53818D01*
Y60482D01*
X1264128Y62148D01*
X1259129D01*
X1274125Y52152D02*
Y62148D01*
X1269126Y57150D01*
X1275791D01*
X1518605Y48178D02*
Y38182D01*
X1523604D01*
X1525270Y39848D01*
Y46512D01*
X1523604Y48178D01*
X1518605D01*
X1528602Y38182D02*
X1531935D01*
X1530268D01*
Y48178D01*
X1528602Y46512D01*
X1293734Y167162D02*
X1292068Y168828D01*
X1288736D01*
X1287069Y167162D01*
Y160498D01*
X1288736Y158832D01*
X1292068D01*
X1293734Y160498D01*
X1303731Y168828D02*
X1297066D01*
Y163830D01*
X1300398Y165496D01*
X1302065D01*
X1303731Y163830D01*
Y160498D01*
X1302065Y158832D01*
X1298732D01*
X1297066Y160498D01*
X1113394Y356392D02*
X1111728Y358058D01*
X1108395D01*
X1106729Y356392D01*
Y349728D01*
X1108395Y348062D01*
X1111728D01*
X1113394Y349728D01*
X1123391Y358058D02*
X1120058Y356392D01*
X1116726Y353060D01*
Y349728D01*
X1118392Y348062D01*
X1121724D01*
X1123391Y349728D01*
Y351394D01*
X1121724Y353060D01*
X1116726D01*
X1109584Y438942D02*
X1107918Y440608D01*
X1104585D01*
X1102919Y438942D01*
Y432278D01*
X1104585Y430612D01*
X1107918D01*
X1109584Y432278D01*
X1117915Y430612D02*
Y440608D01*
X1112916Y435610D01*
X1119581D01*
X1070214Y404652D02*
X1068548Y406318D01*
X1065216D01*
X1063549Y404652D01*
Y397988D01*
X1065216Y396322D01*
X1068548D01*
X1070214Y397988D01*
X1073546Y404652D02*
X1075212Y406318D01*
X1078544D01*
X1080211Y404652D01*
Y402986D01*
X1078544Y401320D01*
X1076878D01*
X1078544D01*
X1080211Y399654D01*
Y397988D01*
X1078544Y396322D01*
X1075212D01*
X1073546Y397988D01*
X1674734Y365282D02*
X1673068Y366948D01*
X1669736D01*
X1668069Y365282D01*
Y358618D01*
X1669736Y356952D01*
X1673068D01*
X1674734Y358618D01*
X1684731Y356952D02*
X1678066D01*
X1684731Y363616D01*
Y365282D01*
X1683065Y366948D01*
X1679732D01*
X1678066Y365282D01*
X1407160Y362742D02*
X1405494Y364408D01*
X1402162D01*
X1400495Y362742D01*
Y356078D01*
X1402162Y354412D01*
X1405494D01*
X1407160Y356078D01*
X1410492Y354412D02*
X1413824D01*
X1412158D01*
Y364408D01*
X1410492Y362742D01*
X903488Y212882D02*
X901822Y214548D01*
X898490D01*
X896824Y212882D01*
Y206218D01*
X898490Y204552D01*
X901822D01*
X903488Y206218D01*
X906821Y204552D02*
X910153D01*
X908487D01*
Y214548D01*
X906821Y212882D01*
X915152D02*
X916818Y214548D01*
X920150D01*
X921816Y212882D01*
Y206218D01*
X920150Y204552D01*
X916818D01*
X915152Y206218D01*
Y212882D01*
X839948Y358658D02*
X838282Y356992D01*
Y353660D01*
X839948Y351994D01*
X846612D01*
X848278Y353660D01*
Y356992D01*
X846612Y358658D01*
X848278Y361991D02*
Y365323D01*
Y363657D01*
X838282D01*
X839948Y361991D01*
X838282Y376986D02*
Y370322D01*
X843280D01*
X841614Y373654D01*
Y375320D01*
X843280Y376986D01*
X846612D01*
X848278Y375320D01*
Y371988D01*
X846612Y370322D01*
X880629Y286542D02*
X878962Y288208D01*
X875630D01*
X873964Y286542D01*
Y279878D01*
X875630Y278212D01*
X878962D01*
X880629Y279878D01*
X883961Y278212D02*
X887293D01*
X885627D01*
Y288208D01*
X883961Y286542D01*
X892291Y288208D02*
X898956D01*
Y286542D01*
X892291Y279878D01*
Y278212D01*
X965678Y410728D02*
X964012Y409062D01*
Y405730D01*
X965678Y404064D01*
X972342D01*
X974008Y405730D01*
Y409062D01*
X972342Y410728D01*
X974008Y414061D02*
Y417393D01*
Y415727D01*
X964012D01*
X965678Y414061D01*
X974008Y427390D02*
X964012D01*
X969010Y422392D01*
Y429056D01*
X945398Y300512D02*
X943732Y302178D01*
X940400D01*
X938734Y300512D01*
Y293848D01*
X940400Y292182D01*
X943732D01*
X945398Y293848D01*
X948731Y292182D02*
X952063D01*
X950397D01*
Y302178D01*
X948731Y300512D01*
X963726Y292182D02*
X957061D01*
X963726Y298846D01*
Y300512D01*
X962060Y302178D01*
X958728D01*
X957061Y300512D01*
X834909Y304322D02*
X833242Y305988D01*
X829910D01*
X828244Y304322D01*
Y297658D01*
X829910Y295992D01*
X833242D01*
X834909Y297658D01*
X838241Y295992D02*
X841573D01*
X839907D01*
Y305988D01*
X838241Y304322D01*
X853236Y305988D02*
X849904Y304322D01*
X846572Y300990D01*
Y297658D01*
X848238Y295992D01*
X851570D01*
X853236Y297658D01*
Y299324D01*
X851570Y300990D01*
X846572D01*
X908528Y355245D02*
X906862Y353578D01*
Y350246D01*
X908528Y348580D01*
X915192D01*
X916858Y350246D01*
Y353578D01*
X915192Y355245D01*
X916858Y358577D02*
Y361909D01*
Y360243D01*
X906862D01*
X908528Y358577D01*
X916858Y366908D02*
Y370240D01*
Y368574D01*
X906862D01*
X908528Y366908D01*
X1027908Y251978D02*
X1026242Y250312D01*
Y246980D01*
X1027908Y245314D01*
X1034572D01*
X1036238Y246980D01*
Y250312D01*
X1034572Y251978D01*
X1036238Y255311D02*
Y258643D01*
Y256977D01*
X1026242D01*
X1027908Y255311D01*
Y263641D02*
X1026242Y265308D01*
Y268640D01*
X1027908Y270306D01*
X1029574D01*
X1031240Y268640D01*
Y266974D01*
Y268640D01*
X1032906Y270306D01*
X1034572D01*
X1036238Y268640D01*
Y265308D01*
X1034572Y263641D01*
X820938Y97472D02*
X819272Y99138D01*
X815940D01*
X814274Y97472D01*
Y90808D01*
X815940Y89142D01*
X819272D01*
X820938Y90808D01*
X824271Y89142D02*
X827603D01*
X825937D01*
Y99138D01*
X824271Y97472D01*
X832601Y90808D02*
X834268Y89142D01*
X837600D01*
X839266Y90808D01*
Y97472D01*
X837600Y99138D01*
X834268D01*
X832601Y97472D01*
Y95806D01*
X834268Y94140D01*
X839266D01*
X874278Y162082D02*
X872612Y163748D01*
X869280D01*
X867614Y162082D01*
Y155418D01*
X869280Y153752D01*
X872612D01*
X874278Y155418D01*
X877611Y153752D02*
X880943D01*
X879277D01*
Y163748D01*
X877611Y162082D01*
X885941D02*
X887608Y163748D01*
X890940D01*
X892606Y162082D01*
Y160416D01*
X890940Y158750D01*
X892606Y157084D01*
Y155418D01*
X890940Y153752D01*
X887608D01*
X885941Y155418D01*
Y157084D01*
X887608Y158750D01*
X885941Y160416D01*
Y162082D01*
X887608Y158750D02*
X890940D01*
X980918Y122794D02*
X979252Y121128D01*
Y117795D01*
X980918Y116129D01*
X987582D01*
X989248Y117795D01*
Y121128D01*
X987582Y122794D01*
X980918Y126126D02*
X979252Y127792D01*
Y131124D01*
X980918Y132791D01*
X982584D01*
X984250Y131124D01*
X985916Y132791D01*
X987582D01*
X989248Y131124D01*
Y127792D01*
X987582Y126126D01*
X985916D01*
X984250Y127792D01*
X982584Y126126D01*
X980918D01*
X984250Y127792D02*
Y131124D01*
X914878Y122794D02*
X913212Y121128D01*
Y117795D01*
X914878Y116129D01*
X921542D01*
X923208Y117795D01*
Y121128D01*
X921542Y122794D01*
X913212Y126126D02*
Y132791D01*
X914878D01*
X921542Y126126D01*
X923208D01*
X907654Y193832D02*
X905988Y195498D01*
X902655D01*
X900989Y193832D01*
Y187168D01*
X902655Y185502D01*
X905988D01*
X907654Y187168D01*
X910986D02*
X912652Y185502D01*
X915984D01*
X917651Y187168D01*
Y193832D01*
X915984Y195498D01*
X912652D01*
X910986Y193832D01*
Y192166D01*
X912652Y190500D01*
X917651D01*
X709138Y187645D02*
X707472Y185979D01*
Y182647D01*
X709138Y180981D01*
X715802D01*
X717468Y182647D01*
Y185979D01*
X715802Y187645D01*
X717468Y197642D02*
Y190978D01*
X710804Y197642D01*
X709138D01*
X707472Y195976D01*
Y192644D01*
X709138Y190978D01*
X715802Y200975D02*
X717468Y202641D01*
Y205973D01*
X715802Y207639D01*
X709138D01*
X707472Y205973D01*
Y202641D01*
X709138Y200975D01*
X710804D01*
X712470Y202641D01*
Y207639D01*
X709138Y301945D02*
X707472Y300279D01*
Y296947D01*
X709138Y295281D01*
X715802D01*
X717468Y296947D01*
Y300279D01*
X715802Y301945D01*
X717468Y311942D02*
Y305278D01*
X710804Y311942D01*
X709138D01*
X707472Y310276D01*
Y306944D01*
X709138Y305278D01*
Y315275D02*
X707472Y316941D01*
Y320273D01*
X709138Y321939D01*
X710804D01*
X712470Y320273D01*
Y318607D01*
Y320273D01*
X714136Y321939D01*
X715802D01*
X717468Y320273D01*
Y316941D01*
X715802Y315275D01*
X730728Y187645D02*
X729062Y185979D01*
Y182647D01*
X730728Y180981D01*
X737392D01*
X739058Y182647D01*
Y185979D01*
X737392Y187645D01*
X739058Y197642D02*
Y190978D01*
X732394Y197642D01*
X730728D01*
X729062Y195976D01*
Y192644D01*
X730728Y190978D01*
Y200975D02*
X729062Y202641D01*
Y205973D01*
X730728Y207639D01*
X732394D01*
X734060Y205973D01*
X735726Y207639D01*
X737392D01*
X739058Y205973D01*
Y202641D01*
X737392Y200975D01*
X735726D01*
X734060Y202641D01*
X732394Y200975D01*
X730728D01*
X734060Y202641D02*
Y205973D01*
X729458Y303216D02*
X727792Y301549D01*
Y298217D01*
X729458Y296551D01*
X736122D01*
X737788Y298217D01*
Y301549D01*
X736122Y303216D01*
X737788Y313212D02*
Y306548D01*
X731124Y313212D01*
X729458D01*
X727792Y311546D01*
Y308214D01*
X729458Y306548D01*
X737788Y323209D02*
Y316544D01*
X731124Y323209D01*
X729458D01*
X727792Y321543D01*
Y318211D01*
X729458Y316544D01*
X770098Y187645D02*
X768432Y185979D01*
Y182647D01*
X770098Y180981D01*
X776762D01*
X778428Y182647D01*
Y185979D01*
X776762Y187645D01*
X778428Y197642D02*
Y190978D01*
X771764Y197642D01*
X770098D01*
X768432Y195976D01*
Y192644D01*
X770098Y190978D01*
X768432Y207639D02*
X770098Y204307D01*
X773430Y200975D01*
X776762D01*
X778428Y202641D01*
Y205973D01*
X776762Y207639D01*
X775096D01*
X773430Y205973D01*
Y200975D01*
X770098Y303216D02*
X768432Y301549D01*
Y298217D01*
X770098Y296551D01*
X776762D01*
X778428Y298217D01*
Y301549D01*
X776762Y303216D01*
X778428Y313212D02*
Y306548D01*
X771764Y313212D01*
X770098D01*
X768432Y311546D01*
Y308214D01*
X770098Y306548D01*
Y316544D02*
X768432Y318211D01*
Y321543D01*
X770098Y323209D01*
X776762D01*
X778428Y321543D01*
Y318211D01*
X776762Y316544D01*
X770098D01*
X789148Y188916D02*
X787482Y187249D01*
Y183917D01*
X789148Y182251D01*
X795812D01*
X797478Y183917D01*
Y187249D01*
X795812Y188916D01*
X797478Y198912D02*
Y192248D01*
X790814Y198912D01*
X789148D01*
X787482Y197246D01*
Y193914D01*
X789148Y192248D01*
X787482Y208909D02*
Y202244D01*
X792480D01*
X790814Y205577D01*
Y207243D01*
X792480Y208909D01*
X795812D01*
X797478Y207243D01*
Y203911D01*
X795812Y202244D01*
X789148Y303216D02*
X787482Y301549D01*
Y298217D01*
X789148Y296551D01*
X795812D01*
X797478Y298217D01*
Y301549D01*
X795812Y303216D01*
X797478Y313212D02*
Y306548D01*
X790814Y313212D01*
X789148D01*
X787482Y311546D01*
Y308214D01*
X789148Y306548D01*
X797478Y321543D02*
X787482D01*
X792480Y316544D01*
Y323209D01*
X749778Y187645D02*
X748112Y185979D01*
Y182647D01*
X749778Y180981D01*
X756442D01*
X758108Y182647D01*
Y185979D01*
X756442Y187645D01*
X758108Y197642D02*
Y190978D01*
X751444Y197642D01*
X749778D01*
X748112Y195976D01*
Y192644D01*
X749778Y190978D01*
X748112Y200975D02*
Y207639D01*
X749778D01*
X756442Y200975D01*
X758108D01*
X749778Y303612D02*
X748112Y301945D01*
Y298613D01*
X749778Y296947D01*
X756442D01*
X758108Y298613D01*
Y301945D01*
X756442Y303612D01*
X758108Y313608D02*
Y306944D01*
X751444Y313608D01*
X749778D01*
X748112Y311942D01*
Y308610D01*
X749778Y306944D01*
X758108Y316941D02*
Y320273D01*
Y318607D01*
X748112D01*
X749778Y316941D01*
M02*
