G04*
G04 #@! TF.GenerationSoftware,Altium Limited,Altium Designer,23.3.1 (30)*
G04*
G04 Layer_Color=16711935*
%FSLAX44Y44*%
%MOMM*%
G71*
G04*
G04 #@! TF.SameCoordinates,D953DCF9-3291-42EB-AE53-6C5A23FC187B*
G04*
G04*
G04 #@! TF.FilePolarity,Negative*
G04*
G01*
G75*
%ADD72C,3.1500*%
%ADD73C,1.6000*%
%ADD74R,1.6000X1.6000*%
%ADD75C,1.6500*%
%ADD76C,1.4500*%
%ADD77C,2.2500*%
G04:AMPARAMS|DCode=78|XSize=1.65mm|YSize=1.65mm|CornerRadius=0.45mm|HoleSize=0mm|Usage=FLASHONLY|Rotation=0.000|XOffset=0mm|YOffset=0mm|HoleType=Round|Shape=RoundedRectangle|*
%AMROUNDEDRECTD78*
21,1,1.6500,0.7500,0,0,0.0*
21,1,0.7500,1.6500,0,0,0.0*
1,1,0.9000,0.3750,-0.3750*
1,1,0.9000,-0.3750,-0.3750*
1,1,0.9000,-0.3750,0.3750*
1,1,0.9000,0.3750,0.3750*
%
%ADD78ROUNDEDRECTD78*%
%ADD79R,1.4500X1.4500*%
%ADD80C,1.5500*%
%ADD81R,1.5500X1.5500*%
%ADD82C,1.0570*%
%ADD83C,1.0565*%
%ADD84C,0.6500*%
D72*
X1812290Y59690D02*
D03*
X1809750Y447040D02*
D03*
X54610Y452120D02*
D03*
Y55880D02*
D03*
D73*
X1107440Y455930D02*
D03*
X762000Y452120D02*
D03*
D74*
X1082040Y455930D02*
D03*
X736600Y452120D02*
D03*
D75*
X692230Y185410D02*
D03*
Y321130D02*
D03*
X815340Y222240D02*
D03*
Y187960D02*
D03*
Y284300D02*
D03*
X692270Y253270D02*
D03*
X815340D02*
D03*
X1394460Y431800D02*
D03*
X1419860D02*
D03*
D76*
X1176020Y111760D02*
D03*
D77*
X1676400Y410210D02*
D03*
X1711960Y158750D02*
D03*
X1654810Y160020D02*
D03*
X1418590Y140970D02*
D03*
D78*
X1445260Y431800D02*
D03*
D79*
X1126020Y111760D02*
D03*
D80*
X1791970Y175660D02*
D03*
X1784350Y337420D02*
D03*
D81*
X1791970Y200660D02*
D03*
X1784350Y312420D02*
D03*
D82*
X1220470Y35560D02*
D03*
X1485900Y427990D02*
D03*
X1365250Y176530D02*
D03*
X1817370Y255270D02*
D03*
X1148080Y52070D02*
D03*
X1475740Y34290D02*
D03*
X1455420Y181610D02*
D03*
X1617980Y416560D02*
D03*
X1736090Y396240D02*
D03*
X1242060Y140970D02*
D03*
X1720850Y83820D02*
D03*
X1460500Y363220D02*
D03*
X1270000Y364490D02*
D03*
X1289050D02*
D03*
X1303020D02*
D03*
X1189990D02*
D03*
X1120140Y416560D02*
D03*
X652780Y241300D02*
D03*
X718820Y252730D02*
D03*
X706120D02*
D03*
X1130300Y445770D02*
D03*
X843280Y172720D02*
D03*
X1363980Y391160D02*
D03*
X1130300Y476250D02*
D03*
X1120140Y405130D02*
D03*
Y429260D02*
D03*
X1054100Y231140D02*
D03*
X1055181Y28920D02*
D03*
X1054714Y92232D02*
D03*
X1055673Y170580D02*
D03*
X1055169Y211470D02*
D03*
X1053195Y300226D02*
D03*
X1049065Y386045D02*
D03*
X1049983Y440657D02*
D03*
X1048606Y464062D02*
D03*
X1049020Y478790D02*
D03*
X1362710Y458470D02*
D03*
Y443230D02*
D03*
Y427990D02*
D03*
Y414020D02*
D03*
Y401320D02*
D03*
X1250950Y364490D02*
D03*
X1234440D02*
D03*
X1219200D02*
D03*
X1203960D02*
D03*
X1174750D02*
D03*
X1130300Y461010D02*
D03*
X1050290Y357865D02*
D03*
X1033780Y297180D02*
D03*
X1051560Y316230D02*
D03*
X1052830Y284480D02*
D03*
X1054100Y153670D02*
D03*
X1000760Y142240D02*
D03*
X1049020Y410210D02*
D03*
X725170Y118110D02*
D03*
X1000760Y297180D02*
D03*
X732790Y252730D02*
D03*
X750570Y251460D02*
D03*
X778510Y179070D02*
D03*
X706120Y68580D02*
D03*
X1014730Y384810D02*
D03*
X1038860Y95250D02*
D03*
X1003300Y190500D02*
D03*
X1022350Y120650D02*
D03*
X971550Y95250D02*
D03*
X989330Y466090D02*
D03*
X1024890Y426720D02*
D03*
X1054100Y116840D02*
D03*
X1005840Y213360D02*
D03*
X732790Y181610D02*
D03*
X1054100Y189230D02*
D03*
X715010Y168910D02*
D03*
X1029970Y176530D02*
D03*
X762000Y165100D02*
D03*
X750570Y179070D02*
D03*
X767080Y251460D02*
D03*
X723900Y142240D02*
D03*
X990600Y327660D02*
D03*
X787400Y104140D02*
D03*
X706120Y111760D02*
D03*
X858520Y331390D02*
D03*
X957580Y419100D02*
D03*
X878840Y403860D02*
D03*
X769620Y327620D02*
D03*
X985520Y421640D02*
D03*
X802640Y337820D02*
D03*
X855980Y403860D02*
D03*
X817880Y342900D02*
D03*
X851020Y358060D02*
D03*
X825500Y403860D02*
D03*
X711200Y373380D02*
D03*
X703580Y419100D02*
D03*
X906780Y429260D02*
D03*
X732790Y325120D02*
D03*
X715010Y326350D02*
D03*
X753110Y356870D02*
D03*
X715010Y341630D02*
D03*
X749300Y322580D02*
D03*
X727710Y356870D02*
D03*
X759460Y379730D02*
D03*
X788670Y473710D02*
D03*
X703580Y474980D02*
D03*
X892810Y328930D02*
D03*
X928370Y201930D02*
D03*
X927100Y356870D02*
D03*
Y327660D02*
D03*
X902970Y231140D02*
D03*
D83*
X957900Y246200D02*
D03*
X969010Y246380D02*
D03*
X946150D02*
D03*
X957580Y234950D02*
D03*
Y257810D02*
D03*
X1071880Y80010D02*
D03*
X847090Y218440D02*
D03*
X875030Y170180D02*
D03*
X939800Y388620D02*
D03*
X822960D02*
D03*
X673101Y266180D02*
D03*
X662941Y248400D02*
D03*
X134621Y262370D02*
D03*
X114301D02*
D03*
X124461Y242050D02*
D03*
X104141D02*
D03*
X1347470Y381000D02*
D03*
X1052830Y257810D02*
D03*
X1344930Y295910D02*
D03*
X1069340Y267970D02*
D03*
X1343660Y281940D02*
D03*
X1089660Y284480D02*
D03*
X1346200Y269240D02*
D03*
X1084580Y267970D02*
D03*
X1130300Y383540D02*
D03*
X1134110Y314960D02*
D03*
Y251460D02*
D03*
X1196340Y185420D02*
D03*
X1073150Y246380D02*
D03*
X881380Y426720D02*
D03*
X828040Y468630D02*
D03*
X861060Y455930D02*
D03*
X1031240Y368300D02*
D03*
X1247140Y60960D02*
D03*
X1596390Y110490D02*
D03*
X1007110Y179070D02*
D03*
X1014730Y307340D02*
D03*
X1016000Y233680D02*
D03*
X822960Y321310D02*
D03*
X875030Y134620D02*
D03*
X897890Y254000D02*
D03*
D84*
X941400Y262700D02*
D03*
X952400D02*
D03*
X963400D02*
D03*
X974400D02*
D03*
X941400Y251700D02*
D03*
X952400D02*
D03*
X963400D02*
D03*
X974400D02*
D03*
X941400Y240700D02*
D03*
X952400D02*
D03*
X963400D02*
D03*
X974400D02*
D03*
X941400Y229700D02*
D03*
X952400D02*
D03*
X963400D02*
D03*
X974400D02*
D03*
M02*
