G04*
G04 #@! TF.GenerationSoftware,Altium Limited,Altium Designer,23.3.1 (30)*
G04*
G04 Layer_Color=8388736*
%FSLAX44Y44*%
%MOMM*%
G71*
G04*
G04 #@! TF.SameCoordinates,D953DCF9-3291-42EB-AE53-6C5A23FC187B*
G04*
G04*
G04 #@! TF.FilePolarity,Positive*
G04*
G01*
G75*
%ADD11C,0.1500*%
%ADD12C,0.2000*%
D11*
X1111490Y455930D02*
G03*
X1111490Y455930I-16750J0D01*
G01*
X766050Y452120D02*
G03*
X766050Y452120I-16750J0D01*
G01*
X1223520Y111760D02*
G03*
X1223520Y111760I-72500J0D01*
G01*
D12*
X936770Y141440D02*
Y168440D01*
Y141440D02*
X970770D01*
Y168440D01*
X936770D02*
X970770D01*
X822340Y142710D02*
Y164710D01*
X808340Y142710D02*
X822340D01*
X808340D02*
Y164710D01*
X822340D01*
X1149560Y202310D02*
Y458310D01*
Y202310D02*
X1330560D01*
Y458310D01*
X1149560D02*
X1330560D01*
X1484360Y131810D02*
Y256810D01*
Y131810D02*
X1609360D01*
Y256810D01*
X1484360D02*
X1609360D01*
X863760Y228700D02*
X883760D01*
X863760D02*
Y241200D01*
X883760D01*
Y228700D02*
Y241200D01*
X863760Y256640D02*
X883760D01*
X863760D02*
Y269140D01*
X883760D01*
Y256640D02*
Y269140D01*
X1757970Y225160D02*
X1815470D01*
X1757970Y151160D02*
Y225160D01*
Y151160D02*
X1815470D01*
Y225160D01*
X1760850Y287920D02*
Y361920D01*
X1818350D01*
Y287920D02*
Y361920D01*
X1760850Y287920D02*
X1818350D01*
X842380Y209120D02*
X856880D01*
X842380Y187120D02*
Y209120D01*
Y187120D02*
X856880D01*
Y209120D01*
X871650Y335650D02*
Y350150D01*
Y335650D02*
X893650D01*
Y350150D01*
X871650D02*
X893650D01*
X1244980Y71610D02*
Y101110D01*
Y71610D02*
X1292480D01*
Y101110D01*
X1244980D02*
X1292480D01*
X1543500Y55580D02*
Y81580D01*
X1504500D02*
X1543500D01*
X1504500Y55580D02*
Y81580D01*
Y55580D02*
X1543500D01*
X1315290Y134990D02*
Y149490D01*
X1293290D02*
X1315290D01*
X1293290Y134990D02*
Y149490D01*
Y134990D02*
X1315290D01*
X1108810Y318880D02*
X1121310D01*
Y338980D01*
X1108810D02*
X1121310D01*
X1108810Y318880D02*
Y338980D01*
X1076060Y389460D02*
X1090560D01*
X1076060Y367460D02*
Y389460D01*
Y367460D02*
X1090560D01*
Y389460D01*
X1730170Y226900D02*
Y331900D01*
X1625170Y226900D02*
X1730170D01*
X1625170D02*
Y331900D01*
X1730170D01*
X1354660Y334440D02*
X1459660D01*
X1354660Y229440D02*
Y334440D01*
Y229440D02*
X1459660D01*
Y334440D01*
M02*
