G04*
G04 #@! TF.GenerationSoftware,Altium Limited,Altium Designer,23.3.1 (30)*
G04*
G04 Layer_Color=65535*
%FSLAX44Y44*%
%MOMM*%
G71*
G04*
G04 #@! TF.SameCoordinates,D953DCF9-3291-42EB-AE53-6C5A23FC187B*
G04*
G04*
G04 #@! TF.FilePolarity,Positive*
G04*
G01*
G75*
%ADD12C,0.2000*%
%ADD103C,2.4892*%
%ADD104C,0.4572*%
%ADD105C,0.0500*%
D12*
X1071548Y455930D02*
G03*
X1117932Y455930I23192J0D01*
G01*
D02*
G03*
X1071548Y455930I-23192J0D01*
G01*
X726108Y452120D02*
G03*
X772492Y452120I23192J0D01*
G01*
D02*
G03*
X726108Y452120I-23192J0D01*
G01*
X1077520Y111760D02*
G03*
X1224520Y111760I73500J0D01*
G01*
D02*
G03*
X1077520Y111760I-73500J0D01*
G01*
X934770Y139940D02*
Y169940D01*
Y139940D02*
X972770D01*
Y169940D01*
X934770D02*
X972770D01*
X823590Y138210D02*
Y169210D01*
X807090Y138210D02*
X823590D01*
X807090D02*
Y169210D01*
X823590D01*
X1144060Y196810D02*
Y459310D01*
Y196810D02*
X1336060D01*
Y459310D01*
X1144060D02*
X1336060D01*
X1481360Y130810D02*
Y257810D01*
Y130810D02*
X1612360D01*
Y257810D01*
X1481360D02*
X1612360D01*
X860229Y226700D02*
X887291D01*
X860229D02*
Y243200D01*
X887291D01*
Y226700D02*
Y243200D01*
X860229Y254640D02*
X887291D01*
X860229D02*
Y271140D01*
X887291D01*
Y254640D02*
Y271140D01*
X1756970Y226160D02*
X1816470D01*
X1756970Y150160D02*
Y226160D01*
Y150160D02*
X1816470D01*
Y226160D01*
X1759850Y286920D02*
Y362920D01*
X1819350D01*
Y286920D02*
Y362920D01*
X1759850Y286920D02*
X1819350D01*
X841380Y212120D02*
X857880D01*
X841380Y184120D02*
Y212120D01*
Y184120D02*
X857880D01*
Y212120D01*
X868650Y334650D02*
Y351150D01*
Y334650D02*
X896650D01*
Y351150D01*
X868650D02*
X896650D01*
X1232980Y70610D02*
Y102110D01*
Y70610D02*
X1304480D01*
Y102110D01*
X1232980D02*
X1304480D01*
X1554000Y54580D02*
Y82580D01*
X1494000D02*
X1554000D01*
X1494000Y54580D02*
Y82580D01*
Y54580D02*
X1554000D01*
X1320290Y131740D02*
Y152740D01*
X1288290D02*
X1320290D01*
X1288290Y131740D02*
Y152740D01*
Y131740D02*
X1320290D01*
X1105279Y311849D02*
X1124841D01*
Y346011D01*
X1105279D02*
X1124841D01*
X1105279Y311849D02*
Y346011D01*
X1074810Y392460D02*
X1091810D01*
X1074810Y364460D02*
Y392460D01*
Y364460D02*
X1091810D01*
Y392460D01*
X1732670Y212900D02*
Y345900D01*
X1622670Y212900D02*
X1732670D01*
X1622670D02*
Y345900D01*
X1732670D01*
X1352160Y348440D02*
X1462160D01*
X1352160Y215440D02*
Y348440D01*
Y215440D02*
X1462160D01*
Y348440D01*
D103*
X1790700Y59690D02*
G03*
X1812290Y38100I21590J0D01*
G01*
X1833880Y59690D02*
G03*
X1812290Y81280I-21590J0D01*
G01*
X1788160Y447040D02*
G03*
X1809750Y425450I21590J0D01*
G01*
X1831340Y447040D02*
G03*
X1809750Y468630I-21590J0D01*
G01*
X33020Y452120D02*
G03*
X54610Y430530I21590J0D01*
G01*
X76200Y452120D02*
G03*
X54610Y473710I-21590J0D01*
G01*
X33020Y55880D02*
G03*
X54610Y34290I21590J0D01*
G01*
X76200Y55880D02*
G03*
X54610Y77470I-21590J0D01*
G01*
D104*
X1819910Y59690D02*
G03*
X1819910Y59690I-7620J0D01*
G01*
X1817370Y447040D02*
G03*
X1817370Y447040I-7620J0D01*
G01*
X62230Y452120D02*
G03*
X62230Y452120I-7620J0D01*
G01*
Y55880D02*
G03*
X62230Y55880I-7620J0D01*
G01*
D105*
X1378060Y397050D02*
Y460550D01*
Y397050D02*
X1461660D01*
Y460550D01*
X1378060D02*
X1461660D01*
X1414860Y428800D02*
X1424860D01*
X1419860Y423800D02*
Y433800D01*
M02*
