G04*
G04 #@! TF.GenerationSoftware,Altium Limited,Altium Designer,23.3.1 (30)*
G04*
G04 Layer_Color=2752767*
%FSLAX44Y44*%
%MOMM*%
G71*
G04*
G04 #@! TF.SameCoordinates,D953DCF9-3291-42EB-AE53-6C5A23FC187B*
G04*
G04*
G04 #@! TF.FilePolarity,Positive*
G04*
G01*
G75*
%ADD110C,0.1270*%
%ADD111C,0.1693*%
D110*
X1812290Y54610D02*
X1807210Y64770D01*
X1817370D01*
X1812290Y54610D01*
X1809750Y441960D02*
X1804670Y452120D01*
X1814830D01*
X1809750Y441960D01*
X54610Y447040D02*
X49530Y457200D01*
X59690D01*
X54610Y447040D01*
Y50800D02*
X49530Y60960D01*
X59690D01*
X54610Y50800D01*
X1107440Y450850D02*
X1109980Y453390D01*
X1112520D01*
X1109980Y455930D01*
X1112520Y458470D01*
X1109980D01*
X1107440Y461010D01*
X1104900Y458470D01*
X1102360D01*
X1104900Y455930D01*
X1102360Y453390D01*
X1104900D01*
X1107440Y450850D01*
X1082040D02*
X1084580Y453390D01*
X1087120D01*
X1084580Y455930D01*
X1087120Y458470D01*
X1084580D01*
X1082040Y461010D01*
X1079500Y458470D01*
X1076960D01*
X1079500Y455930D01*
X1076960Y453390D01*
X1079500D01*
X1082040Y450850D01*
X762000Y447040D02*
X764540Y449580D01*
X767080D01*
X764540Y452120D01*
X767080Y454660D01*
X764540D01*
X762000Y457200D01*
X759460Y454660D01*
X756920D01*
X759460Y452120D01*
X756920Y449580D01*
X759460D01*
X762000Y447040D01*
X736600D02*
X739140Y449580D01*
X741680D01*
X739140Y452120D01*
X741680Y454660D01*
X739140D01*
X736600Y457200D01*
X734060Y454660D01*
X731520D01*
X734060Y452120D01*
X731520Y449580D01*
X734060D01*
X736600Y447040D01*
X687150Y180330D02*
Y190490D01*
X697310D01*
Y180330D01*
X687150D01*
Y316050D02*
Y326210D01*
X697310D01*
Y316050D01*
X687150D01*
X1170940Y106680D02*
X1173480Y111760D01*
X1170940Y116840D01*
X1176020Y114300D01*
X1181100Y116840D01*
X1178560Y111760D01*
X1181100Y106680D01*
X1176020Y109220D01*
X1170940Y106680D01*
X810260Y217160D02*
Y227320D01*
X820420D01*
Y217160D01*
X810260D01*
Y182880D02*
Y193040D01*
X820420D01*
Y182880D01*
X810260D01*
Y279220D02*
Y289380D01*
X820420D01*
Y279220D01*
X810260D01*
X687190Y248190D02*
Y258350D01*
X697350D01*
Y248190D01*
X687190D01*
X810260D02*
Y258350D01*
X820420D01*
Y248190D01*
X810260D01*
X1389380Y426720D02*
Y436880D01*
X1399540D01*
Y426720D01*
X1389380D01*
X1414780D02*
Y436880D01*
X1424940D01*
Y426720D01*
X1414780D01*
X1440180D02*
Y436880D01*
X1450340D01*
Y426720D01*
X1440180D01*
X1120940Y106680D02*
X1123480Y111760D01*
X1120940Y116840D01*
X1126020Y114300D01*
X1131100Y116840D01*
X1128560Y111760D01*
X1131100Y106680D01*
X1126020Y109220D01*
X1120940Y106680D01*
X1786890Y170580D02*
Y180740D01*
X1797050D01*
Y170580D01*
X1786890D01*
Y195580D02*
Y205740D01*
X1797050D01*
Y195580D01*
X1786890D01*
X1779270Y307340D02*
Y317500D01*
X1789430D01*
Y307340D01*
X1779270D01*
Y332340D02*
Y342500D01*
X1789430D01*
Y332340D01*
X1779270D01*
X1215390Y35560D02*
X1220470Y40640D01*
X1225550Y35560D01*
X1220470Y30480D01*
X1215390Y35560D01*
X1480820Y427990D02*
X1485900Y433070D01*
X1490980Y427990D01*
X1485900Y422910D01*
X1480820Y427990D01*
X1360170Y176530D02*
X1365250Y181610D01*
X1370330Y176530D01*
X1365250Y171450D01*
X1360170Y176530D01*
X1812290Y255270D02*
X1817370Y260350D01*
X1822450Y255270D01*
X1817370Y250190D01*
X1812290Y255270D01*
X1143000Y52070D02*
X1148080Y57150D01*
X1153160Y52070D01*
X1148080Y46990D01*
X1143000Y52070D01*
X1470660Y34290D02*
X1475740Y39370D01*
X1480820Y34290D01*
X1475740Y29210D01*
X1470660Y34290D01*
X1450340Y181610D02*
X1455420Y186690D01*
X1460500Y181610D01*
X1455420Y176530D01*
X1450340Y181610D01*
X1612900Y416560D02*
X1617980Y421640D01*
X1623060Y416560D01*
X1617980Y411480D01*
X1612900Y416560D01*
X1731010Y396240D02*
X1736090Y401320D01*
X1741170Y396240D01*
X1736090Y391160D01*
X1731010Y396240D01*
X1236980Y140970D02*
X1242060Y146050D01*
X1247140Y140970D01*
X1242060Y135890D01*
X1236980Y140970D01*
X1715770Y83820D02*
X1720850Y88900D01*
X1725930Y83820D01*
X1720850Y78740D01*
X1715770Y83820D01*
X1455420Y363220D02*
X1460500Y368300D01*
X1465580Y363220D01*
X1460500Y358140D01*
X1455420Y363220D01*
X1264920Y364490D02*
X1270000Y369570D01*
X1275080Y364490D01*
X1270000Y359410D01*
X1264920Y364490D01*
X1283970D02*
X1289050Y369570D01*
X1294130Y364490D01*
X1289050Y359410D01*
X1283970Y364490D01*
X1297940D02*
X1303020Y369570D01*
X1308100Y364490D01*
X1303020Y359410D01*
X1297940Y364490D01*
X1184910D02*
X1189990Y369570D01*
X1195070Y364490D01*
X1189990Y359410D01*
X1184910Y364490D01*
X1115060Y416560D02*
X1120140Y421640D01*
X1125220Y416560D01*
X1120140Y411480D01*
X1115060Y416560D01*
X647700Y241300D02*
X652780Y246380D01*
X657860Y241300D01*
X652780Y236220D01*
X647700Y241300D01*
X952820Y241120D02*
Y251280D01*
X962980D01*
Y241120D01*
X952820D01*
X954852Y243152D02*
Y249248D01*
X960948D01*
Y243152D01*
X954852D01*
X963930Y241300D02*
Y251460D01*
X974090D01*
Y241300D01*
X963930D01*
X965962Y243332D02*
Y249428D01*
X972058D01*
Y243332D01*
X965962D01*
X941070Y241300D02*
Y251460D01*
X951230D01*
Y241300D01*
X941070D01*
X943102Y243332D02*
Y249428D01*
X949198D01*
Y243332D01*
X943102D01*
X952500Y229870D02*
Y240030D01*
X962660D01*
Y229870D01*
X952500D01*
X954532Y231902D02*
Y237998D01*
X960628D01*
Y231902D01*
X954532D01*
X952500Y252730D02*
Y262890D01*
X962660D01*
Y252730D01*
X952500D01*
X954532Y254762D02*
Y260858D01*
X960628D01*
Y254762D01*
X954532D01*
X1066800Y74930D02*
Y85090D01*
X1076960D01*
Y74930D01*
X1066800D01*
X1068832Y76962D02*
Y83058D01*
X1074928D01*
Y76962D01*
X1068832D01*
X938860Y260160D02*
Y257620D01*
X943940D01*
Y260160D01*
X946480D01*
Y265240D01*
X943940D01*
Y267780D01*
X938860D01*
Y265240D01*
X936320D01*
Y260160D01*
X938860D01*
X949860D02*
Y257620D01*
X954940D01*
Y260160D01*
X957480D01*
Y265240D01*
X954940D01*
Y267780D01*
X949860D01*
Y265240D01*
X947320D01*
Y260160D01*
X949860D01*
X960860D02*
Y257620D01*
X965940D01*
Y260160D01*
X968480D01*
Y265240D01*
X965940D01*
Y267780D01*
X960860D01*
Y265240D01*
X958320D01*
Y260160D01*
X960860D01*
X971860D02*
Y257620D01*
X976940D01*
Y260160D01*
X979480D01*
Y265240D01*
X976940D01*
Y267780D01*
X971860D01*
Y265240D01*
X969320D01*
Y260160D01*
X971860D01*
X938860Y249160D02*
Y246620D01*
X943940D01*
Y249160D01*
X946480D01*
Y254240D01*
X943940D01*
Y256780D01*
X938860D01*
Y254240D01*
X936320D01*
Y249160D01*
X938860D01*
X949860D02*
Y246620D01*
X954940D01*
Y249160D01*
X957480D01*
Y254240D01*
X954940D01*
Y256780D01*
X949860D01*
Y254240D01*
X947320D01*
Y249160D01*
X949860D01*
X960860D02*
Y246620D01*
X965940D01*
Y249160D01*
X968480D01*
Y254240D01*
X965940D01*
Y256780D01*
X960860D01*
Y254240D01*
X958320D01*
Y249160D01*
X960860D01*
X971860D02*
Y246620D01*
X976940D01*
Y249160D01*
X979480D01*
Y254240D01*
X976940D01*
Y256780D01*
X971860D01*
Y254240D01*
X969320D01*
Y249160D01*
X971860D01*
X938860Y238160D02*
Y235620D01*
X943940D01*
Y238160D01*
X946480D01*
Y243240D01*
X943940D01*
Y245780D01*
X938860D01*
Y243240D01*
X936320D01*
Y238160D01*
X938860D01*
X949860D02*
Y235620D01*
X954940D01*
Y238160D01*
X957480D01*
Y243240D01*
X954940D01*
Y245780D01*
X949860D01*
Y243240D01*
X947320D01*
Y238160D01*
X949860D01*
X960860D02*
Y235620D01*
X965940D01*
Y238160D01*
X968480D01*
Y243240D01*
X965940D01*
Y245780D01*
X960860D01*
Y243240D01*
X958320D01*
Y238160D01*
X960860D01*
X971860D02*
Y235620D01*
X976940D01*
Y238160D01*
X979480D01*
Y243240D01*
X976940D01*
Y245780D01*
X971860D01*
Y243240D01*
X969320D01*
Y238160D01*
X971860D01*
X938860Y227160D02*
Y224620D01*
X943940D01*
Y227160D01*
X946480D01*
Y232240D01*
X943940D01*
Y234780D01*
X938860D01*
Y232240D01*
X936320D01*
Y227160D01*
X938860D01*
X949860D02*
Y224620D01*
X954940D01*
Y227160D01*
X957480D01*
Y232240D01*
X954940D01*
Y234780D01*
X949860D01*
Y232240D01*
X947320D01*
Y227160D01*
X949860D01*
X960860D02*
Y224620D01*
X965940D01*
Y227160D01*
X968480D01*
Y232240D01*
X965940D01*
Y234780D01*
X960860D01*
Y232240D01*
X958320D01*
Y227160D01*
X960860D01*
X971860D02*
Y224620D01*
X976940D01*
Y227160D01*
X979480D01*
Y232240D01*
X976940D01*
Y234780D01*
X971860D01*
Y232240D01*
X969320D01*
Y227160D01*
X971860D01*
X713740Y252730D02*
X718820Y257810D01*
X723900Y252730D01*
X718820Y247650D01*
X713740Y252730D01*
X701040D02*
X706120Y257810D01*
X711200Y252730D01*
X706120Y247650D01*
X701040Y252730D01*
X1125220Y445770D02*
X1130300Y450850D01*
X1135380Y445770D01*
X1130300Y440690D01*
X1125220Y445770D01*
X838200Y172720D02*
X843280Y177800D01*
X848360Y172720D01*
X843280Y167640D01*
X838200Y172720D01*
X1358900Y391160D02*
X1363980Y396240D01*
X1369060Y391160D01*
X1363980Y386080D01*
X1358900Y391160D01*
X1125220Y476250D02*
X1130300Y481330D01*
X1135380Y476250D01*
X1130300Y471170D01*
X1125220Y476250D01*
X1115060Y405130D02*
X1120140Y410210D01*
X1125220Y405130D01*
X1120140Y400050D01*
X1115060Y405130D01*
Y429260D02*
X1120140Y434340D01*
X1125220Y429260D01*
X1120140Y424180D01*
X1115060Y429260D01*
X842010Y213360D02*
Y223520D01*
X852170D01*
Y213360D01*
X842010D01*
X844042Y215392D02*
Y221488D01*
X850138D01*
Y215392D01*
X844042D01*
X869950Y165100D02*
Y175260D01*
X880110D01*
Y165100D01*
X869950D01*
X871982Y167132D02*
Y173228D01*
X878078D01*
Y167132D01*
X871982D01*
X934720Y383540D02*
Y393700D01*
X944880D01*
Y383540D01*
X934720D01*
X936752Y385572D02*
Y391668D01*
X942848D01*
Y385572D01*
X936752D01*
X817880Y383540D02*
Y393700D01*
X828040D01*
Y383540D01*
X817880D01*
X819912Y385572D02*
Y391668D01*
X826008D01*
Y385572D01*
X819912D01*
X668021Y261100D02*
Y271260D01*
X678181D01*
Y261100D01*
X668021D01*
X670053Y263132D02*
Y269228D01*
X676149D01*
Y263132D01*
X670053D01*
X657861Y243320D02*
Y253480D01*
X668021D01*
Y243320D01*
X657861D01*
X659893Y245352D02*
Y251448D01*
X665989D01*
Y245352D01*
X659893D01*
X129541Y257290D02*
Y267450D01*
X139701D01*
Y257290D01*
X129541D01*
X131573Y259322D02*
Y265418D01*
X137669D01*
Y259322D01*
X131573D01*
X109221Y257290D02*
Y267450D01*
X119381D01*
Y257290D01*
X109221D01*
X111253Y259322D02*
Y265418D01*
X117349D01*
Y259322D01*
X111253D01*
X119381Y236970D02*
Y247130D01*
X129541D01*
Y236970D01*
X119381D01*
X121413Y239002D02*
Y245098D01*
X127509D01*
Y239002D01*
X121413D01*
X99061Y236970D02*
Y247130D01*
X109221D01*
Y236970D01*
X99061D01*
X101093Y239002D02*
Y245098D01*
X107189D01*
Y239002D01*
X101093D01*
X1342390Y375920D02*
Y386080D01*
X1352550D01*
Y375920D01*
X1342390D01*
X1344422Y377952D02*
Y384048D01*
X1350518D01*
Y377952D01*
X1344422D01*
X1047750Y252730D02*
Y262890D01*
X1057910D01*
Y252730D01*
X1047750D01*
X1049782Y254762D02*
Y260858D01*
X1055878D01*
Y254762D01*
X1049782D01*
X1339850Y290830D02*
Y300990D01*
X1350010D01*
Y290830D01*
X1339850D01*
X1341882Y292862D02*
Y298958D01*
X1347978D01*
Y292862D01*
X1341882D01*
X1064260Y262890D02*
Y273050D01*
X1074420D01*
Y262890D01*
X1064260D01*
X1066292Y264922D02*
Y271018D01*
X1072388D01*
Y264922D01*
X1066292D01*
X1338580Y276860D02*
Y287020D01*
X1348740D01*
Y276860D01*
X1338580D01*
X1340612Y278892D02*
Y284988D01*
X1346708D01*
Y278892D01*
X1340612D01*
X1084580Y279400D02*
Y289560D01*
X1094740D01*
Y279400D01*
X1084580D01*
X1086612Y281432D02*
Y287528D01*
X1092708D01*
Y281432D01*
X1086612D01*
X1341120Y264160D02*
Y274320D01*
X1351280D01*
Y264160D01*
X1341120D01*
X1343152Y266192D02*
Y272288D01*
X1349248D01*
Y266192D01*
X1343152D01*
X1079500Y262890D02*
Y273050D01*
X1089660D01*
Y262890D01*
X1079500D01*
X1081532Y264922D02*
Y271018D01*
X1087628D01*
Y264922D01*
X1081532D01*
X1125220Y378460D02*
Y388620D01*
X1135380D01*
Y378460D01*
X1125220D01*
X1127252Y380492D02*
Y386588D01*
X1133348D01*
Y380492D01*
X1127252D01*
X1129030Y309880D02*
Y320040D01*
X1139190D01*
Y309880D01*
X1129030D01*
X1131062Y311912D02*
Y318008D01*
X1137158D01*
Y311912D01*
X1131062D01*
X1129030Y246380D02*
Y256540D01*
X1139190D01*
Y246380D01*
X1129030D01*
X1131062Y248412D02*
Y254508D01*
X1137158D01*
Y248412D01*
X1131062D01*
X1191260Y180340D02*
Y190500D01*
X1201420D01*
Y180340D01*
X1191260D01*
X1193292Y182372D02*
Y188468D01*
X1199388D01*
Y182372D01*
X1193292D01*
X1068070Y241300D02*
Y251460D01*
X1078230D01*
Y241300D01*
X1068070D01*
X1070102Y243332D02*
Y249428D01*
X1076198D01*
Y243332D01*
X1070102D01*
X1049020Y231140D02*
X1054100Y236220D01*
X1059180Y231140D01*
X1054100Y226060D01*
X1049020Y231140D01*
X1050101Y28920D02*
X1055181Y34000D01*
X1060261Y28920D01*
X1055181Y23840D01*
X1050101Y28920D01*
X1049634Y92232D02*
X1054714Y97312D01*
X1059794Y92232D01*
X1054714Y87152D01*
X1049634Y92232D01*
X1050593Y170580D02*
X1055673Y175660D01*
X1060753Y170580D01*
X1055673Y165500D01*
X1050593Y170580D01*
X1050089Y211470D02*
X1055169Y216550D01*
X1060248Y211470D01*
X1055169Y206390D01*
X1050089Y211470D01*
X1048115Y300226D02*
X1053195Y305306D01*
X1058275Y300226D01*
X1053195Y295146D01*
X1048115Y300226D01*
X1043985Y386045D02*
X1049065Y391125D01*
X1054145Y386045D01*
X1049065Y380965D01*
X1043985Y386045D01*
X1044903Y440657D02*
X1049983Y445737D01*
X1055063Y440657D01*
X1049983Y435577D01*
X1044903Y440657D01*
X1043526Y464062D02*
X1048606Y469142D01*
X1053686Y464062D01*
X1048606Y458982D01*
X1043526Y464062D01*
X1043940Y478790D02*
X1049020Y483870D01*
X1054100Y478790D01*
X1049020Y473710D01*
X1043940Y478790D01*
X1357630Y458470D02*
X1362710Y463550D01*
X1367790Y458470D01*
X1362710Y453390D01*
X1357630Y458470D01*
Y443230D02*
X1362710Y448310D01*
X1367790Y443230D01*
X1362710Y438150D01*
X1357630Y443230D01*
Y427990D02*
X1362710Y433070D01*
X1367790Y427990D01*
X1362710Y422910D01*
X1357630Y427990D01*
Y414020D02*
X1362710Y419100D01*
X1367790Y414020D01*
X1362710Y408940D01*
X1357630Y414020D01*
Y401320D02*
X1362710Y406400D01*
X1367790Y401320D01*
X1362710Y396240D01*
X1357630Y401320D01*
X1245870Y364490D02*
X1250950Y369570D01*
X1256030Y364490D01*
X1250950Y359410D01*
X1245870Y364490D01*
X1229360D02*
X1234440Y369570D01*
X1239520Y364490D01*
X1234440Y359410D01*
X1229360Y364490D01*
X1214120D02*
X1219200Y369570D01*
X1224280Y364490D01*
X1219200Y359410D01*
X1214120Y364490D01*
X1198880D02*
X1203960Y369570D01*
X1209040Y364490D01*
X1203960Y359410D01*
X1198880Y364490D01*
X1169670D02*
X1174750Y369570D01*
X1179830Y364490D01*
X1174750Y359410D01*
X1169670Y364490D01*
X1125220Y461010D02*
X1130300Y466090D01*
X1135380Y461010D01*
X1130300Y455930D01*
X1125220Y461010D01*
X876300Y421640D02*
Y431800D01*
X886460D01*
Y421640D01*
X876300D01*
X878332Y423672D02*
Y429768D01*
X884428D01*
Y423672D01*
X878332D01*
X822960Y463550D02*
Y473710D01*
X833120D01*
Y463550D01*
X822960D01*
X824992Y465582D02*
Y471678D01*
X831088D01*
Y465582D01*
X824992D01*
X855980Y450850D02*
Y461010D01*
X866140D01*
Y450850D01*
X855980D01*
X858012Y452882D02*
Y458978D01*
X864108D01*
Y452882D01*
X858012D01*
X1045210Y357865D02*
X1050290Y362945D01*
X1055370Y357865D01*
X1050290Y352785D01*
X1045210Y357865D01*
X1026160Y363220D02*
Y373380D01*
X1036320D01*
Y363220D01*
X1026160D01*
X1028192Y365252D02*
Y371348D01*
X1034288D01*
Y365252D01*
X1028192D01*
X1242060Y55880D02*
Y66040D01*
X1252220D01*
Y55880D01*
X1242060D01*
X1244092Y57912D02*
Y64008D01*
X1250188D01*
Y57912D01*
X1244092D01*
X1591310Y105410D02*
Y115570D01*
X1601470D01*
Y105410D01*
X1591310D01*
X1593342Y107442D02*
Y113538D01*
X1599438D01*
Y107442D01*
X1593342D01*
X1028700Y297180D02*
X1033780Y302260D01*
X1038860Y297180D01*
X1033780Y292100D01*
X1028700Y297180D01*
X1046480Y316230D02*
X1051560Y321310D01*
X1056640Y316230D01*
X1051560Y311150D01*
X1046480Y316230D01*
X1047750Y284480D02*
X1052830Y289560D01*
X1057910Y284480D01*
X1052830Y279400D01*
X1047750Y284480D01*
X1002030Y173990D02*
Y184150D01*
X1012190D01*
Y173990D01*
X1002030D01*
X1004062Y176022D02*
Y182118D01*
X1010158D01*
Y176022D01*
X1004062D01*
X1049020Y153670D02*
X1054100Y158750D01*
X1059180Y153670D01*
X1054100Y148590D01*
X1049020Y153670D01*
X995680Y142240D02*
X1000760Y147320D01*
X1005840Y142240D01*
X1000760Y137160D01*
X995680Y142240D01*
X1043940Y410210D02*
X1049020Y415290D01*
X1054100Y410210D01*
X1049020Y405130D01*
X1043940Y410210D01*
X720090Y118110D02*
X725170Y123190D01*
X730250Y118110D01*
X725170Y113030D01*
X720090Y118110D01*
X995680Y297180D02*
X1000760Y302260D01*
X1005840Y297180D01*
X1000760Y292100D01*
X995680Y297180D01*
X727710Y252730D02*
X732790Y257810D01*
X737870Y252730D01*
X732790Y247650D01*
X727710Y252730D01*
X745490Y251460D02*
X750570Y256540D01*
X755650Y251460D01*
X750570Y246380D01*
X745490Y251460D01*
X773430Y179070D02*
X778510Y184150D01*
X783590Y179070D01*
X778510Y173990D01*
X773430Y179070D01*
X701040Y68580D02*
X706120Y73660D01*
X711200Y68580D01*
X706120Y63500D01*
X701040Y68580D01*
X1009650Y384810D02*
X1014730Y389890D01*
X1019810Y384810D01*
X1014730Y379730D01*
X1009650Y384810D01*
X1033780Y95250D02*
X1038860Y100330D01*
X1043940Y95250D01*
X1038860Y90170D01*
X1033780Y95250D01*
X998220Y190500D02*
X1003300Y195580D01*
X1008380Y190500D01*
X1003300Y185420D01*
X998220Y190500D01*
X1017270Y120650D02*
X1022350Y125730D01*
X1027430Y120650D01*
X1022350Y115570D01*
X1017270Y120650D01*
X966470Y95250D02*
X971550Y100330D01*
X976630Y95250D01*
X971550Y90170D01*
X966470Y95250D01*
X984250Y466090D02*
X989330Y471170D01*
X994410Y466090D01*
X989330Y461010D01*
X984250Y466090D01*
X1019810Y426720D02*
X1024890Y431800D01*
X1029970Y426720D01*
X1024890Y421640D01*
X1019810Y426720D01*
X1049020Y116840D02*
X1054100Y121920D01*
X1059180Y116840D01*
X1054100Y111760D01*
X1049020Y116840D01*
X1000760Y213360D02*
X1005840Y218440D01*
X1010920Y213360D01*
X1005840Y208280D01*
X1000760Y213360D01*
X727710Y181610D02*
X732790Y186690D01*
X737870Y181610D01*
X732790Y176530D01*
X727710Y181610D01*
X1049020Y189230D02*
X1054100Y194310D01*
X1059180Y189230D01*
X1054100Y184150D01*
X1049020Y189230D01*
X709930Y168910D02*
X715010Y173990D01*
X720090Y168910D01*
X715010Y163830D01*
X709930Y168910D01*
X1024890Y176530D02*
X1029970Y181610D01*
X1035050Y176530D01*
X1029970Y171450D01*
X1024890Y176530D01*
X756920Y165100D02*
X762000Y170180D01*
X767080Y165100D01*
X762000Y160020D01*
X756920Y165100D01*
X745490Y179070D02*
X750570Y184150D01*
X755650Y179070D01*
X750570Y173990D01*
X745490Y179070D01*
X762000Y251460D02*
X767080Y256540D01*
X772160Y251460D01*
X767080Y246380D01*
X762000Y251460D01*
X718820Y142240D02*
X723900Y147320D01*
X728980Y142240D01*
X723900Y137160D01*
X718820Y142240D01*
X985520Y327660D02*
X990600Y332740D01*
X995680Y327660D01*
X990600Y322580D01*
X985520Y327660D01*
X782320Y104140D02*
X787400Y109220D01*
X792480Y104140D01*
X787400Y99060D01*
X782320Y104140D01*
X701040Y111760D02*
X706120Y116840D01*
X711200Y111760D01*
X706120Y106680D01*
X701040Y111760D01*
X853440Y331390D02*
X858520Y336470D01*
X863600Y331390D01*
X858520Y326310D01*
X853440Y331390D01*
X952500Y419100D02*
X957580Y424180D01*
X962660Y419100D01*
X957580Y414020D01*
X952500Y419100D01*
X873760Y403860D02*
X878840Y408940D01*
X883920Y403860D01*
X878840Y398780D01*
X873760Y403860D01*
X764540Y327620D02*
X769620Y332700D01*
X774700Y327620D01*
X769620Y322540D01*
X764540Y327620D01*
X980440Y421640D02*
X985520Y426720D01*
X990600Y421640D01*
X985520Y416560D01*
X980440Y421640D01*
X797560Y337820D02*
X802640Y342900D01*
X807720Y337820D01*
X802640Y332740D01*
X797560Y337820D01*
X850900Y403860D02*
X855980Y408940D01*
X861060Y403860D01*
X855980Y398780D01*
X850900Y403860D01*
X812800Y342900D02*
X817880Y347980D01*
X822960Y342900D01*
X817880Y337820D01*
X812800Y342900D01*
X845940Y358060D02*
X851020Y363140D01*
X856100Y358060D01*
X851020Y352980D01*
X845940Y358060D01*
X820420Y403860D02*
X825500Y408940D01*
X830580Y403860D01*
X825500Y398780D01*
X820420Y403860D01*
X706120Y373380D02*
X711200Y378460D01*
X716280Y373380D01*
X711200Y368300D01*
X706120Y373380D01*
X698500Y419100D02*
X703580Y424180D01*
X708660Y419100D01*
X703580Y414020D01*
X698500Y419100D01*
X901700Y429260D02*
X906780Y434340D01*
X911860Y429260D01*
X906780Y424180D01*
X901700Y429260D01*
X727710Y325120D02*
X732790Y330200D01*
X737870Y325120D01*
X732790Y320040D01*
X727710Y325120D01*
X709930Y326350D02*
X715010Y331430D01*
X720090Y326350D01*
X715010Y321270D01*
X709930Y326350D01*
X748030Y356870D02*
X753110Y361950D01*
X758190Y356870D01*
X753110Y351790D01*
X748030Y356870D01*
X709930Y341630D02*
X715010Y346710D01*
X720090Y341630D01*
X715010Y336550D01*
X709930Y341630D01*
X744220Y322580D02*
X749300Y327660D01*
X754380Y322580D01*
X749300Y317500D01*
X744220Y322580D01*
X722630Y356870D02*
X727710Y361950D01*
X732790Y356870D01*
X727710Y351790D01*
X722630Y356870D01*
X754380Y379730D02*
X759460Y384810D01*
X764540Y379730D01*
X759460Y374650D01*
X754380Y379730D01*
X783590Y473710D02*
X788670Y478790D01*
X793750Y473710D01*
X788670Y468630D01*
X783590Y473710D01*
X698500Y474980D02*
X703580Y480060D01*
X708660Y474980D01*
X703580Y469900D01*
X698500Y474980D01*
X1009650Y302260D02*
Y312420D01*
X1019810D01*
Y302260D01*
X1009650D01*
X1011682Y304292D02*
Y310388D01*
X1017778D01*
Y304292D01*
X1011682D01*
X1010920Y228600D02*
Y238760D01*
X1021080D01*
Y228600D01*
X1010920D01*
X1012952Y230632D02*
Y236728D01*
X1019048D01*
Y230632D01*
X1012952D01*
X887730Y328930D02*
X892810Y334010D01*
X897890Y328930D01*
X892810Y323850D01*
X887730Y328930D01*
X923290Y201930D02*
X928370Y207010D01*
X933450Y201930D01*
X928370Y196850D01*
X923290Y201930D01*
X817880Y316230D02*
Y326390D01*
X828040D01*
Y316230D01*
X817880D01*
X819912Y318262D02*
Y324358D01*
X826008D01*
Y318262D01*
X819912D01*
X869950Y129540D02*
Y139700D01*
X880110D01*
Y129540D01*
X869950D01*
X871982Y131572D02*
Y137668D01*
X878078D01*
Y131572D01*
X871982D01*
X922020Y356870D02*
X927100Y361950D01*
X932180Y356870D01*
X927100Y351790D01*
X922020Y356870D01*
Y327660D02*
X927100Y332740D01*
X932180Y327660D01*
X927100Y322580D01*
X922020Y327660D01*
X892810Y248920D02*
Y259080D01*
X902970D01*
Y248920D01*
X892810D01*
X894842Y250952D02*
Y257048D01*
X900938D01*
Y250952D01*
X894842D01*
X897890Y231140D02*
X902970Y236220D01*
X908050Y231140D01*
X902970Y226060D01*
X897890Y231140D01*
D111*
X1681480Y410210D02*
G03*
X1681480Y410210I-5080J0D01*
G01*
X1717040Y158750D02*
G03*
X1717040Y158750I-5080J0D01*
G01*
X1659890Y160020D02*
G03*
X1659890Y160020I-5080J0D01*
G01*
X1423670Y140970D02*
G03*
X1423670Y140970I-5080J0D01*
G01*
M02*
