M48
;Layer_Color=9474304
;FILE_FORMAT=4:4
METRIC,LZ
;TYPE=PLATED
T1F00S00C0.2000
T2F00S00C0.5000
T3F00S00C0.5001
T4F00S00C0.9500
T5F00S00C1.0000
T6F00S00C1.0500
T7F00S00C1.6000
%
T01
X009414Y002297
X009524
Y002407
X009414
Y002517
Y002627
X009524
Y002517
X009634
Y002627
X009744
Y002517
Y002407
X009634
Y002297
X009744
T02
X0070612Y0006858
Y0011176
X0072517Y0011811
X007239Y0014224
X0071501Y0016891
X0073279Y0018161
X0075057Y0017907
X00762Y001651
X0077851Y0017907
X0076708Y0025146
X0075057
X0073279Y0025273
X0071882
X0070612
X0065278Y002413
X0071501Y0032635
Y0034163
X0072771Y0035687
X0075311
X0075946Y0037973
X007112Y0037338
X0073279Y0032512
X007493Y0032258
X0076962Y0032762
X007874Y0010414
X0084328Y0017272
X0092837Y0020193
X0090297Y0023114
X0089281Y0032893
X009271Y0032766
Y0035687
X0085102Y0035806
X0085852Y0033139
X0081788Y003429
X0080264Y0033782
X009906Y0032766
X0100076Y0029718
X0103378
X01053195Y00300226
X0105283Y0028448
X0105156Y0031623
X0105029Y00357865
X01049065Y00386045
X0101473Y0038481
X0117475Y0036449
X0118999
X010541Y0023114
X01055169Y0021147
X010541Y0018923
X01055673Y0017058
X010541Y0015367
Y0011684
X01054714Y00092232
X0103886Y0009525
X0102235Y0012065
X0100076Y0014224
X010033Y001905
X0100584Y0021336
X0102997Y0017653
X0097155Y0009525
X01055181Y0002892
X0114808Y0005207
X0122047Y0003556
X0124206Y0014097
X0136525Y0017653
X0145542Y0018161
X0147574Y0003429
X014605Y0036322
X0136398Y0039116
X0130302Y0036449
X0128905
X0127
X0125095
X0123444
X012192
X0120396
X0173609Y0039624
X0181737Y0025527
X0172085Y0008382
X0161798Y0041656
X014859Y0042799
X0136271
Y0041402
Y0040132
Y0044323
Y0045847
X011303Y0046101
Y0044577
X0112014Y0042926
Y0041656
Y0040513
X0104902Y0041021
X01049983Y00440657
X01048606Y00464062
X0104902Y0047879
X0098933Y0046609
X0098552Y0042164
X0095758Y004191
X0090678Y0042926
X0087884Y0040386
X0085598
X008255
X0102489Y0042672
X011303Y0047625
X0078867Y0047371
X0070358Y0047498
Y004191
T03
X00104141Y0024205
X00124461
X00134621Y0026237
X00114301
X00673101Y0026618
X00662941Y002484
X0084709Y0021844
X0087503Y0017018
Y0013462
X0089789Y00254
X0094615Y0024638
X009579Y002462
X0096901Y0024638
X0095758Y0023495
Y0025781
X01016Y0023368
X0105283Y0025781
X0106934Y0026797
X0108458
X0108966Y0028448
X0107315Y0024638
X0113411Y0025146
Y0031496
X011303Y0038354
X0103124Y003683
X0101473Y0030734
X0100711Y0017907
X0107188Y0008001
X009398Y0038862
X0082296
Y0032131
X0119634Y0018542
X0124714Y0006096
X013462Y0026924
X0134366Y0028194
X0134493Y0029591
X0134747Y00381
X0159639Y0011049
X0088138Y0042672
X0086106Y0045593
X0082804Y0046863
T04
X0112602Y0011176
X0117602
T05
X0069223Y0018541
X0069227Y0025327
X0069223Y0032113
X0081534Y002843
Y0025327
Y0022224
Y0018796
X0179197Y0017566
Y0020066
X0178435Y0031242
Y0033742
X0144526Y004318
X0141986
X0139446
T06
X0108204Y0045593
X0110744
X00762Y0045212
X007366
T07
X0141859Y0014097
X0165481Y0016002
X0171196Y0015875
X016764Y0041021
M30
